M48
; DRILL file {KiCad (5.1.2)-2} date 29.10.2019 07:49:47
; FORMAT={-:-/ absolute / metric / decimal}
; #@! TF.CreationDate,2019-10-29T07:49:47+01:00
; #@! TF.GenerationSoftware,Kicad,Pcbnew,(5.1.2)-2
; #@! TF.FileFunction,Plated,1,2,PTH
FMAT,2
METRIC
T1C0.400
T2C0.762
T3C1.000
T4C2.400
%
G90
G05
T1
X94.173Y-74.855
X96.713Y-81.586
X98.035Y-104.884
X98.035Y-115.175
X105.242Y-75.859
X159.73Y-95.65
X167.35Y-126.13
X175.971Y-81.892
X176.327Y-118.062
T2
X159.6Y-83.27
X159.68Y-80.73
X162.4Y-80.73
X162.4Y-83.27
X159.603Y-115.969
X159.603Y-118.509
X162.323Y-118.509
X162.403Y-115.969
T3
X112.71Y-101.34
X120.71Y-101.34
X112.71Y-97.9
X120.71Y-97.9
X128.27Y-90.73
X128.27Y-93.27
X128.27Y-95.81
X128.27Y-98.35
X128.27Y-100.89
X128.27Y-103.43
X128.27Y-105.97
X128.27Y-108.51
X143.51Y-90.73
X143.51Y-93.27
X143.51Y-95.81
X143.51Y-98.35
X143.51Y-100.89
X143.51Y-103.43
X143.51Y-105.97
X143.51Y-108.51
X149.87Y-75.49
X149.87Y-78.03
X149.87Y-80.57
X149.87Y-83.11
X149.87Y-85.65
X149.87Y-88.19
X149.87Y-90.73
X149.87Y-93.27
X149.87Y-95.81
X149.87Y-98.35
X149.87Y-100.89
X149.87Y-103.43
X149.87Y-105.97
X149.87Y-108.51
X149.87Y-111.05
X149.87Y-113.59
X149.87Y-116.13
X149.87Y-118.67
X149.87Y-121.21
X149.87Y-123.75
X167.65Y-75.49
X167.65Y-78.03
X167.65Y-80.57
X167.65Y-83.11
X167.65Y-85.65
X167.65Y-88.19
X167.65Y-90.73
X167.65Y-93.27
X167.65Y-95.81
X167.65Y-98.35
X167.65Y-100.89
X167.65Y-103.43
X167.65Y-105.97
X167.65Y-108.51
X167.65Y-111.05
X167.65Y-113.59
X167.65Y-116.13
X167.65Y-118.67
X167.65Y-121.21
X167.65Y-123.75
X107.0Y-99.62
X107.0Y-93.62
X107.0Y-105.62
T4
X107.71Y-115.55
X125.71Y-115.55
X107.71Y-83.69
X125.71Y-83.69
X177.81Y-89.62
X177.81Y-109.62
X100.34Y-93.025
X100.34Y-106.215
X108.405Y-75.62
X108.405Y-123.62
X157.405Y-90.62
X157.405Y-108.62
T0
M30
