G04 #@! TF.GenerationSoftware,KiCad,Pcbnew,(5.1.2)-2*
G04 #@! TF.CreationDate,2019-10-29T07:50:01+01:00*
G04 #@! TF.ProjectId,Alphabot2.0,416c7068-6162-46f7-9432-2e302e6b6963,1.0*
G04 #@! TF.SameCoordinates,Original*
G04 #@! TF.FileFunction,Copper,L1,Top*
G04 #@! TF.FilePolarity,Positive*
%FSLAX46Y46*%
G04 Gerber Fmt 4.6, Leading zero omitted, Abs format (unit mm)*
G04 Created by KiCad (PCBNEW (5.1.2)-2) date 2019-10-29 07:50:01*
%MOMM*%
%LPD*%
G04 APERTURE LIST*
%ADD10C,2.400000*%
%ADD11C,2.000000*%
%ADD12R,3.150000X1.000000*%
%ADD13C,1.524000*%
%ADD14R,2.000000X2.000000*%
%ADD15C,0.100000*%
%ADD16C,1.150000*%
%ADD17C,0.800000*%
%ADD18C,0.250000*%
%ADD19C,1.000000*%
G04 APERTURE END LIST*
D10*
X157405000Y-108620000D03*
X108405000Y-75620000D03*
X157405000Y-90620000D03*
X108405000Y-123620000D03*
D11*
X167650000Y-75490000D03*
X167650000Y-78030000D03*
X167650000Y-80570000D03*
X167650000Y-83110000D03*
X167650000Y-85650000D03*
X167650000Y-88190000D03*
X167650000Y-90730000D03*
X167650000Y-93270000D03*
X167650000Y-95810000D03*
X167650000Y-98350000D03*
X167650000Y-100890000D03*
X167650000Y-103430000D03*
X167650000Y-105970000D03*
X167650000Y-108510000D03*
X167650000Y-111050000D03*
X167650000Y-113590000D03*
X167650000Y-116130000D03*
X167650000Y-118670000D03*
X167650000Y-121210000D03*
X167650000Y-123750000D03*
X149870000Y-123750000D03*
X149870000Y-121210000D03*
X149870000Y-118670000D03*
X149870000Y-116130000D03*
X149870000Y-113590000D03*
X149870000Y-111050000D03*
X149870000Y-108510000D03*
X149870000Y-105970000D03*
X149870000Y-103430000D03*
X149870000Y-100890000D03*
X149870000Y-98350000D03*
X149870000Y-95810000D03*
X149870000Y-93270000D03*
X149870000Y-90730000D03*
X149870000Y-88190000D03*
X149870000Y-85650000D03*
X149870000Y-83110000D03*
X149870000Y-80570000D03*
X149870000Y-78030000D03*
X149870000Y-75490000D03*
D12*
X101585000Y-123675000D03*
X96535000Y-123675000D03*
X101585000Y-121135000D03*
X96535000Y-121135000D03*
D13*
X159602940Y-115968560D03*
X159602940Y-118508560D03*
X162322940Y-118508560D03*
X162402940Y-115968560D03*
X162400000Y-83270000D03*
X162400000Y-80730000D03*
X159680000Y-80730000D03*
X159600000Y-83270000D03*
D10*
X177810000Y-109620000D03*
X177810000Y-89620000D03*
X100340000Y-106215000D03*
X100340000Y-93025000D03*
D11*
X143510000Y-90730000D03*
X143510000Y-93270000D03*
X143510000Y-95810000D03*
X143510000Y-98350000D03*
X143510000Y-100890000D03*
X143510000Y-103430000D03*
X143510000Y-105970000D03*
X128270000Y-108510000D03*
X128270000Y-105970000D03*
X128270000Y-103430000D03*
X128270000Y-100890000D03*
X128270000Y-98350000D03*
X128270000Y-95810000D03*
X128270000Y-93270000D03*
X143510000Y-108510000D03*
X128270000Y-90730000D03*
D10*
X125710000Y-115550000D03*
X107710000Y-115550000D03*
D11*
X120710000Y-101340000D03*
X112710000Y-101340000D03*
D10*
X107710000Y-83690000D03*
X125710000Y-83690000D03*
D11*
X112710000Y-97900000D03*
X120710000Y-97900000D03*
D14*
X107000000Y-93620000D03*
X107000000Y-105620000D03*
X107000000Y-99620000D03*
D15*
G36*
X105514505Y-72961204D02*
G01*
X105538773Y-72964804D01*
X105562572Y-72970765D01*
X105585671Y-72979030D01*
X105607850Y-72989520D01*
X105628893Y-73002132D01*
X105648599Y-73016747D01*
X105666777Y-73033223D01*
X105683253Y-73051401D01*
X105697868Y-73071107D01*
X105710480Y-73092150D01*
X105720970Y-73114329D01*
X105729235Y-73137428D01*
X105735196Y-73161227D01*
X105738796Y-73185495D01*
X105740000Y-73209999D01*
X105740000Y-74110001D01*
X105738796Y-74134505D01*
X105735196Y-74158773D01*
X105729235Y-74182572D01*
X105720970Y-74205671D01*
X105710480Y-74227850D01*
X105697868Y-74248893D01*
X105683253Y-74268599D01*
X105666777Y-74286777D01*
X105648599Y-74303253D01*
X105628893Y-74317868D01*
X105607850Y-74330480D01*
X105585671Y-74340970D01*
X105562572Y-74349235D01*
X105538773Y-74355196D01*
X105514505Y-74358796D01*
X105490001Y-74360000D01*
X104839999Y-74360000D01*
X104815495Y-74358796D01*
X104791227Y-74355196D01*
X104767428Y-74349235D01*
X104744329Y-74340970D01*
X104722150Y-74330480D01*
X104701107Y-74317868D01*
X104681401Y-74303253D01*
X104663223Y-74286777D01*
X104646747Y-74268599D01*
X104632132Y-74248893D01*
X104619520Y-74227850D01*
X104609030Y-74205671D01*
X104600765Y-74182572D01*
X104594804Y-74158773D01*
X104591204Y-74134505D01*
X104590000Y-74110001D01*
X104590000Y-73209999D01*
X104591204Y-73185495D01*
X104594804Y-73161227D01*
X104600765Y-73137428D01*
X104609030Y-73114329D01*
X104619520Y-73092150D01*
X104632132Y-73071107D01*
X104646747Y-73051401D01*
X104663223Y-73033223D01*
X104681401Y-73016747D01*
X104701107Y-73002132D01*
X104722150Y-72989520D01*
X104744329Y-72979030D01*
X104767428Y-72970765D01*
X104791227Y-72964804D01*
X104815495Y-72961204D01*
X104839999Y-72960000D01*
X105490001Y-72960000D01*
X105514505Y-72961204D01*
X105514505Y-72961204D01*
G37*
D16*
X105165000Y-73660000D03*
D15*
G36*
X103464505Y-72961204D02*
G01*
X103488773Y-72964804D01*
X103512572Y-72970765D01*
X103535671Y-72979030D01*
X103557850Y-72989520D01*
X103578893Y-73002132D01*
X103598599Y-73016747D01*
X103616777Y-73033223D01*
X103633253Y-73051401D01*
X103647868Y-73071107D01*
X103660480Y-73092150D01*
X103670970Y-73114329D01*
X103679235Y-73137428D01*
X103685196Y-73161227D01*
X103688796Y-73185495D01*
X103690000Y-73209999D01*
X103690000Y-74110001D01*
X103688796Y-74134505D01*
X103685196Y-74158773D01*
X103679235Y-74182572D01*
X103670970Y-74205671D01*
X103660480Y-74227850D01*
X103647868Y-74248893D01*
X103633253Y-74268599D01*
X103616777Y-74286777D01*
X103598599Y-74303253D01*
X103578893Y-74317868D01*
X103557850Y-74330480D01*
X103535671Y-74340970D01*
X103512572Y-74349235D01*
X103488773Y-74355196D01*
X103464505Y-74358796D01*
X103440001Y-74360000D01*
X102789999Y-74360000D01*
X102765495Y-74358796D01*
X102741227Y-74355196D01*
X102717428Y-74349235D01*
X102694329Y-74340970D01*
X102672150Y-74330480D01*
X102651107Y-74317868D01*
X102631401Y-74303253D01*
X102613223Y-74286777D01*
X102596747Y-74268599D01*
X102582132Y-74248893D01*
X102569520Y-74227850D01*
X102559030Y-74205671D01*
X102550765Y-74182572D01*
X102544804Y-74158773D01*
X102541204Y-74134505D01*
X102540000Y-74110001D01*
X102540000Y-73209999D01*
X102541204Y-73185495D01*
X102544804Y-73161227D01*
X102550765Y-73137428D01*
X102559030Y-73114329D01*
X102569520Y-73092150D01*
X102582132Y-73071107D01*
X102596747Y-73051401D01*
X102613223Y-73033223D01*
X102631401Y-73016747D01*
X102651107Y-73002132D01*
X102672150Y-72989520D01*
X102694329Y-72979030D01*
X102717428Y-72970765D01*
X102741227Y-72964804D01*
X102765495Y-72961204D01*
X102789999Y-72960000D01*
X103440001Y-72960000D01*
X103464505Y-72961204D01*
X103464505Y-72961204D01*
G37*
D16*
X103115000Y-73660000D03*
D15*
G36*
X103464505Y-76771204D02*
G01*
X103488773Y-76774804D01*
X103512572Y-76780765D01*
X103535671Y-76789030D01*
X103557850Y-76799520D01*
X103578893Y-76812132D01*
X103598599Y-76826747D01*
X103616777Y-76843223D01*
X103633253Y-76861401D01*
X103647868Y-76881107D01*
X103660480Y-76902150D01*
X103670970Y-76924329D01*
X103679235Y-76947428D01*
X103685196Y-76971227D01*
X103688796Y-76995495D01*
X103690000Y-77019999D01*
X103690000Y-77920001D01*
X103688796Y-77944505D01*
X103685196Y-77968773D01*
X103679235Y-77992572D01*
X103670970Y-78015671D01*
X103660480Y-78037850D01*
X103647868Y-78058893D01*
X103633253Y-78078599D01*
X103616777Y-78096777D01*
X103598599Y-78113253D01*
X103578893Y-78127868D01*
X103557850Y-78140480D01*
X103535671Y-78150970D01*
X103512572Y-78159235D01*
X103488773Y-78165196D01*
X103464505Y-78168796D01*
X103440001Y-78170000D01*
X102789999Y-78170000D01*
X102765495Y-78168796D01*
X102741227Y-78165196D01*
X102717428Y-78159235D01*
X102694329Y-78150970D01*
X102672150Y-78140480D01*
X102651107Y-78127868D01*
X102631401Y-78113253D01*
X102613223Y-78096777D01*
X102596747Y-78078599D01*
X102582132Y-78058893D01*
X102569520Y-78037850D01*
X102559030Y-78015671D01*
X102550765Y-77992572D01*
X102544804Y-77968773D01*
X102541204Y-77944505D01*
X102540000Y-77920001D01*
X102540000Y-77019999D01*
X102541204Y-76995495D01*
X102544804Y-76971227D01*
X102550765Y-76947428D01*
X102559030Y-76924329D01*
X102569520Y-76902150D01*
X102582132Y-76881107D01*
X102596747Y-76861401D01*
X102613223Y-76843223D01*
X102631401Y-76826747D01*
X102651107Y-76812132D01*
X102672150Y-76799520D01*
X102694329Y-76789030D01*
X102717428Y-76780765D01*
X102741227Y-76774804D01*
X102765495Y-76771204D01*
X102789999Y-76770000D01*
X103440001Y-76770000D01*
X103464505Y-76771204D01*
X103464505Y-76771204D01*
G37*
D16*
X103115000Y-77470000D03*
D15*
G36*
X105514505Y-76771204D02*
G01*
X105538773Y-76774804D01*
X105562572Y-76780765D01*
X105585671Y-76789030D01*
X105607850Y-76799520D01*
X105628893Y-76812132D01*
X105648599Y-76826747D01*
X105666777Y-76843223D01*
X105683253Y-76861401D01*
X105697868Y-76881107D01*
X105710480Y-76902150D01*
X105720970Y-76924329D01*
X105729235Y-76947428D01*
X105735196Y-76971227D01*
X105738796Y-76995495D01*
X105740000Y-77019999D01*
X105740000Y-77920001D01*
X105738796Y-77944505D01*
X105735196Y-77968773D01*
X105729235Y-77992572D01*
X105720970Y-78015671D01*
X105710480Y-78037850D01*
X105697868Y-78058893D01*
X105683253Y-78078599D01*
X105666777Y-78096777D01*
X105648599Y-78113253D01*
X105628893Y-78127868D01*
X105607850Y-78140480D01*
X105585671Y-78150970D01*
X105562572Y-78159235D01*
X105538773Y-78165196D01*
X105514505Y-78168796D01*
X105490001Y-78170000D01*
X104839999Y-78170000D01*
X104815495Y-78168796D01*
X104791227Y-78165196D01*
X104767428Y-78159235D01*
X104744329Y-78150970D01*
X104722150Y-78140480D01*
X104701107Y-78127868D01*
X104681401Y-78113253D01*
X104663223Y-78096777D01*
X104646747Y-78078599D01*
X104632132Y-78058893D01*
X104619520Y-78037850D01*
X104609030Y-78015671D01*
X104600765Y-77992572D01*
X104594804Y-77968773D01*
X104591204Y-77944505D01*
X104590000Y-77920001D01*
X104590000Y-77019999D01*
X104591204Y-76995495D01*
X104594804Y-76971227D01*
X104600765Y-76947428D01*
X104609030Y-76924329D01*
X104619520Y-76902150D01*
X104632132Y-76881107D01*
X104646747Y-76861401D01*
X104663223Y-76843223D01*
X104681401Y-76826747D01*
X104701107Y-76812132D01*
X104722150Y-76799520D01*
X104744329Y-76789030D01*
X104767428Y-76780765D01*
X104791227Y-76774804D01*
X104815495Y-76771204D01*
X104839999Y-76770000D01*
X105490001Y-76770000D01*
X105514505Y-76771204D01*
X105514505Y-76771204D01*
G37*
D16*
X105165000Y-77470000D03*
D15*
G36*
X98384505Y-72961204D02*
G01*
X98408773Y-72964804D01*
X98432572Y-72970765D01*
X98455671Y-72979030D01*
X98477850Y-72989520D01*
X98498893Y-73002132D01*
X98518599Y-73016747D01*
X98536777Y-73033223D01*
X98553253Y-73051401D01*
X98567868Y-73071107D01*
X98580480Y-73092150D01*
X98590970Y-73114329D01*
X98599235Y-73137428D01*
X98605196Y-73161227D01*
X98608796Y-73185495D01*
X98610000Y-73209999D01*
X98610000Y-74110001D01*
X98608796Y-74134505D01*
X98605196Y-74158773D01*
X98599235Y-74182572D01*
X98590970Y-74205671D01*
X98580480Y-74227850D01*
X98567868Y-74248893D01*
X98553253Y-74268599D01*
X98536777Y-74286777D01*
X98518599Y-74303253D01*
X98498893Y-74317868D01*
X98477850Y-74330480D01*
X98455671Y-74340970D01*
X98432572Y-74349235D01*
X98408773Y-74355196D01*
X98384505Y-74358796D01*
X98360001Y-74360000D01*
X97709999Y-74360000D01*
X97685495Y-74358796D01*
X97661227Y-74355196D01*
X97637428Y-74349235D01*
X97614329Y-74340970D01*
X97592150Y-74330480D01*
X97571107Y-74317868D01*
X97551401Y-74303253D01*
X97533223Y-74286777D01*
X97516747Y-74268599D01*
X97502132Y-74248893D01*
X97489520Y-74227850D01*
X97479030Y-74205671D01*
X97470765Y-74182572D01*
X97464804Y-74158773D01*
X97461204Y-74134505D01*
X97460000Y-74110001D01*
X97460000Y-73209999D01*
X97461204Y-73185495D01*
X97464804Y-73161227D01*
X97470765Y-73137428D01*
X97479030Y-73114329D01*
X97489520Y-73092150D01*
X97502132Y-73071107D01*
X97516747Y-73051401D01*
X97533223Y-73033223D01*
X97551401Y-73016747D01*
X97571107Y-73002132D01*
X97592150Y-72989520D01*
X97614329Y-72979030D01*
X97637428Y-72970765D01*
X97661227Y-72964804D01*
X97685495Y-72961204D01*
X97709999Y-72960000D01*
X98360001Y-72960000D01*
X98384505Y-72961204D01*
X98384505Y-72961204D01*
G37*
D16*
X98035000Y-73660000D03*
D15*
G36*
X100434505Y-72961204D02*
G01*
X100458773Y-72964804D01*
X100482572Y-72970765D01*
X100505671Y-72979030D01*
X100527850Y-72989520D01*
X100548893Y-73002132D01*
X100568599Y-73016747D01*
X100586777Y-73033223D01*
X100603253Y-73051401D01*
X100617868Y-73071107D01*
X100630480Y-73092150D01*
X100640970Y-73114329D01*
X100649235Y-73137428D01*
X100655196Y-73161227D01*
X100658796Y-73185495D01*
X100660000Y-73209999D01*
X100660000Y-74110001D01*
X100658796Y-74134505D01*
X100655196Y-74158773D01*
X100649235Y-74182572D01*
X100640970Y-74205671D01*
X100630480Y-74227850D01*
X100617868Y-74248893D01*
X100603253Y-74268599D01*
X100586777Y-74286777D01*
X100568599Y-74303253D01*
X100548893Y-74317868D01*
X100527850Y-74330480D01*
X100505671Y-74340970D01*
X100482572Y-74349235D01*
X100458773Y-74355196D01*
X100434505Y-74358796D01*
X100410001Y-74360000D01*
X99759999Y-74360000D01*
X99735495Y-74358796D01*
X99711227Y-74355196D01*
X99687428Y-74349235D01*
X99664329Y-74340970D01*
X99642150Y-74330480D01*
X99621107Y-74317868D01*
X99601401Y-74303253D01*
X99583223Y-74286777D01*
X99566747Y-74268599D01*
X99552132Y-74248893D01*
X99539520Y-74227850D01*
X99529030Y-74205671D01*
X99520765Y-74182572D01*
X99514804Y-74158773D01*
X99511204Y-74134505D01*
X99510000Y-74110001D01*
X99510000Y-73209999D01*
X99511204Y-73185495D01*
X99514804Y-73161227D01*
X99520765Y-73137428D01*
X99529030Y-73114329D01*
X99539520Y-73092150D01*
X99552132Y-73071107D01*
X99566747Y-73051401D01*
X99583223Y-73033223D01*
X99601401Y-73016747D01*
X99621107Y-73002132D01*
X99642150Y-72989520D01*
X99664329Y-72979030D01*
X99687428Y-72970765D01*
X99711227Y-72964804D01*
X99735495Y-72961204D01*
X99759999Y-72960000D01*
X100410001Y-72960000D01*
X100434505Y-72961204D01*
X100434505Y-72961204D01*
G37*
D16*
X100085000Y-73660000D03*
D15*
G36*
X100434505Y-76771204D02*
G01*
X100458773Y-76774804D01*
X100482572Y-76780765D01*
X100505671Y-76789030D01*
X100527850Y-76799520D01*
X100548893Y-76812132D01*
X100568599Y-76826747D01*
X100586777Y-76843223D01*
X100603253Y-76861401D01*
X100617868Y-76881107D01*
X100630480Y-76902150D01*
X100640970Y-76924329D01*
X100649235Y-76947428D01*
X100655196Y-76971227D01*
X100658796Y-76995495D01*
X100660000Y-77019999D01*
X100660000Y-77920001D01*
X100658796Y-77944505D01*
X100655196Y-77968773D01*
X100649235Y-77992572D01*
X100640970Y-78015671D01*
X100630480Y-78037850D01*
X100617868Y-78058893D01*
X100603253Y-78078599D01*
X100586777Y-78096777D01*
X100568599Y-78113253D01*
X100548893Y-78127868D01*
X100527850Y-78140480D01*
X100505671Y-78150970D01*
X100482572Y-78159235D01*
X100458773Y-78165196D01*
X100434505Y-78168796D01*
X100410001Y-78170000D01*
X99759999Y-78170000D01*
X99735495Y-78168796D01*
X99711227Y-78165196D01*
X99687428Y-78159235D01*
X99664329Y-78150970D01*
X99642150Y-78140480D01*
X99621107Y-78127868D01*
X99601401Y-78113253D01*
X99583223Y-78096777D01*
X99566747Y-78078599D01*
X99552132Y-78058893D01*
X99539520Y-78037850D01*
X99529030Y-78015671D01*
X99520765Y-77992572D01*
X99514804Y-77968773D01*
X99511204Y-77944505D01*
X99510000Y-77920001D01*
X99510000Y-77019999D01*
X99511204Y-76995495D01*
X99514804Y-76971227D01*
X99520765Y-76947428D01*
X99529030Y-76924329D01*
X99539520Y-76902150D01*
X99552132Y-76881107D01*
X99566747Y-76861401D01*
X99583223Y-76843223D01*
X99601401Y-76826747D01*
X99621107Y-76812132D01*
X99642150Y-76799520D01*
X99664329Y-76789030D01*
X99687428Y-76780765D01*
X99711227Y-76774804D01*
X99735495Y-76771204D01*
X99759999Y-76770000D01*
X100410001Y-76770000D01*
X100434505Y-76771204D01*
X100434505Y-76771204D01*
G37*
D16*
X100085000Y-77470000D03*
D15*
G36*
X98384505Y-76771204D02*
G01*
X98408773Y-76774804D01*
X98432572Y-76780765D01*
X98455671Y-76789030D01*
X98477850Y-76799520D01*
X98498893Y-76812132D01*
X98518599Y-76826747D01*
X98536777Y-76843223D01*
X98553253Y-76861401D01*
X98567868Y-76881107D01*
X98580480Y-76902150D01*
X98590970Y-76924329D01*
X98599235Y-76947428D01*
X98605196Y-76971227D01*
X98608796Y-76995495D01*
X98610000Y-77019999D01*
X98610000Y-77920001D01*
X98608796Y-77944505D01*
X98605196Y-77968773D01*
X98599235Y-77992572D01*
X98590970Y-78015671D01*
X98580480Y-78037850D01*
X98567868Y-78058893D01*
X98553253Y-78078599D01*
X98536777Y-78096777D01*
X98518599Y-78113253D01*
X98498893Y-78127868D01*
X98477850Y-78140480D01*
X98455671Y-78150970D01*
X98432572Y-78159235D01*
X98408773Y-78165196D01*
X98384505Y-78168796D01*
X98360001Y-78170000D01*
X97709999Y-78170000D01*
X97685495Y-78168796D01*
X97661227Y-78165196D01*
X97637428Y-78159235D01*
X97614329Y-78150970D01*
X97592150Y-78140480D01*
X97571107Y-78127868D01*
X97551401Y-78113253D01*
X97533223Y-78096777D01*
X97516747Y-78078599D01*
X97502132Y-78058893D01*
X97489520Y-78037850D01*
X97479030Y-78015671D01*
X97470765Y-77992572D01*
X97464804Y-77968773D01*
X97461204Y-77944505D01*
X97460000Y-77920001D01*
X97460000Y-77019999D01*
X97461204Y-76995495D01*
X97464804Y-76971227D01*
X97470765Y-76947428D01*
X97479030Y-76924329D01*
X97489520Y-76902150D01*
X97502132Y-76881107D01*
X97516747Y-76861401D01*
X97533223Y-76843223D01*
X97551401Y-76826747D01*
X97571107Y-76812132D01*
X97592150Y-76799520D01*
X97614329Y-76789030D01*
X97637428Y-76780765D01*
X97661227Y-76774804D01*
X97685495Y-76771204D01*
X97709999Y-76770000D01*
X98360001Y-76770000D01*
X98384505Y-76771204D01*
X98384505Y-76771204D01*
G37*
D16*
X98035000Y-77470000D03*
D15*
G36*
X160074505Y-87451204D02*
G01*
X160098773Y-87454804D01*
X160122572Y-87460765D01*
X160145671Y-87469030D01*
X160167850Y-87479520D01*
X160188893Y-87492132D01*
X160208599Y-87506747D01*
X160226777Y-87523223D01*
X160243253Y-87541401D01*
X160257868Y-87561107D01*
X160270480Y-87582150D01*
X160280970Y-87604329D01*
X160289235Y-87627428D01*
X160295196Y-87651227D01*
X160298796Y-87675495D01*
X160300000Y-87699999D01*
X160300000Y-88350001D01*
X160298796Y-88374505D01*
X160295196Y-88398773D01*
X160289235Y-88422572D01*
X160280970Y-88445671D01*
X160270480Y-88467850D01*
X160257868Y-88488893D01*
X160243253Y-88508599D01*
X160226777Y-88526777D01*
X160208599Y-88543253D01*
X160188893Y-88557868D01*
X160167850Y-88570480D01*
X160145671Y-88580970D01*
X160122572Y-88589235D01*
X160098773Y-88595196D01*
X160074505Y-88598796D01*
X160050001Y-88600000D01*
X159149999Y-88600000D01*
X159125495Y-88598796D01*
X159101227Y-88595196D01*
X159077428Y-88589235D01*
X159054329Y-88580970D01*
X159032150Y-88570480D01*
X159011107Y-88557868D01*
X158991401Y-88543253D01*
X158973223Y-88526777D01*
X158956747Y-88508599D01*
X158942132Y-88488893D01*
X158929520Y-88467850D01*
X158919030Y-88445671D01*
X158910765Y-88422572D01*
X158904804Y-88398773D01*
X158901204Y-88374505D01*
X158900000Y-88350001D01*
X158900000Y-87699999D01*
X158901204Y-87675495D01*
X158904804Y-87651227D01*
X158910765Y-87627428D01*
X158919030Y-87604329D01*
X158929520Y-87582150D01*
X158942132Y-87561107D01*
X158956747Y-87541401D01*
X158973223Y-87523223D01*
X158991401Y-87506747D01*
X159011107Y-87492132D01*
X159032150Y-87479520D01*
X159054329Y-87469030D01*
X159077428Y-87460765D01*
X159101227Y-87454804D01*
X159125495Y-87451204D01*
X159149999Y-87450000D01*
X160050001Y-87450000D01*
X160074505Y-87451204D01*
X160074505Y-87451204D01*
G37*
D16*
X159600000Y-88025000D03*
D15*
G36*
X160074505Y-85401204D02*
G01*
X160098773Y-85404804D01*
X160122572Y-85410765D01*
X160145671Y-85419030D01*
X160167850Y-85429520D01*
X160188893Y-85442132D01*
X160208599Y-85456747D01*
X160226777Y-85473223D01*
X160243253Y-85491401D01*
X160257868Y-85511107D01*
X160270480Y-85532150D01*
X160280970Y-85554329D01*
X160289235Y-85577428D01*
X160295196Y-85601227D01*
X160298796Y-85625495D01*
X160300000Y-85649999D01*
X160300000Y-86300001D01*
X160298796Y-86324505D01*
X160295196Y-86348773D01*
X160289235Y-86372572D01*
X160280970Y-86395671D01*
X160270480Y-86417850D01*
X160257868Y-86438893D01*
X160243253Y-86458599D01*
X160226777Y-86476777D01*
X160208599Y-86493253D01*
X160188893Y-86507868D01*
X160167850Y-86520480D01*
X160145671Y-86530970D01*
X160122572Y-86539235D01*
X160098773Y-86545196D01*
X160074505Y-86548796D01*
X160050001Y-86550000D01*
X159149999Y-86550000D01*
X159125495Y-86548796D01*
X159101227Y-86545196D01*
X159077428Y-86539235D01*
X159054329Y-86530970D01*
X159032150Y-86520480D01*
X159011107Y-86507868D01*
X158991401Y-86493253D01*
X158973223Y-86476777D01*
X158956747Y-86458599D01*
X158942132Y-86438893D01*
X158929520Y-86417850D01*
X158919030Y-86395671D01*
X158910765Y-86372572D01*
X158904804Y-86348773D01*
X158901204Y-86324505D01*
X158900000Y-86300001D01*
X158900000Y-85649999D01*
X158901204Y-85625495D01*
X158904804Y-85601227D01*
X158910765Y-85577428D01*
X158919030Y-85554329D01*
X158929520Y-85532150D01*
X158942132Y-85511107D01*
X158956747Y-85491401D01*
X158973223Y-85473223D01*
X158991401Y-85456747D01*
X159011107Y-85442132D01*
X159032150Y-85429520D01*
X159054329Y-85419030D01*
X159077428Y-85410765D01*
X159101227Y-85404804D01*
X159125495Y-85401204D01*
X159149999Y-85400000D01*
X160050001Y-85400000D01*
X160074505Y-85401204D01*
X160074505Y-85401204D01*
G37*
D16*
X159600000Y-85975000D03*
D15*
G36*
X162874505Y-85401204D02*
G01*
X162898773Y-85404804D01*
X162922572Y-85410765D01*
X162945671Y-85419030D01*
X162967850Y-85429520D01*
X162988893Y-85442132D01*
X163008599Y-85456747D01*
X163026777Y-85473223D01*
X163043253Y-85491401D01*
X163057868Y-85511107D01*
X163070480Y-85532150D01*
X163080970Y-85554329D01*
X163089235Y-85577428D01*
X163095196Y-85601227D01*
X163098796Y-85625495D01*
X163100000Y-85649999D01*
X163100000Y-86300001D01*
X163098796Y-86324505D01*
X163095196Y-86348773D01*
X163089235Y-86372572D01*
X163080970Y-86395671D01*
X163070480Y-86417850D01*
X163057868Y-86438893D01*
X163043253Y-86458599D01*
X163026777Y-86476777D01*
X163008599Y-86493253D01*
X162988893Y-86507868D01*
X162967850Y-86520480D01*
X162945671Y-86530970D01*
X162922572Y-86539235D01*
X162898773Y-86545196D01*
X162874505Y-86548796D01*
X162850001Y-86550000D01*
X161949999Y-86550000D01*
X161925495Y-86548796D01*
X161901227Y-86545196D01*
X161877428Y-86539235D01*
X161854329Y-86530970D01*
X161832150Y-86520480D01*
X161811107Y-86507868D01*
X161791401Y-86493253D01*
X161773223Y-86476777D01*
X161756747Y-86458599D01*
X161742132Y-86438893D01*
X161729520Y-86417850D01*
X161719030Y-86395671D01*
X161710765Y-86372572D01*
X161704804Y-86348773D01*
X161701204Y-86324505D01*
X161700000Y-86300001D01*
X161700000Y-85649999D01*
X161701204Y-85625495D01*
X161704804Y-85601227D01*
X161710765Y-85577428D01*
X161719030Y-85554329D01*
X161729520Y-85532150D01*
X161742132Y-85511107D01*
X161756747Y-85491401D01*
X161773223Y-85473223D01*
X161791401Y-85456747D01*
X161811107Y-85442132D01*
X161832150Y-85429520D01*
X161854329Y-85419030D01*
X161877428Y-85410765D01*
X161901227Y-85404804D01*
X161925495Y-85401204D01*
X161949999Y-85400000D01*
X162850001Y-85400000D01*
X162874505Y-85401204D01*
X162874505Y-85401204D01*
G37*
D16*
X162400000Y-85975000D03*
D15*
G36*
X162874505Y-87451204D02*
G01*
X162898773Y-87454804D01*
X162922572Y-87460765D01*
X162945671Y-87469030D01*
X162967850Y-87479520D01*
X162988893Y-87492132D01*
X163008599Y-87506747D01*
X163026777Y-87523223D01*
X163043253Y-87541401D01*
X163057868Y-87561107D01*
X163070480Y-87582150D01*
X163080970Y-87604329D01*
X163089235Y-87627428D01*
X163095196Y-87651227D01*
X163098796Y-87675495D01*
X163100000Y-87699999D01*
X163100000Y-88350001D01*
X163098796Y-88374505D01*
X163095196Y-88398773D01*
X163089235Y-88422572D01*
X163080970Y-88445671D01*
X163070480Y-88467850D01*
X163057868Y-88488893D01*
X163043253Y-88508599D01*
X163026777Y-88526777D01*
X163008599Y-88543253D01*
X162988893Y-88557868D01*
X162967850Y-88570480D01*
X162945671Y-88580970D01*
X162922572Y-88589235D01*
X162898773Y-88595196D01*
X162874505Y-88598796D01*
X162850001Y-88600000D01*
X161949999Y-88600000D01*
X161925495Y-88598796D01*
X161901227Y-88595196D01*
X161877428Y-88589235D01*
X161854329Y-88580970D01*
X161832150Y-88570480D01*
X161811107Y-88557868D01*
X161791401Y-88543253D01*
X161773223Y-88526777D01*
X161756747Y-88508599D01*
X161742132Y-88488893D01*
X161729520Y-88467850D01*
X161719030Y-88445671D01*
X161710765Y-88422572D01*
X161704804Y-88398773D01*
X161701204Y-88374505D01*
X161700000Y-88350001D01*
X161700000Y-87699999D01*
X161701204Y-87675495D01*
X161704804Y-87651227D01*
X161710765Y-87627428D01*
X161719030Y-87604329D01*
X161729520Y-87582150D01*
X161742132Y-87561107D01*
X161756747Y-87541401D01*
X161773223Y-87523223D01*
X161791401Y-87506747D01*
X161811107Y-87492132D01*
X161832150Y-87479520D01*
X161854329Y-87469030D01*
X161877428Y-87460765D01*
X161901227Y-87454804D01*
X161925495Y-87451204D01*
X161949999Y-87450000D01*
X162850001Y-87450000D01*
X162874505Y-87451204D01*
X162874505Y-87451204D01*
G37*
D16*
X162400000Y-88025000D03*
D15*
G36*
X162874505Y-110641204D02*
G01*
X162898773Y-110644804D01*
X162922572Y-110650765D01*
X162945671Y-110659030D01*
X162967850Y-110669520D01*
X162988893Y-110682132D01*
X163008599Y-110696747D01*
X163026777Y-110713223D01*
X163043253Y-110731401D01*
X163057868Y-110751107D01*
X163070480Y-110772150D01*
X163080970Y-110794329D01*
X163089235Y-110817428D01*
X163095196Y-110841227D01*
X163098796Y-110865495D01*
X163100000Y-110889999D01*
X163100000Y-111540001D01*
X163098796Y-111564505D01*
X163095196Y-111588773D01*
X163089235Y-111612572D01*
X163080970Y-111635671D01*
X163070480Y-111657850D01*
X163057868Y-111678893D01*
X163043253Y-111698599D01*
X163026777Y-111716777D01*
X163008599Y-111733253D01*
X162988893Y-111747868D01*
X162967850Y-111760480D01*
X162945671Y-111770970D01*
X162922572Y-111779235D01*
X162898773Y-111785196D01*
X162874505Y-111788796D01*
X162850001Y-111790000D01*
X161949999Y-111790000D01*
X161925495Y-111788796D01*
X161901227Y-111785196D01*
X161877428Y-111779235D01*
X161854329Y-111770970D01*
X161832150Y-111760480D01*
X161811107Y-111747868D01*
X161791401Y-111733253D01*
X161773223Y-111716777D01*
X161756747Y-111698599D01*
X161742132Y-111678893D01*
X161729520Y-111657850D01*
X161719030Y-111635671D01*
X161710765Y-111612572D01*
X161704804Y-111588773D01*
X161701204Y-111564505D01*
X161700000Y-111540001D01*
X161700000Y-110889999D01*
X161701204Y-110865495D01*
X161704804Y-110841227D01*
X161710765Y-110817428D01*
X161719030Y-110794329D01*
X161729520Y-110772150D01*
X161742132Y-110751107D01*
X161756747Y-110731401D01*
X161773223Y-110713223D01*
X161791401Y-110696747D01*
X161811107Y-110682132D01*
X161832150Y-110669520D01*
X161854329Y-110659030D01*
X161877428Y-110650765D01*
X161901227Y-110644804D01*
X161925495Y-110641204D01*
X161949999Y-110640000D01*
X162850001Y-110640000D01*
X162874505Y-110641204D01*
X162874505Y-110641204D01*
G37*
D16*
X162400000Y-111215000D03*
D15*
G36*
X162874505Y-112691204D02*
G01*
X162898773Y-112694804D01*
X162922572Y-112700765D01*
X162945671Y-112709030D01*
X162967850Y-112719520D01*
X162988893Y-112732132D01*
X163008599Y-112746747D01*
X163026777Y-112763223D01*
X163043253Y-112781401D01*
X163057868Y-112801107D01*
X163070480Y-112822150D01*
X163080970Y-112844329D01*
X163089235Y-112867428D01*
X163095196Y-112891227D01*
X163098796Y-112915495D01*
X163100000Y-112939999D01*
X163100000Y-113590001D01*
X163098796Y-113614505D01*
X163095196Y-113638773D01*
X163089235Y-113662572D01*
X163080970Y-113685671D01*
X163070480Y-113707850D01*
X163057868Y-113728893D01*
X163043253Y-113748599D01*
X163026777Y-113766777D01*
X163008599Y-113783253D01*
X162988893Y-113797868D01*
X162967850Y-113810480D01*
X162945671Y-113820970D01*
X162922572Y-113829235D01*
X162898773Y-113835196D01*
X162874505Y-113838796D01*
X162850001Y-113840000D01*
X161949999Y-113840000D01*
X161925495Y-113838796D01*
X161901227Y-113835196D01*
X161877428Y-113829235D01*
X161854329Y-113820970D01*
X161832150Y-113810480D01*
X161811107Y-113797868D01*
X161791401Y-113783253D01*
X161773223Y-113766777D01*
X161756747Y-113748599D01*
X161742132Y-113728893D01*
X161729520Y-113707850D01*
X161719030Y-113685671D01*
X161710765Y-113662572D01*
X161704804Y-113638773D01*
X161701204Y-113614505D01*
X161700000Y-113590001D01*
X161700000Y-112939999D01*
X161701204Y-112915495D01*
X161704804Y-112891227D01*
X161710765Y-112867428D01*
X161719030Y-112844329D01*
X161729520Y-112822150D01*
X161742132Y-112801107D01*
X161756747Y-112781401D01*
X161773223Y-112763223D01*
X161791401Y-112746747D01*
X161811107Y-112732132D01*
X161832150Y-112719520D01*
X161854329Y-112709030D01*
X161877428Y-112700765D01*
X161901227Y-112694804D01*
X161925495Y-112691204D01*
X161949999Y-112690000D01*
X162850001Y-112690000D01*
X162874505Y-112691204D01*
X162874505Y-112691204D01*
G37*
D16*
X162400000Y-113265000D03*
D15*
G36*
X160074505Y-112691204D02*
G01*
X160098773Y-112694804D01*
X160122572Y-112700765D01*
X160145671Y-112709030D01*
X160167850Y-112719520D01*
X160188893Y-112732132D01*
X160208599Y-112746747D01*
X160226777Y-112763223D01*
X160243253Y-112781401D01*
X160257868Y-112801107D01*
X160270480Y-112822150D01*
X160280970Y-112844329D01*
X160289235Y-112867428D01*
X160295196Y-112891227D01*
X160298796Y-112915495D01*
X160300000Y-112939999D01*
X160300000Y-113590001D01*
X160298796Y-113614505D01*
X160295196Y-113638773D01*
X160289235Y-113662572D01*
X160280970Y-113685671D01*
X160270480Y-113707850D01*
X160257868Y-113728893D01*
X160243253Y-113748599D01*
X160226777Y-113766777D01*
X160208599Y-113783253D01*
X160188893Y-113797868D01*
X160167850Y-113810480D01*
X160145671Y-113820970D01*
X160122572Y-113829235D01*
X160098773Y-113835196D01*
X160074505Y-113838796D01*
X160050001Y-113840000D01*
X159149999Y-113840000D01*
X159125495Y-113838796D01*
X159101227Y-113835196D01*
X159077428Y-113829235D01*
X159054329Y-113820970D01*
X159032150Y-113810480D01*
X159011107Y-113797868D01*
X158991401Y-113783253D01*
X158973223Y-113766777D01*
X158956747Y-113748599D01*
X158942132Y-113728893D01*
X158929520Y-113707850D01*
X158919030Y-113685671D01*
X158910765Y-113662572D01*
X158904804Y-113638773D01*
X158901204Y-113614505D01*
X158900000Y-113590001D01*
X158900000Y-112939999D01*
X158901204Y-112915495D01*
X158904804Y-112891227D01*
X158910765Y-112867428D01*
X158919030Y-112844329D01*
X158929520Y-112822150D01*
X158942132Y-112801107D01*
X158956747Y-112781401D01*
X158973223Y-112763223D01*
X158991401Y-112746747D01*
X159011107Y-112732132D01*
X159032150Y-112719520D01*
X159054329Y-112709030D01*
X159077428Y-112700765D01*
X159101227Y-112694804D01*
X159125495Y-112691204D01*
X159149999Y-112690000D01*
X160050001Y-112690000D01*
X160074505Y-112691204D01*
X160074505Y-112691204D01*
G37*
D16*
X159600000Y-113265000D03*
D15*
G36*
X160074505Y-110641204D02*
G01*
X160098773Y-110644804D01*
X160122572Y-110650765D01*
X160145671Y-110659030D01*
X160167850Y-110669520D01*
X160188893Y-110682132D01*
X160208599Y-110696747D01*
X160226777Y-110713223D01*
X160243253Y-110731401D01*
X160257868Y-110751107D01*
X160270480Y-110772150D01*
X160280970Y-110794329D01*
X160289235Y-110817428D01*
X160295196Y-110841227D01*
X160298796Y-110865495D01*
X160300000Y-110889999D01*
X160300000Y-111540001D01*
X160298796Y-111564505D01*
X160295196Y-111588773D01*
X160289235Y-111612572D01*
X160280970Y-111635671D01*
X160270480Y-111657850D01*
X160257868Y-111678893D01*
X160243253Y-111698599D01*
X160226777Y-111716777D01*
X160208599Y-111733253D01*
X160188893Y-111747868D01*
X160167850Y-111760480D01*
X160145671Y-111770970D01*
X160122572Y-111779235D01*
X160098773Y-111785196D01*
X160074505Y-111788796D01*
X160050001Y-111790000D01*
X159149999Y-111790000D01*
X159125495Y-111788796D01*
X159101227Y-111785196D01*
X159077428Y-111779235D01*
X159054329Y-111770970D01*
X159032150Y-111760480D01*
X159011107Y-111747868D01*
X158991401Y-111733253D01*
X158973223Y-111716777D01*
X158956747Y-111698599D01*
X158942132Y-111678893D01*
X158929520Y-111657850D01*
X158919030Y-111635671D01*
X158910765Y-111612572D01*
X158904804Y-111588773D01*
X158901204Y-111564505D01*
X158900000Y-111540001D01*
X158900000Y-110889999D01*
X158901204Y-110865495D01*
X158904804Y-110841227D01*
X158910765Y-110817428D01*
X158919030Y-110794329D01*
X158929520Y-110772150D01*
X158942132Y-110751107D01*
X158956747Y-110731401D01*
X158973223Y-110713223D01*
X158991401Y-110696747D01*
X159011107Y-110682132D01*
X159032150Y-110669520D01*
X159054329Y-110659030D01*
X159077428Y-110650765D01*
X159101227Y-110644804D01*
X159125495Y-110641204D01*
X159149999Y-110640000D01*
X160050001Y-110640000D01*
X160074505Y-110641204D01*
X160074505Y-110641204D01*
G37*
D16*
X159600000Y-111215000D03*
D17*
X94173000Y-74855000D03*
X96713000Y-81586000D03*
X98035000Y-104884400D03*
X98035000Y-115175000D03*
X105242200Y-75858600D03*
X176326800Y-118061600D03*
X175971200Y-81892000D03*
X167350000Y-126130000D03*
X159730000Y-95650000D03*
D18*
X98035000Y-73660000D02*
X98035000Y-77470000D01*
X143510000Y-114850000D02*
X149870000Y-121210000D01*
X143510000Y-108510000D02*
X143510000Y-114850000D01*
X97360000Y-73660000D02*
X98035000Y-73660000D01*
X94802315Y-73660000D02*
X97360000Y-73660000D01*
X94173000Y-74289315D02*
X94802315Y-73660000D01*
X94173000Y-74855000D02*
X94173000Y-74289315D01*
X96713000Y-81586000D02*
X98035000Y-82908000D01*
X98035000Y-82908000D02*
X98035000Y-104884400D01*
X101585000Y-123675000D02*
X101585000Y-121135000D01*
X101585000Y-118725000D02*
X98035000Y-115175000D01*
X101585000Y-121135000D02*
X101585000Y-118725000D01*
X161322370Y-80730000D02*
X159680000Y-80730000D01*
X162400000Y-80730000D02*
X161322370Y-80730000D01*
X160680570Y-118508560D02*
X162322940Y-118508560D01*
X159602940Y-118508560D02*
X160680570Y-118508560D01*
X152679400Y-118400600D02*
X149870000Y-121210000D01*
X159680000Y-80730000D02*
X152679400Y-87730600D01*
X152679400Y-87730600D02*
X152679400Y-118400600D01*
X135340000Y-73660000D02*
X149870000Y-88190000D01*
X105165000Y-73660000D02*
X135340000Y-73660000D01*
X103115000Y-73660000D02*
X100085000Y-73660000D01*
X100760000Y-77470000D02*
X103115000Y-77470000D01*
X100085000Y-77470000D02*
X100760000Y-77470000D01*
D19*
X128270000Y-90730000D02*
X128270000Y-93270000D01*
D18*
X105242200Y-77392800D02*
X105165000Y-77470000D01*
X105242200Y-75858600D02*
X105242200Y-77392800D01*
X149870000Y-123171002D02*
X135194000Y-108495002D01*
X149870000Y-123750000D02*
X149870000Y-123171002D01*
X135194000Y-100194000D02*
X128270000Y-93270000D01*
X135194000Y-108495002D02*
X135194000Y-100194000D01*
X108250000Y-105620000D02*
X109667000Y-104203000D01*
X107000000Y-105620000D02*
X108250000Y-105620000D01*
X109667000Y-104203000D02*
X109667000Y-98286500D01*
X114683500Y-93270000D02*
X128270000Y-93270000D01*
X109667000Y-98286500D02*
X114683500Y-93270000D01*
X96535000Y-123675000D02*
X96535000Y-121135000D01*
X105750000Y-105620000D02*
X107000000Y-105620000D01*
X103629999Y-107740001D02*
X105750000Y-105620000D01*
X99951997Y-107740001D02*
X103629999Y-107740001D01*
X96535000Y-111156998D02*
X99951997Y-107740001D01*
X96535000Y-121135000D02*
X96535000Y-111156998D01*
X175971200Y-110038202D02*
X175971200Y-81892000D01*
X176326800Y-118061600D02*
X176326800Y-110393802D01*
X176326800Y-110393802D02*
X175971200Y-110038202D01*
X105750000Y-105620000D02*
X103073200Y-102943200D01*
X103073200Y-102943200D02*
X103073200Y-82552400D01*
X105165000Y-80460600D02*
X105165000Y-77470000D01*
X103073200Y-82552400D02*
X105165000Y-80460600D01*
X175418400Y-118061600D02*
X176326800Y-118061600D01*
X167350000Y-126130000D02*
X175418400Y-118061600D01*
X148870001Y-89730001D02*
X149870000Y-90730000D01*
X147966001Y-88826001D02*
X148870001Y-89730001D01*
X113043999Y-88826001D02*
X147966001Y-88826001D01*
X108250000Y-93620000D02*
X113043999Y-88826001D01*
X107000000Y-93620000D02*
X108250000Y-93620000D01*
X127820000Y-101340000D02*
X128270000Y-100890000D01*
X120710000Y-101340000D02*
X127820000Y-101340000D01*
X126855787Y-98350000D02*
X128270000Y-98350000D01*
X125980786Y-99225001D02*
X126855787Y-98350000D01*
X120863997Y-99225001D02*
X125980786Y-99225001D01*
X118748998Y-101340000D02*
X120863997Y-99225001D01*
X112710000Y-101340000D02*
X118748998Y-101340000D01*
X146050000Y-93270000D02*
X149870000Y-93270000D01*
X143510000Y-90730000D02*
X146050000Y-93270000D01*
X146050000Y-95810000D02*
X149870000Y-95810000D01*
X143510000Y-93270000D02*
X146050000Y-95810000D01*
X146050000Y-98350000D02*
X149870000Y-98350000D01*
X143510000Y-95810000D02*
X146050000Y-98350000D01*
X146050000Y-100890000D02*
X149870000Y-100890000D01*
X143510000Y-98350000D02*
X146050000Y-100890000D01*
X146050000Y-103430000D02*
X149870000Y-103430000D01*
X143510000Y-100890000D02*
X146050000Y-103430000D01*
X146050000Y-105970000D02*
X149870000Y-105970000D01*
X143510000Y-103430000D02*
X146050000Y-105970000D01*
X146050000Y-108510000D02*
X149870000Y-108510000D01*
X143510000Y-105970000D02*
X146050000Y-108510000D01*
X159600000Y-85300000D02*
X159600000Y-83270000D01*
X159600000Y-85975000D02*
X159600000Y-85300000D01*
X162400000Y-83270000D02*
X162400000Y-85975000D01*
X165435000Y-85975000D02*
X167650000Y-88190000D01*
X162400000Y-85975000D02*
X165435000Y-85975000D01*
X159600000Y-115965620D02*
X159602940Y-115968560D01*
X159600000Y-113265000D02*
X159600000Y-115965620D01*
X159600000Y-113265000D02*
X157509400Y-113265000D01*
X157509400Y-113265000D02*
X154355800Y-110111400D01*
X154355800Y-104024200D02*
X167650000Y-90730000D01*
X154355800Y-110111400D02*
X154355800Y-104024200D01*
X162402940Y-113267940D02*
X162400000Y-113265000D01*
X162402940Y-115968560D02*
X162402940Y-113267940D01*
X161600000Y-88025000D02*
X159600000Y-88025000D01*
X162400000Y-88025000D02*
X161600000Y-88025000D01*
X162400000Y-88025000D02*
X162400000Y-92980000D01*
X162400000Y-92980000D02*
X159730000Y-95650000D01*
X159600000Y-111215000D02*
X162400000Y-111215000D01*
X167485000Y-111215000D02*
X167650000Y-111050000D01*
X162400000Y-111215000D02*
X167485000Y-111215000D01*
M02*
