G04 #@! TF.GenerationSoftware,KiCad,Pcbnew,(5.1.2)-2*
G04 #@! TF.CreationDate,2019-10-29T07:50:01+01:00*
G04 #@! TF.ProjectId,Alphabot2.0,416c7068-6162-46f7-9432-2e302e6b6963,1.0*
G04 #@! TF.SameCoordinates,Original*
G04 #@! TF.FileFunction,Legend,Top*
G04 #@! TF.FilePolarity,Positive*
%FSLAX46Y46*%
G04 Gerber Fmt 4.6, Leading zero omitted, Abs format (unit mm)*
G04 Created by KiCad (PCBNEW (5.1.2)-2) date 2019-10-29 07:50:01*
%MOMM*%
%LPD*%
G04 APERTURE LIST*
%ADD10C,0.300000*%
%ADD11C,0.125000*%
%ADD12C,0.150000*%
%ADD13C,0.250000*%
%ADD14C,0.120000*%
G04 APERTURE END LIST*
D10*
X124650714Y-125451428D02*
X124722142Y-125380000D01*
X124865000Y-125308571D01*
X125222142Y-125308571D01*
X125365000Y-125380000D01*
X125436428Y-125451428D01*
X125507857Y-125594285D01*
X125507857Y-125737142D01*
X125436428Y-125951428D01*
X124579285Y-126808571D01*
X125507857Y-126808571D01*
X126365000Y-125951428D02*
X126222142Y-125880000D01*
X126150714Y-125808571D01*
X126079285Y-125665714D01*
X126079285Y-125594285D01*
X126150714Y-125451428D01*
X126222142Y-125380000D01*
X126365000Y-125308571D01*
X126650714Y-125308571D01*
X126793571Y-125380000D01*
X126865000Y-125451428D01*
X126936428Y-125594285D01*
X126936428Y-125665714D01*
X126865000Y-125808571D01*
X126793571Y-125880000D01*
X126650714Y-125951428D01*
X126365000Y-125951428D01*
X126222142Y-126022857D01*
X126150714Y-126094285D01*
X126079285Y-126237142D01*
X126079285Y-126522857D01*
X126150714Y-126665714D01*
X126222142Y-126737142D01*
X126365000Y-126808571D01*
X126650714Y-126808571D01*
X126793571Y-126737142D01*
X126865000Y-126665714D01*
X126936428Y-126522857D01*
X126936428Y-126237142D01*
X126865000Y-126094285D01*
X126793571Y-126022857D01*
X126650714Y-125951428D01*
X127579285Y-126665714D02*
X127650714Y-126737142D01*
X127579285Y-126808571D01*
X127507857Y-126737142D01*
X127579285Y-126665714D01*
X127579285Y-126808571D01*
X129079285Y-126808571D02*
X128222142Y-126808571D01*
X128650714Y-126808571D02*
X128650714Y-125308571D01*
X128507857Y-125522857D01*
X128365000Y-125665714D01*
X128222142Y-125737142D01*
X130007857Y-125308571D02*
X130150714Y-125308571D01*
X130293571Y-125380000D01*
X130365000Y-125451428D01*
X130436428Y-125594285D01*
X130507857Y-125880000D01*
X130507857Y-126237142D01*
X130436428Y-126522857D01*
X130365000Y-126665714D01*
X130293571Y-126737142D01*
X130150714Y-126808571D01*
X130007857Y-126808571D01*
X129865000Y-126737142D01*
X129793571Y-126665714D01*
X129722142Y-126522857D01*
X129650714Y-126237142D01*
X129650714Y-125880000D01*
X129722142Y-125594285D01*
X129793571Y-125451428D01*
X129865000Y-125380000D01*
X130007857Y-125308571D01*
X131150714Y-126665714D02*
X131222142Y-126737142D01*
X131150714Y-126808571D01*
X131079285Y-126737142D01*
X131150714Y-126665714D01*
X131150714Y-126808571D01*
X131793571Y-125451428D02*
X131865000Y-125380000D01*
X132007857Y-125308571D01*
X132365000Y-125308571D01*
X132507857Y-125380000D01*
X132579285Y-125451428D01*
X132650714Y-125594285D01*
X132650714Y-125737142D01*
X132579285Y-125951428D01*
X131722142Y-126808571D01*
X132650714Y-126808571D01*
X133579285Y-125308571D02*
X133722142Y-125308571D01*
X133865000Y-125380000D01*
X133936428Y-125451428D01*
X134007857Y-125594285D01*
X134079285Y-125880000D01*
X134079285Y-126237142D01*
X134007857Y-126522857D01*
X133936428Y-126665714D01*
X133865000Y-126737142D01*
X133722142Y-126808571D01*
X133579285Y-126808571D01*
X133436428Y-126737142D01*
X133365000Y-126665714D01*
X133293571Y-126522857D01*
X133222142Y-126237142D01*
X133222142Y-125880000D01*
X133293571Y-125594285D01*
X133365000Y-125451428D01*
X133436428Y-125380000D01*
X133579285Y-125308571D01*
X135507857Y-126808571D02*
X134650714Y-126808571D01*
X135079285Y-126808571D02*
X135079285Y-125308571D01*
X134936428Y-125522857D01*
X134793571Y-125665714D01*
X134650714Y-125737142D01*
X136222142Y-126808571D02*
X136507857Y-126808571D01*
X136650714Y-126737142D01*
X136722142Y-126665714D01*
X136865000Y-126451428D01*
X136936428Y-126165714D01*
X136936428Y-125594285D01*
X136865000Y-125451428D01*
X136793571Y-125380000D01*
X136650714Y-125308571D01*
X136365000Y-125308571D01*
X136222142Y-125380000D01*
X136150714Y-125451428D01*
X136079285Y-125594285D01*
X136079285Y-125951428D01*
X136150714Y-126094285D01*
X136222142Y-126165714D01*
X136365000Y-126237142D01*
X136650714Y-126237142D01*
X136793571Y-126165714D01*
X136865000Y-126094285D01*
X136936428Y-125951428D01*
X124722142Y-124268571D02*
X124722142Y-122768571D01*
X125293571Y-122768571D01*
X125436428Y-122840000D01*
X125507857Y-122911428D01*
X125579285Y-123054285D01*
X125579285Y-123268571D01*
X125507857Y-123411428D01*
X125436428Y-123482857D01*
X125293571Y-123554285D01*
X124722142Y-123554285D01*
X126150714Y-124197142D02*
X126365000Y-124268571D01*
X126722142Y-124268571D01*
X126865000Y-124197142D01*
X126936428Y-124125714D01*
X127007857Y-123982857D01*
X127007857Y-123840000D01*
X126936428Y-123697142D01*
X126865000Y-123625714D01*
X126722142Y-123554285D01*
X126436428Y-123482857D01*
X126293571Y-123411428D01*
X126222142Y-123340000D01*
X126150714Y-123197142D01*
X126150714Y-123054285D01*
X126222142Y-122911428D01*
X126293571Y-122840000D01*
X126436428Y-122768571D01*
X126793571Y-122768571D01*
X127007857Y-122840000D01*
X127650714Y-124268571D02*
X127650714Y-122768571D01*
X129507857Y-123482857D02*
X130007857Y-123482857D01*
X130222142Y-124268571D02*
X129507857Y-124268571D01*
X129507857Y-122768571D01*
X130222142Y-122768571D01*
X131365000Y-123482857D02*
X131579285Y-123554285D01*
X131650714Y-123625714D01*
X131722142Y-123768571D01*
X131722142Y-123982857D01*
X131650714Y-124125714D01*
X131579285Y-124197142D01*
X131436428Y-124268571D01*
X130865000Y-124268571D01*
X130865000Y-122768571D01*
X131365000Y-122768571D01*
X131507857Y-122840000D01*
X131579285Y-122911428D01*
X131650714Y-123054285D01*
X131650714Y-123197142D01*
X131579285Y-123340000D01*
X131507857Y-123411428D01*
X131365000Y-123482857D01*
X130865000Y-123482857D01*
X132365000Y-124268571D02*
X132365000Y-122768571D01*
X132722142Y-122768571D01*
X132936428Y-122840000D01*
X133079285Y-122982857D01*
X133150714Y-123125714D01*
X133222142Y-123411428D01*
X133222142Y-123625714D01*
X133150714Y-123911428D01*
X133079285Y-124054285D01*
X132936428Y-124197142D01*
X132722142Y-124268571D01*
X132365000Y-124268571D01*
X133865000Y-124268571D02*
X133865000Y-122768571D01*
X134436428Y-122768571D01*
X134579285Y-122840000D01*
X134650714Y-122911428D01*
X134722142Y-123054285D01*
X134722142Y-123268571D01*
X134650714Y-123411428D01*
X134579285Y-123482857D01*
X134436428Y-123554285D01*
X133865000Y-123554285D01*
X124650714Y-121300000D02*
X125365000Y-121300000D01*
X124507857Y-121728571D02*
X125007857Y-120228571D01*
X125507857Y-121728571D01*
X126222142Y-121728571D02*
X126079285Y-121657142D01*
X126007857Y-121514285D01*
X126007857Y-120228571D01*
X126793571Y-120728571D02*
X126793571Y-122228571D01*
X126793571Y-120800000D02*
X126936428Y-120728571D01*
X127222142Y-120728571D01*
X127365000Y-120800000D01*
X127436428Y-120871428D01*
X127507857Y-121014285D01*
X127507857Y-121442857D01*
X127436428Y-121585714D01*
X127365000Y-121657142D01*
X127222142Y-121728571D01*
X126936428Y-121728571D01*
X126793571Y-121657142D01*
X128150714Y-121728571D02*
X128150714Y-120228571D01*
X128793571Y-121728571D02*
X128793571Y-120942857D01*
X128722142Y-120800000D01*
X128579285Y-120728571D01*
X128365000Y-120728571D01*
X128222142Y-120800000D01*
X128150714Y-120871428D01*
X130150714Y-121728571D02*
X130150714Y-120942857D01*
X130079285Y-120800000D01*
X129936428Y-120728571D01*
X129650714Y-120728571D01*
X129507857Y-120800000D01*
X130150714Y-121657142D02*
X130007857Y-121728571D01*
X129650714Y-121728571D01*
X129507857Y-121657142D01*
X129436428Y-121514285D01*
X129436428Y-121371428D01*
X129507857Y-121228571D01*
X129650714Y-121157142D01*
X130007857Y-121157142D01*
X130150714Y-121085714D01*
X130865000Y-121728571D02*
X130865000Y-120228571D01*
X130865000Y-120800000D02*
X131007857Y-120728571D01*
X131293571Y-120728571D01*
X131436428Y-120800000D01*
X131507857Y-120871428D01*
X131579285Y-121014285D01*
X131579285Y-121442857D01*
X131507857Y-121585714D01*
X131436428Y-121657142D01*
X131293571Y-121728571D01*
X131007857Y-121728571D01*
X130865000Y-121657142D01*
X132436428Y-121728571D02*
X132293571Y-121657142D01*
X132222142Y-121585714D01*
X132150714Y-121442857D01*
X132150714Y-121014285D01*
X132222142Y-120871428D01*
X132293571Y-120800000D01*
X132436428Y-120728571D01*
X132650714Y-120728571D01*
X132793571Y-120800000D01*
X132865000Y-120871428D01*
X132936428Y-121014285D01*
X132936428Y-121442857D01*
X132865000Y-121585714D01*
X132793571Y-121657142D01*
X132650714Y-121728571D01*
X132436428Y-121728571D01*
X133365000Y-120728571D02*
X133936428Y-120728571D01*
X133579285Y-120228571D02*
X133579285Y-121514285D01*
X133650714Y-121657142D01*
X133793571Y-121728571D01*
X133936428Y-121728571D01*
X134365000Y-120371428D02*
X134436428Y-120300000D01*
X134579285Y-120228571D01*
X134936428Y-120228571D01*
X135079285Y-120300000D01*
X135150714Y-120371428D01*
X135222142Y-120514285D01*
X135222142Y-120657142D01*
X135150714Y-120871428D01*
X134293571Y-121728571D01*
X135222142Y-121728571D01*
X135865000Y-121585714D02*
X135936428Y-121657142D01*
X135865000Y-121728571D01*
X135793571Y-121657142D01*
X135865000Y-121585714D01*
X135865000Y-121728571D01*
X136865000Y-120228571D02*
X137007857Y-120228571D01*
X137150714Y-120300000D01*
X137222142Y-120371428D01*
X137293571Y-120514285D01*
X137365000Y-120800000D01*
X137365000Y-121157142D01*
X137293571Y-121442857D01*
X137222142Y-121585714D01*
X137150714Y-121657142D01*
X137007857Y-121728571D01*
X136865000Y-121728571D01*
X136722142Y-121657142D01*
X136650714Y-121585714D01*
X136579285Y-121442857D01*
X136507857Y-121157142D01*
X136507857Y-120800000D01*
X136579285Y-120514285D01*
X136650714Y-120371428D01*
X136722142Y-120300000D01*
X136865000Y-120228571D01*
X138936428Y-120228571D02*
X139436428Y-121728571D01*
X139936428Y-120228571D01*
X140365000Y-120371428D02*
X140436428Y-120300000D01*
X140579285Y-120228571D01*
X140936428Y-120228571D01*
X141079285Y-120300000D01*
X141150714Y-120371428D01*
X141222142Y-120514285D01*
X141222142Y-120657142D01*
X141150714Y-120871428D01*
X140293571Y-121728571D01*
X141222142Y-121728571D01*
D11*
X103759047Y-122155000D02*
X103711428Y-122131190D01*
X103640000Y-122131190D01*
X103568571Y-122155000D01*
X103520952Y-122202619D01*
X103497142Y-122250238D01*
X103473333Y-122345476D01*
X103473333Y-122416904D01*
X103497142Y-122512142D01*
X103520952Y-122559761D01*
X103568571Y-122607380D01*
X103640000Y-122631190D01*
X103687619Y-122631190D01*
X103759047Y-122607380D01*
X103782857Y-122583571D01*
X103782857Y-122416904D01*
X103687619Y-122416904D01*
X103997142Y-122631190D02*
X103997142Y-122131190D01*
X104282857Y-122631190D01*
X104282857Y-122131190D01*
X104520952Y-122631190D02*
X104520952Y-122131190D01*
X104640000Y-122131190D01*
X104711428Y-122155000D01*
X104759047Y-122202619D01*
X104782857Y-122250238D01*
X104806666Y-122345476D01*
X104806666Y-122416904D01*
X104782857Y-122512142D01*
X104759047Y-122559761D01*
X104711428Y-122607380D01*
X104640000Y-122631190D01*
X104520952Y-122631190D01*
X93884761Y-122131190D02*
X93646666Y-122131190D01*
X93622857Y-122369285D01*
X93646666Y-122345476D01*
X93694285Y-122321666D01*
X93813333Y-122321666D01*
X93860952Y-122345476D01*
X93884761Y-122369285D01*
X93908571Y-122416904D01*
X93908571Y-122535952D01*
X93884761Y-122583571D01*
X93860952Y-122607380D01*
X93813333Y-122631190D01*
X93694285Y-122631190D01*
X93646666Y-122607380D01*
X93622857Y-122583571D01*
X94051428Y-122131190D02*
X94218095Y-122631190D01*
X94384761Y-122131190D01*
D12*
X138948095Y-108010000D02*
X138852857Y-107962380D01*
X138710000Y-107962380D01*
X138567142Y-108010000D01*
X138471904Y-108105238D01*
X138424285Y-108200476D01*
X138376666Y-108390952D01*
X138376666Y-108533809D01*
X138424285Y-108724285D01*
X138471904Y-108819523D01*
X138567142Y-108914761D01*
X138710000Y-108962380D01*
X138805238Y-108962380D01*
X138948095Y-108914761D01*
X138995714Y-108867142D01*
X138995714Y-108533809D01*
X138805238Y-108533809D01*
X139424285Y-108962380D02*
X139424285Y-107962380D01*
X139995714Y-108962380D01*
X139995714Y-107962380D01*
X140471904Y-108962380D02*
X140471904Y-107962380D01*
X140710000Y-107962380D01*
X140852857Y-108010000D01*
X140948095Y-108105238D01*
X140995714Y-108200476D01*
X141043333Y-108390952D01*
X141043333Y-108533809D01*
X140995714Y-108724285D01*
X140948095Y-108819523D01*
X140852857Y-108914761D01*
X140710000Y-108962380D01*
X140471904Y-108962380D01*
D13*
X99959047Y-75701428D02*
X100720952Y-75701428D01*
X100340000Y-76082380D02*
X100340000Y-75320476D01*
X99959047Y-71891428D02*
X100720952Y-71891428D01*
X100340000Y-72272380D02*
X100340000Y-71510476D01*
D14*
X147330000Y-126290000D02*
X147330000Y-72950000D01*
X170190000Y-126290000D02*
X147330000Y-126290000D01*
X170190000Y-72950000D02*
X170190000Y-126290000D01*
X147330000Y-72950000D02*
X170190000Y-72950000D01*
X101660000Y-121895000D02*
X101660000Y-122915000D01*
X96460000Y-121895000D02*
X96460000Y-122915000D01*
X101660000Y-124435000D02*
X101660000Y-125005000D01*
X96460000Y-124435000D02*
X96460000Y-125005000D01*
X101660000Y-119805000D02*
X101660000Y-120375000D01*
X96460000Y-119805000D02*
X96460000Y-120375000D01*
X95020000Y-120375000D02*
X96460000Y-120375000D01*
X96460000Y-125005000D02*
X101660000Y-125005000D01*
X96460000Y-119805000D02*
X101660000Y-119805000D01*
X67320000Y-110415000D02*
X67320000Y-88825000D01*
X67320000Y-110415000D02*
X102880000Y-110415000D01*
X102880000Y-88825000D02*
X102880000Y-110415000D01*
X67320000Y-88825000D02*
X102880000Y-88825000D01*
X125730000Y-109780000D02*
X125730000Y-89460000D01*
X146050000Y-109780000D02*
X125730000Y-109780000D01*
X146050000Y-89460000D02*
X146050000Y-109780000D01*
X125730000Y-89460000D02*
X146050000Y-89460000D01*
X103660000Y-110620000D02*
X109460000Y-110620000D01*
X103660000Y-119120000D02*
X103660000Y-110620000D01*
X103660000Y-119120000D02*
X109460000Y-119120000D01*
X129760000Y-110620000D02*
X123960000Y-110620000D01*
X129760000Y-119120000D02*
X129760000Y-110620000D01*
X123960000Y-119120000D02*
X129760000Y-119120000D01*
X110960000Y-128120000D02*
X110960000Y-119120000D01*
X122460000Y-128120000D02*
X110960000Y-128120000D01*
X122460000Y-119120000D02*
X122460000Y-128120000D01*
X109460000Y-107620000D02*
X110460000Y-107620000D01*
X109460000Y-119120000D02*
X109460000Y-107620000D01*
X123960000Y-119120000D02*
X109460000Y-119120000D01*
X123960000Y-107620000D02*
X123960000Y-119120000D01*
X122460000Y-107620000D02*
X123960000Y-107620000D01*
X122460000Y-104120000D02*
X110960000Y-104120000D01*
X110960000Y-104120000D02*
X110960000Y-107620000D01*
X122460000Y-107620000D02*
X110460000Y-107620000D01*
X122460000Y-104120000D02*
X122460000Y-107620000D01*
X129760000Y-88620000D02*
X123960000Y-88620000D01*
X129760000Y-80120000D02*
X129760000Y-88620000D01*
X129760000Y-80120000D02*
X123960000Y-80120000D01*
X103660000Y-88620000D02*
X109460000Y-88620000D01*
X103660000Y-80120000D02*
X103660000Y-88620000D01*
X109460000Y-80120000D02*
X103660000Y-80120000D01*
X122460000Y-71120000D02*
X122460000Y-80120000D01*
X110960000Y-71120000D02*
X122460000Y-71120000D01*
X110960000Y-80120000D02*
X110960000Y-71120000D01*
X123960000Y-91620000D02*
X122960000Y-91620000D01*
X123960000Y-80120000D02*
X123960000Y-91620000D01*
X109460000Y-80120000D02*
X123960000Y-80120000D01*
X109460000Y-91620000D02*
X109460000Y-80120000D01*
X110960000Y-91620000D02*
X109460000Y-91620000D01*
X110960000Y-95120000D02*
X122460000Y-95120000D01*
X122460000Y-95120000D02*
X122460000Y-91620000D01*
X110960000Y-91620000D02*
X122960000Y-91620000D01*
X110960000Y-95120000D02*
X110960000Y-91620000D01*
X105670000Y-92290000D02*
X107000000Y-92290000D01*
X105670000Y-93620000D02*
X105670000Y-92290000D01*
X105670000Y-94890000D02*
X108330000Y-94890000D01*
X108330000Y-94890000D02*
X108330000Y-94950000D01*
X105670000Y-94890000D02*
X105670000Y-94950000D01*
X105670000Y-94950000D02*
X108330000Y-94950000D01*
X105670000Y-106950000D02*
X108330000Y-106950000D01*
X105670000Y-106890000D02*
X105670000Y-106950000D01*
X108330000Y-106890000D02*
X108330000Y-106950000D01*
X105670000Y-106890000D02*
X108330000Y-106890000D01*
X105670000Y-105620000D02*
X105670000Y-104290000D01*
X105670000Y-104290000D02*
X107000000Y-104290000D01*
X105670000Y-98290000D02*
X107000000Y-98290000D01*
X105670000Y-99620000D02*
X105670000Y-98290000D01*
X105670000Y-100890000D02*
X108330000Y-100890000D01*
X108330000Y-100890000D02*
X108330000Y-100950000D01*
X105670000Y-100890000D02*
X105670000Y-100950000D01*
X105670000Y-100950000D02*
X108330000Y-100950000D01*
X104401252Y-74370000D02*
X103878748Y-74370000D01*
X104401252Y-72950000D02*
X103878748Y-72950000D01*
X104401252Y-76760000D02*
X103878748Y-76760000D01*
X104401252Y-78180000D02*
X103878748Y-78180000D01*
X100060000Y-72700000D02*
X97200000Y-72700000D01*
X97200000Y-72700000D02*
X97200000Y-74620000D01*
X97200000Y-74620000D02*
X100060000Y-74620000D01*
X97200000Y-78430000D02*
X100060000Y-78430000D01*
X97200000Y-76510000D02*
X97200000Y-78430000D01*
X100060000Y-76510000D02*
X97200000Y-76510000D01*
X158890000Y-86738748D02*
X158890000Y-87261252D01*
X160310000Y-86738748D02*
X160310000Y-87261252D01*
X163110000Y-86738748D02*
X163110000Y-87261252D01*
X161690000Y-86738748D02*
X161690000Y-87261252D01*
X163110000Y-112501252D02*
X163110000Y-111978748D01*
X161690000Y-112501252D02*
X161690000Y-111978748D01*
X158890000Y-112501252D02*
X158890000Y-111978748D01*
X160310000Y-112501252D02*
X160310000Y-111978748D01*
D12*
X149108095Y-74942380D02*
X149108095Y-75751904D01*
X149155714Y-75847142D01*
X149203333Y-75894761D01*
X149298571Y-75942380D01*
X149489047Y-75942380D01*
X149584285Y-75894761D01*
X149631904Y-75847142D01*
X149679523Y-75751904D01*
X149679523Y-74942380D01*
X150679523Y-75942380D02*
X150108095Y-75942380D01*
X150393809Y-75942380D02*
X150393809Y-74942380D01*
X150298571Y-75085238D01*
X150203333Y-75180476D01*
X150108095Y-75228095D01*
X143551904Y-118122380D02*
X144170952Y-118122380D01*
X143837619Y-118503333D01*
X143980476Y-118503333D01*
X144075714Y-118550952D01*
X144123333Y-118598571D01*
X144170952Y-118693809D01*
X144170952Y-118931904D01*
X144123333Y-119027142D01*
X144075714Y-119074761D01*
X143980476Y-119122380D01*
X143694761Y-119122380D01*
X143599523Y-119074761D01*
X143551904Y-119027142D01*
X144456666Y-118122380D02*
X144790000Y-119122380D01*
X145123333Y-118122380D01*
X145361428Y-118122380D02*
X145980476Y-118122380D01*
X145647142Y-118503333D01*
X145790000Y-118503333D01*
X145885238Y-118550952D01*
X145932857Y-118598571D01*
X145980476Y-118693809D01*
X145980476Y-118931904D01*
X145932857Y-119027142D01*
X145885238Y-119074761D01*
X145790000Y-119122380D01*
X145504285Y-119122380D01*
X145409047Y-119074761D01*
X145361428Y-119027142D01*
X144028095Y-120710000D02*
X143932857Y-120662380D01*
X143790000Y-120662380D01*
X143647142Y-120710000D01*
X143551904Y-120805238D01*
X143504285Y-120900476D01*
X143456666Y-121090952D01*
X143456666Y-121233809D01*
X143504285Y-121424285D01*
X143551904Y-121519523D01*
X143647142Y-121614761D01*
X143790000Y-121662380D01*
X143885238Y-121662380D01*
X144028095Y-121614761D01*
X144075714Y-121567142D01*
X144075714Y-121233809D01*
X143885238Y-121233809D01*
X144504285Y-121662380D02*
X144504285Y-120662380D01*
X145075714Y-121662380D01*
X145075714Y-120662380D01*
X145551904Y-121662380D02*
X145551904Y-120662380D01*
X145790000Y-120662380D01*
X145932857Y-120710000D01*
X146028095Y-120805238D01*
X146075714Y-120900476D01*
X146123333Y-121090952D01*
X146123333Y-121233809D01*
X146075714Y-121424285D01*
X146028095Y-121519523D01*
X145932857Y-121614761D01*
X145790000Y-121662380D01*
X145551904Y-121662380D01*
X171991904Y-118598571D02*
X172325238Y-118598571D01*
X172468095Y-119122380D02*
X171991904Y-119122380D01*
X171991904Y-118122380D01*
X172468095Y-118122380D01*
X172896666Y-119122380D02*
X172896666Y-118122380D01*
X173468095Y-119122380D01*
X173468095Y-118122380D01*
X171920476Y-115582380D02*
X172539523Y-115582380D01*
X172206190Y-115963333D01*
X172349047Y-115963333D01*
X172444285Y-116010952D01*
X172491904Y-116058571D01*
X172539523Y-116153809D01*
X172539523Y-116391904D01*
X172491904Y-116487142D01*
X172444285Y-116534761D01*
X172349047Y-116582380D01*
X172063333Y-116582380D01*
X171968095Y-116534761D01*
X171920476Y-116487142D01*
X172872857Y-115582380D02*
X173539523Y-115582380D01*
X173110952Y-116582380D01*
X171920476Y-113042380D02*
X172539523Y-113042380D01*
X172206190Y-113423333D01*
X172349047Y-113423333D01*
X172444285Y-113470952D01*
X172491904Y-113518571D01*
X172539523Y-113613809D01*
X172539523Y-113851904D01*
X172491904Y-113947142D01*
X172444285Y-113994761D01*
X172349047Y-114042380D01*
X172063333Y-114042380D01*
X171968095Y-113994761D01*
X171920476Y-113947142D01*
X173110952Y-113470952D02*
X173015714Y-113423333D01*
X172968095Y-113375714D01*
X172920476Y-113280476D01*
X172920476Y-113232857D01*
X172968095Y-113137619D01*
X173015714Y-113090000D01*
X173110952Y-113042380D01*
X173301428Y-113042380D01*
X173396666Y-113090000D01*
X173444285Y-113137619D01*
X173491904Y-113232857D01*
X173491904Y-113280476D01*
X173444285Y-113375714D01*
X173396666Y-113423333D01*
X173301428Y-113470952D01*
X173110952Y-113470952D01*
X173015714Y-113518571D01*
X172968095Y-113566190D01*
X172920476Y-113661428D01*
X172920476Y-113851904D01*
X172968095Y-113947142D01*
X173015714Y-113994761D01*
X173110952Y-114042380D01*
X173301428Y-114042380D01*
X173396666Y-113994761D01*
X173444285Y-113947142D01*
X173491904Y-113851904D01*
X173491904Y-113661428D01*
X173444285Y-113566190D01*
X173396666Y-113518571D01*
X173301428Y-113470952D01*
X171920476Y-110502380D02*
X172539523Y-110502380D01*
X172206190Y-110883333D01*
X172349047Y-110883333D01*
X172444285Y-110930952D01*
X172491904Y-110978571D01*
X172539523Y-111073809D01*
X172539523Y-111311904D01*
X172491904Y-111407142D01*
X172444285Y-111454761D01*
X172349047Y-111502380D01*
X172063333Y-111502380D01*
X171968095Y-111454761D01*
X171920476Y-111407142D01*
X173396666Y-110835714D02*
X173396666Y-111502380D01*
X173158571Y-110454761D02*
X172920476Y-111169047D01*
X173539523Y-111169047D01*
X171920476Y-107962380D02*
X172539523Y-107962380D01*
X172206190Y-108343333D01*
X172349047Y-108343333D01*
X172444285Y-108390952D01*
X172491904Y-108438571D01*
X172539523Y-108533809D01*
X172539523Y-108771904D01*
X172491904Y-108867142D01*
X172444285Y-108914761D01*
X172349047Y-108962380D01*
X172063333Y-108962380D01*
X171968095Y-108914761D01*
X171920476Y-108867142D01*
X173444285Y-107962380D02*
X172968095Y-107962380D01*
X172920476Y-108438571D01*
X172968095Y-108390952D01*
X173063333Y-108343333D01*
X173301428Y-108343333D01*
X173396666Y-108390952D01*
X173444285Y-108438571D01*
X173491904Y-108533809D01*
X173491904Y-108771904D01*
X173444285Y-108867142D01*
X173396666Y-108914761D01*
X173301428Y-108962380D01*
X173063333Y-108962380D01*
X172968095Y-108914761D01*
X172920476Y-108867142D01*
X171491904Y-105422380D02*
X172063333Y-105422380D01*
X171777619Y-106422380D02*
X171777619Y-105422380D01*
X172301428Y-105422380D02*
X172968095Y-106422380D01*
X172968095Y-105422380D02*
X172301428Y-106422380D01*
X173539523Y-105422380D02*
X173634761Y-105422380D01*
X173730000Y-105470000D01*
X173777619Y-105517619D01*
X173825238Y-105612857D01*
X173872857Y-105803333D01*
X173872857Y-106041428D01*
X173825238Y-106231904D01*
X173777619Y-106327142D01*
X173730000Y-106374761D01*
X173634761Y-106422380D01*
X173539523Y-106422380D01*
X173444285Y-106374761D01*
X173396666Y-106327142D01*
X173349047Y-106231904D01*
X173301428Y-106041428D01*
X173301428Y-105803333D01*
X173349047Y-105612857D01*
X173396666Y-105517619D01*
X173444285Y-105470000D01*
X173539523Y-105422380D01*
X172087142Y-103882380D02*
X171753809Y-103406190D01*
X171515714Y-103882380D02*
X171515714Y-102882380D01*
X171896666Y-102882380D01*
X171991904Y-102930000D01*
X172039523Y-102977619D01*
X172087142Y-103072857D01*
X172087142Y-103215714D01*
X172039523Y-103310952D01*
X171991904Y-103358571D01*
X171896666Y-103406190D01*
X171515714Y-103406190D01*
X172420476Y-102882380D02*
X173087142Y-103882380D01*
X173087142Y-102882380D02*
X172420476Y-103882380D01*
X173658571Y-102882380D02*
X173753809Y-102882380D01*
X173849047Y-102930000D01*
X173896666Y-102977619D01*
X173944285Y-103072857D01*
X173991904Y-103263333D01*
X173991904Y-103501428D01*
X173944285Y-103691904D01*
X173896666Y-103787142D01*
X173849047Y-103834761D01*
X173753809Y-103882380D01*
X173658571Y-103882380D01*
X173563333Y-103834761D01*
X173515714Y-103787142D01*
X173468095Y-103691904D01*
X173420476Y-103501428D01*
X173420476Y-103263333D01*
X173468095Y-103072857D01*
X173515714Y-102977619D01*
X173563333Y-102930000D01*
X173658571Y-102882380D01*
X172539523Y-101342380D02*
X172730000Y-101342380D01*
X172825238Y-101294761D01*
X172872857Y-101247142D01*
X172968095Y-101104285D01*
X173015714Y-100913809D01*
X173015714Y-100532857D01*
X172968095Y-100437619D01*
X172920476Y-100390000D01*
X172825238Y-100342380D01*
X172634761Y-100342380D01*
X172539523Y-100390000D01*
X172491904Y-100437619D01*
X172444285Y-100532857D01*
X172444285Y-100770952D01*
X172491904Y-100866190D01*
X172539523Y-100913809D01*
X172634761Y-100961428D01*
X172825238Y-100961428D01*
X172920476Y-100913809D01*
X172968095Y-100866190D01*
X173015714Y-100770952D01*
X172539523Y-98802380D02*
X171968095Y-98802380D01*
X172253809Y-98802380D02*
X172253809Y-97802380D01*
X172158571Y-97945238D01*
X172063333Y-98040476D01*
X171968095Y-98088095D01*
X173158571Y-97802380D02*
X173253809Y-97802380D01*
X173349047Y-97850000D01*
X173396666Y-97897619D01*
X173444285Y-97992857D01*
X173491904Y-98183333D01*
X173491904Y-98421428D01*
X173444285Y-98611904D01*
X173396666Y-98707142D01*
X173349047Y-98754761D01*
X173253809Y-98802380D01*
X173158571Y-98802380D01*
X173063333Y-98754761D01*
X173015714Y-98707142D01*
X172968095Y-98611904D01*
X172920476Y-98421428D01*
X172920476Y-98183333D01*
X172968095Y-97992857D01*
X173015714Y-97897619D01*
X173063333Y-97850000D01*
X173158571Y-97802380D01*
X172968095Y-95262380D02*
X172491904Y-95262380D01*
X172444285Y-95738571D01*
X172491904Y-95690952D01*
X172587142Y-95643333D01*
X172825238Y-95643333D01*
X172920476Y-95690952D01*
X172968095Y-95738571D01*
X173015714Y-95833809D01*
X173015714Y-96071904D01*
X172968095Y-96167142D01*
X172920476Y-96214761D01*
X172825238Y-96262380D01*
X172587142Y-96262380D01*
X172491904Y-96214761D01*
X172444285Y-96167142D01*
X172539523Y-93722380D02*
X171968095Y-93722380D01*
X172253809Y-93722380D02*
X172253809Y-92722380D01*
X172158571Y-92865238D01*
X172063333Y-92960476D01*
X171968095Y-93008095D01*
X173110952Y-93150952D02*
X173015714Y-93103333D01*
X172968095Y-93055714D01*
X172920476Y-92960476D01*
X172920476Y-92912857D01*
X172968095Y-92817619D01*
X173015714Y-92770000D01*
X173110952Y-92722380D01*
X173301428Y-92722380D01*
X173396666Y-92770000D01*
X173444285Y-92817619D01*
X173491904Y-92912857D01*
X173491904Y-92960476D01*
X173444285Y-93055714D01*
X173396666Y-93103333D01*
X173301428Y-93150952D01*
X173110952Y-93150952D01*
X173015714Y-93198571D01*
X172968095Y-93246190D01*
X172920476Y-93341428D01*
X172920476Y-93531904D01*
X172968095Y-93627142D01*
X173015714Y-93674761D01*
X173110952Y-93722380D01*
X173301428Y-93722380D01*
X173396666Y-93674761D01*
X173444285Y-93627142D01*
X173491904Y-93531904D01*
X173491904Y-93341428D01*
X173444285Y-93246190D01*
X173396666Y-93198571D01*
X173301428Y-93150952D01*
X171968095Y-90277619D02*
X172015714Y-90230000D01*
X172110952Y-90182380D01*
X172349047Y-90182380D01*
X172444285Y-90230000D01*
X172491904Y-90277619D01*
X172539523Y-90372857D01*
X172539523Y-90468095D01*
X172491904Y-90610952D01*
X171920476Y-91182380D01*
X172539523Y-91182380D01*
X172872857Y-90182380D02*
X173491904Y-90182380D01*
X173158571Y-90563333D01*
X173301428Y-90563333D01*
X173396666Y-90610952D01*
X173444285Y-90658571D01*
X173491904Y-90753809D01*
X173491904Y-90991904D01*
X173444285Y-91087142D01*
X173396666Y-91134761D01*
X173301428Y-91182380D01*
X173015714Y-91182380D01*
X172920476Y-91134761D01*
X172872857Y-91087142D01*
X172539523Y-88642380D02*
X171968095Y-88642380D01*
X172253809Y-88642380D02*
X172253809Y-87642380D01*
X172158571Y-87785238D01*
X172063333Y-87880476D01*
X171968095Y-87928095D01*
X173015714Y-88642380D02*
X173206190Y-88642380D01*
X173301428Y-88594761D01*
X173349047Y-88547142D01*
X173444285Y-88404285D01*
X173491904Y-88213809D01*
X173491904Y-87832857D01*
X173444285Y-87737619D01*
X173396666Y-87690000D01*
X173301428Y-87642380D01*
X173110952Y-87642380D01*
X173015714Y-87690000D01*
X172968095Y-87737619D01*
X172920476Y-87832857D01*
X172920476Y-88070952D01*
X172968095Y-88166190D01*
X173015714Y-88213809D01*
X173110952Y-88261428D01*
X173301428Y-88261428D01*
X173396666Y-88213809D01*
X173444285Y-88166190D01*
X173491904Y-88070952D01*
X171968095Y-85197619D02*
X172015714Y-85150000D01*
X172110952Y-85102380D01*
X172349047Y-85102380D01*
X172444285Y-85150000D01*
X172491904Y-85197619D01*
X172539523Y-85292857D01*
X172539523Y-85388095D01*
X172491904Y-85530952D01*
X171920476Y-86102380D01*
X172539523Y-86102380D01*
X172920476Y-85197619D02*
X172968095Y-85150000D01*
X173063333Y-85102380D01*
X173301428Y-85102380D01*
X173396666Y-85150000D01*
X173444285Y-85197619D01*
X173491904Y-85292857D01*
X173491904Y-85388095D01*
X173444285Y-85530952D01*
X172872857Y-86102380D01*
X173491904Y-86102380D01*
X172539523Y-83562380D02*
X171968095Y-83562380D01*
X172253809Y-83562380D02*
X172253809Y-82562380D01*
X172158571Y-82705238D01*
X172063333Y-82800476D01*
X171968095Y-82848095D01*
X173491904Y-83562380D02*
X172920476Y-83562380D01*
X173206190Y-83562380D02*
X173206190Y-82562380D01*
X173110952Y-82705238D01*
X173015714Y-82800476D01*
X172920476Y-82848095D01*
X172134761Y-80927142D02*
X172087142Y-80974761D01*
X171944285Y-81022380D01*
X171849047Y-81022380D01*
X171706190Y-80974761D01*
X171610952Y-80879523D01*
X171563333Y-80784285D01*
X171515714Y-80593809D01*
X171515714Y-80450952D01*
X171563333Y-80260476D01*
X171610952Y-80165238D01*
X171706190Y-80070000D01*
X171849047Y-80022380D01*
X171944285Y-80022380D01*
X172087142Y-80070000D01*
X172134761Y-80117619D01*
X173039523Y-81022380D02*
X172563333Y-81022380D01*
X172563333Y-80022380D01*
X173372857Y-81022380D02*
X173372857Y-80022380D01*
X173944285Y-81022380D02*
X173515714Y-80450952D01*
X173944285Y-80022380D02*
X173372857Y-80593809D01*
X171991904Y-78482380D02*
X171991904Y-77482380D01*
X172230000Y-77482380D01*
X172372857Y-77530000D01*
X172468095Y-77625238D01*
X172515714Y-77720476D01*
X172563333Y-77910952D01*
X172563333Y-78053809D01*
X172515714Y-78244285D01*
X172468095Y-78339523D01*
X172372857Y-78434761D01*
X172230000Y-78482380D01*
X171991904Y-78482380D01*
X172896666Y-77482380D02*
X173515714Y-77482380D01*
X173182380Y-77863333D01*
X173325238Y-77863333D01*
X173420476Y-77910952D01*
X173468095Y-77958571D01*
X173515714Y-78053809D01*
X173515714Y-78291904D01*
X173468095Y-78387142D01*
X173420476Y-78434761D01*
X173325238Y-78482380D01*
X173039523Y-78482380D01*
X172944285Y-78434761D01*
X172896666Y-78387142D01*
X171991904Y-75942380D02*
X171991904Y-74942380D01*
X172230000Y-74942380D01*
X172372857Y-74990000D01*
X172468095Y-75085238D01*
X172515714Y-75180476D01*
X172563333Y-75370952D01*
X172563333Y-75513809D01*
X172515714Y-75704285D01*
X172468095Y-75799523D01*
X172372857Y-75894761D01*
X172230000Y-75942380D01*
X171991904Y-75942380D01*
X173515714Y-75942380D02*
X172944285Y-75942380D01*
X173230000Y-75942380D02*
X173230000Y-74942380D01*
X173134761Y-75085238D01*
X173039523Y-75180476D01*
X172944285Y-75228095D01*
X144599523Y-123202380D02*
X144123333Y-123202380D01*
X144075714Y-123678571D01*
X144123333Y-123630952D01*
X144218571Y-123583333D01*
X144456666Y-123583333D01*
X144551904Y-123630952D01*
X144599523Y-123678571D01*
X144647142Y-123773809D01*
X144647142Y-124011904D01*
X144599523Y-124107142D01*
X144551904Y-124154761D01*
X144456666Y-124202380D01*
X144218571Y-124202380D01*
X144123333Y-124154761D01*
X144075714Y-124107142D01*
X144932857Y-123202380D02*
X145266190Y-124202380D01*
X145599523Y-123202380D01*
X144028095Y-120710000D02*
X143932857Y-120662380D01*
X143790000Y-120662380D01*
X143647142Y-120710000D01*
X143551904Y-120805238D01*
X143504285Y-120900476D01*
X143456666Y-121090952D01*
X143456666Y-121233809D01*
X143504285Y-121424285D01*
X143551904Y-121519523D01*
X143647142Y-121614761D01*
X143790000Y-121662380D01*
X143885238Y-121662380D01*
X144028095Y-121614761D01*
X144075714Y-121567142D01*
X144075714Y-121233809D01*
X143885238Y-121233809D01*
X144504285Y-121662380D02*
X144504285Y-120662380D01*
X145075714Y-121662380D01*
X145075714Y-120662380D01*
X145551904Y-121662380D02*
X145551904Y-120662380D01*
X145790000Y-120662380D01*
X145932857Y-120710000D01*
X146028095Y-120805238D01*
X146075714Y-120900476D01*
X146123333Y-121090952D01*
X146123333Y-121233809D01*
X146075714Y-121424285D01*
X146028095Y-121519523D01*
X145932857Y-121614761D01*
X145790000Y-121662380D01*
X145551904Y-121662380D01*
X143551904Y-118122380D02*
X144170952Y-118122380D01*
X143837619Y-118503333D01*
X143980476Y-118503333D01*
X144075714Y-118550952D01*
X144123333Y-118598571D01*
X144170952Y-118693809D01*
X144170952Y-118931904D01*
X144123333Y-119027142D01*
X144075714Y-119074761D01*
X143980476Y-119122380D01*
X143694761Y-119122380D01*
X143599523Y-119074761D01*
X143551904Y-119027142D01*
X144456666Y-118122380D02*
X144790000Y-119122380D01*
X145123333Y-118122380D01*
X145361428Y-118122380D02*
X145980476Y-118122380D01*
X145647142Y-118503333D01*
X145790000Y-118503333D01*
X145885238Y-118550952D01*
X145932857Y-118598571D01*
X145980476Y-118693809D01*
X145980476Y-118931904D01*
X145932857Y-119027142D01*
X145885238Y-119074761D01*
X145790000Y-119122380D01*
X145504285Y-119122380D01*
X145409047Y-119074761D01*
X145361428Y-119027142D01*
X144742380Y-115582380D02*
X144837619Y-115582380D01*
X144932857Y-115630000D01*
X144980476Y-115677619D01*
X145028095Y-115772857D01*
X145075714Y-115963333D01*
X145075714Y-116201428D01*
X145028095Y-116391904D01*
X144980476Y-116487142D01*
X144932857Y-116534761D01*
X144837619Y-116582380D01*
X144742380Y-116582380D01*
X144647142Y-116534761D01*
X144599523Y-116487142D01*
X144551904Y-116391904D01*
X144504285Y-116201428D01*
X144504285Y-115963333D01*
X144551904Y-115772857D01*
X144599523Y-115677619D01*
X144647142Y-115630000D01*
X144742380Y-115582380D01*
X144980476Y-113375714D02*
X144980476Y-114042380D01*
X144742380Y-112994761D02*
X144504285Y-113709047D01*
X145123333Y-113709047D01*
X144504285Y-110597619D02*
X144551904Y-110550000D01*
X144647142Y-110502380D01*
X144885238Y-110502380D01*
X144980476Y-110550000D01*
X145028095Y-110597619D01*
X145075714Y-110692857D01*
X145075714Y-110788095D01*
X145028095Y-110930952D01*
X144456666Y-111502380D01*
X145075714Y-111502380D01*
X147139523Y-108962380D02*
X146568095Y-108962380D01*
X146853809Y-108962380D02*
X146853809Y-107962380D01*
X146758571Y-108105238D01*
X146663333Y-108200476D01*
X146568095Y-108248095D01*
X148044285Y-107962380D02*
X147568095Y-107962380D01*
X147520476Y-108438571D01*
X147568095Y-108390952D01*
X147663333Y-108343333D01*
X147901428Y-108343333D01*
X147996666Y-108390952D01*
X148044285Y-108438571D01*
X148091904Y-108533809D01*
X148091904Y-108771904D01*
X148044285Y-108867142D01*
X147996666Y-108914761D01*
X147901428Y-108962380D01*
X147663333Y-108962380D01*
X147568095Y-108914761D01*
X147520476Y-108867142D01*
X147139523Y-106422380D02*
X146568095Y-106422380D01*
X146853809Y-106422380D02*
X146853809Y-105422380D01*
X146758571Y-105565238D01*
X146663333Y-105660476D01*
X146568095Y-105708095D01*
X147472857Y-105422380D02*
X148091904Y-105422380D01*
X147758571Y-105803333D01*
X147901428Y-105803333D01*
X147996666Y-105850952D01*
X148044285Y-105898571D01*
X148091904Y-105993809D01*
X148091904Y-106231904D01*
X148044285Y-106327142D01*
X147996666Y-106374761D01*
X147901428Y-106422380D01*
X147615714Y-106422380D01*
X147520476Y-106374761D01*
X147472857Y-106327142D01*
X147139523Y-103882380D02*
X146568095Y-103882380D01*
X146853809Y-103882380D02*
X146853809Y-102882380D01*
X146758571Y-103025238D01*
X146663333Y-103120476D01*
X146568095Y-103168095D01*
X147520476Y-102977619D02*
X147568095Y-102930000D01*
X147663333Y-102882380D01*
X147901428Y-102882380D01*
X147996666Y-102930000D01*
X148044285Y-102977619D01*
X148091904Y-103072857D01*
X148091904Y-103168095D01*
X148044285Y-103310952D01*
X147472857Y-103882380D01*
X148091904Y-103882380D01*
X147139523Y-101342380D02*
X146568095Y-101342380D01*
X146853809Y-101342380D02*
X146853809Y-100342380D01*
X146758571Y-100485238D01*
X146663333Y-100580476D01*
X146568095Y-100628095D01*
X147996666Y-100675714D02*
X147996666Y-101342380D01*
X147758571Y-100294761D02*
X147520476Y-101009047D01*
X148139523Y-101009047D01*
X146568095Y-97897619D02*
X146615714Y-97850000D01*
X146710952Y-97802380D01*
X146949047Y-97802380D01*
X147044285Y-97850000D01*
X147091904Y-97897619D01*
X147139523Y-97992857D01*
X147139523Y-98088095D01*
X147091904Y-98230952D01*
X146520476Y-98802380D01*
X147139523Y-98802380D01*
X147472857Y-97802380D02*
X148139523Y-97802380D01*
X147710952Y-98802380D01*
X146520476Y-95262380D02*
X147139523Y-95262380D01*
X146806190Y-95643333D01*
X146949047Y-95643333D01*
X147044285Y-95690952D01*
X147091904Y-95738571D01*
X147139523Y-95833809D01*
X147139523Y-96071904D01*
X147091904Y-96167142D01*
X147044285Y-96214761D01*
X146949047Y-96262380D01*
X146663333Y-96262380D01*
X146568095Y-96214761D01*
X146520476Y-96167142D01*
X147472857Y-95262380D02*
X148091904Y-95262380D01*
X147758571Y-95643333D01*
X147901428Y-95643333D01*
X147996666Y-95690952D01*
X148044285Y-95738571D01*
X148091904Y-95833809D01*
X148091904Y-96071904D01*
X148044285Y-96167142D01*
X147996666Y-96214761D01*
X147901428Y-96262380D01*
X147615714Y-96262380D01*
X147520476Y-96214761D01*
X147472857Y-96167142D01*
X146520476Y-92722380D02*
X147139523Y-92722380D01*
X146806190Y-93103333D01*
X146949047Y-93103333D01*
X147044285Y-93150952D01*
X147091904Y-93198571D01*
X147139523Y-93293809D01*
X147139523Y-93531904D01*
X147091904Y-93627142D01*
X147044285Y-93674761D01*
X146949047Y-93722380D01*
X146663333Y-93722380D01*
X146568095Y-93674761D01*
X146520476Y-93627142D01*
X147520476Y-92817619D02*
X147568095Y-92770000D01*
X147663333Y-92722380D01*
X147901428Y-92722380D01*
X147996666Y-92770000D01*
X148044285Y-92817619D01*
X148091904Y-92912857D01*
X148091904Y-93008095D01*
X148044285Y-93150952D01*
X147472857Y-93722380D01*
X148091904Y-93722380D01*
X146568095Y-90277619D02*
X146615714Y-90230000D01*
X146710952Y-90182380D01*
X146949047Y-90182380D01*
X147044285Y-90230000D01*
X147091904Y-90277619D01*
X147139523Y-90372857D01*
X147139523Y-90468095D01*
X147091904Y-90610952D01*
X146520476Y-91182380D01*
X147139523Y-91182380D01*
X147996666Y-90182380D02*
X147806190Y-90182380D01*
X147710952Y-90230000D01*
X147663333Y-90277619D01*
X147568095Y-90420476D01*
X147520476Y-90610952D01*
X147520476Y-90991904D01*
X147568095Y-91087142D01*
X147615714Y-91134761D01*
X147710952Y-91182380D01*
X147901428Y-91182380D01*
X147996666Y-91134761D01*
X148044285Y-91087142D01*
X148091904Y-90991904D01*
X148091904Y-90753809D01*
X148044285Y-90658571D01*
X147996666Y-90610952D01*
X147901428Y-90563333D01*
X147710952Y-90563333D01*
X147615714Y-90610952D01*
X147568095Y-90658571D01*
X147520476Y-90753809D01*
X146568095Y-87737619D02*
X146615714Y-87690000D01*
X146710952Y-87642380D01*
X146949047Y-87642380D01*
X147044285Y-87690000D01*
X147091904Y-87737619D01*
X147139523Y-87832857D01*
X147139523Y-87928095D01*
X147091904Y-88070952D01*
X146520476Y-88642380D01*
X147139523Y-88642380D01*
X148044285Y-87642380D02*
X147568095Y-87642380D01*
X147520476Y-88118571D01*
X147568095Y-88070952D01*
X147663333Y-88023333D01*
X147901428Y-88023333D01*
X147996666Y-88070952D01*
X148044285Y-88118571D01*
X148091904Y-88213809D01*
X148091904Y-88451904D01*
X148044285Y-88547142D01*
X147996666Y-88594761D01*
X147901428Y-88642380D01*
X147663333Y-88642380D01*
X147568095Y-88594761D01*
X147520476Y-88547142D01*
X143932857Y-85102380D02*
X144266190Y-86102380D01*
X144599523Y-85102380D01*
X144932857Y-86102380D02*
X144932857Y-85102380D01*
X145504285Y-86102380D01*
X145504285Y-85102380D01*
X143956666Y-82562380D02*
X144290000Y-83562380D01*
X144623333Y-82562380D01*
X144956666Y-83562380D02*
X144956666Y-82562380D01*
X145337619Y-82562380D01*
X145432857Y-82610000D01*
X145480476Y-82657619D01*
X145528095Y-82752857D01*
X145528095Y-82895714D01*
X145480476Y-82990952D01*
X145432857Y-83038571D01*
X145337619Y-83086190D01*
X144956666Y-83086190D01*
X144051904Y-81022380D02*
X144051904Y-80022380D01*
X144290000Y-80022380D01*
X144432857Y-80070000D01*
X144528095Y-80165238D01*
X144575714Y-80260476D01*
X144623333Y-80450952D01*
X144623333Y-80593809D01*
X144575714Y-80784285D01*
X144528095Y-80879523D01*
X144432857Y-80974761D01*
X144290000Y-81022380D01*
X144051904Y-81022380D01*
X145004285Y-80117619D02*
X145051904Y-80070000D01*
X145147142Y-80022380D01*
X145385238Y-80022380D01*
X145480476Y-80070000D01*
X145528095Y-80117619D01*
X145575714Y-80212857D01*
X145575714Y-80308095D01*
X145528095Y-80450952D01*
X144956666Y-81022380D01*
X145575714Y-81022380D01*
X144051904Y-78482380D02*
X144051904Y-77482380D01*
X144290000Y-77482380D01*
X144432857Y-77530000D01*
X144528095Y-77625238D01*
X144575714Y-77720476D01*
X144623333Y-77910952D01*
X144623333Y-78053809D01*
X144575714Y-78244285D01*
X144528095Y-78339523D01*
X144432857Y-78434761D01*
X144290000Y-78482380D01*
X144051904Y-78482380D01*
X145242380Y-77482380D02*
X145337619Y-77482380D01*
X145432857Y-77530000D01*
X145480476Y-77577619D01*
X145528095Y-77672857D01*
X145575714Y-77863333D01*
X145575714Y-78101428D01*
X145528095Y-78291904D01*
X145480476Y-78387142D01*
X145432857Y-78434761D01*
X145337619Y-78482380D01*
X145242380Y-78482380D01*
X145147142Y-78434761D01*
X145099523Y-78387142D01*
X145051904Y-78291904D01*
X145004285Y-78101428D01*
X145004285Y-77863333D01*
X145051904Y-77672857D01*
X145099523Y-77577619D01*
X145147142Y-77530000D01*
X145242380Y-77482380D01*
X144623333Y-75847142D02*
X144575714Y-75894761D01*
X144432857Y-75942380D01*
X144337619Y-75942380D01*
X144194761Y-75894761D01*
X144099523Y-75799523D01*
X144051904Y-75704285D01*
X144004285Y-75513809D01*
X144004285Y-75370952D01*
X144051904Y-75180476D01*
X144099523Y-75085238D01*
X144194761Y-74990000D01*
X144337619Y-74942380D01*
X144432857Y-74942380D01*
X144575714Y-74990000D01*
X144623333Y-75037619D01*
X145004285Y-75894761D02*
X145147142Y-75942380D01*
X145385238Y-75942380D01*
X145480476Y-75894761D01*
X145528095Y-75847142D01*
X145575714Y-75751904D01*
X145575714Y-75656666D01*
X145528095Y-75561428D01*
X145480476Y-75513809D01*
X145385238Y-75466190D01*
X145194761Y-75418571D01*
X145099523Y-75370952D01*
X145051904Y-75323333D01*
X145004285Y-75228095D01*
X145004285Y-75132857D01*
X145051904Y-75037619D01*
X145099523Y-74990000D01*
X145194761Y-74942380D01*
X145432857Y-74942380D01*
X145575714Y-74990000D01*
X171968095Y-120710000D02*
X171872857Y-120662380D01*
X171730000Y-120662380D01*
X171587142Y-120710000D01*
X171491904Y-120805238D01*
X171444285Y-120900476D01*
X171396666Y-121090952D01*
X171396666Y-121233809D01*
X171444285Y-121424285D01*
X171491904Y-121519523D01*
X171587142Y-121614761D01*
X171730000Y-121662380D01*
X171825238Y-121662380D01*
X171968095Y-121614761D01*
X172015714Y-121567142D01*
X172015714Y-121233809D01*
X171825238Y-121233809D01*
X172444285Y-121662380D02*
X172444285Y-120662380D01*
X173015714Y-121662380D01*
X173015714Y-120662380D01*
X173491904Y-121662380D02*
X173491904Y-120662380D01*
X173730000Y-120662380D01*
X173872857Y-120710000D01*
X173968095Y-120805238D01*
X174015714Y-120900476D01*
X174063333Y-121090952D01*
X174063333Y-121233809D01*
X174015714Y-121424285D01*
X173968095Y-121519523D01*
X173872857Y-121614761D01*
X173730000Y-121662380D01*
X173491904Y-121662380D01*
X171491904Y-123202380D02*
X172110952Y-123202380D01*
X171777619Y-123583333D01*
X171920476Y-123583333D01*
X172015714Y-123630952D01*
X172063333Y-123678571D01*
X172110952Y-123773809D01*
X172110952Y-124011904D01*
X172063333Y-124107142D01*
X172015714Y-124154761D01*
X171920476Y-124202380D01*
X171634761Y-124202380D01*
X171539523Y-124154761D01*
X171491904Y-124107142D01*
X172396666Y-123202380D02*
X172730000Y-124202380D01*
X173063333Y-123202380D01*
X173301428Y-123202380D02*
X173920476Y-123202380D01*
X173587142Y-123583333D01*
X173730000Y-123583333D01*
X173825238Y-123630952D01*
X173872857Y-123678571D01*
X173920476Y-123773809D01*
X173920476Y-124011904D01*
X173872857Y-124107142D01*
X173825238Y-124154761D01*
X173730000Y-124202380D01*
X173444285Y-124202380D01*
X173349047Y-124154761D01*
X173301428Y-124107142D01*
X98726666Y-118257380D02*
X98726666Y-118971666D01*
X98679047Y-119114523D01*
X98583809Y-119209761D01*
X98440952Y-119257380D01*
X98345714Y-119257380D01*
X99107619Y-118257380D02*
X99726666Y-118257380D01*
X99393333Y-118638333D01*
X99536190Y-118638333D01*
X99631428Y-118685952D01*
X99679047Y-118733571D01*
X99726666Y-118828809D01*
X99726666Y-119066904D01*
X99679047Y-119162142D01*
X99631428Y-119209761D01*
X99536190Y-119257380D01*
X99250476Y-119257380D01*
X99155238Y-119209761D01*
X99107619Y-119162142D01*
X136398095Y-88142380D02*
X136398095Y-88951904D01*
X136445714Y-89047142D01*
X136493333Y-89094761D01*
X136588571Y-89142380D01*
X136779047Y-89142380D01*
X136874285Y-89094761D01*
X136921904Y-89047142D01*
X136969523Y-88951904D01*
X136969523Y-88142380D01*
X137398095Y-88237619D02*
X137445714Y-88190000D01*
X137540952Y-88142380D01*
X137779047Y-88142380D01*
X137874285Y-88190000D01*
X137921904Y-88237619D01*
X137969523Y-88332857D01*
X137969523Y-88428095D01*
X137921904Y-88570952D01*
X137350476Y-89142380D01*
X137969523Y-89142380D01*
X131318095Y-95310000D02*
X131222857Y-95262380D01*
X131080000Y-95262380D01*
X130937142Y-95310000D01*
X130841904Y-95405238D01*
X130794285Y-95500476D01*
X130746666Y-95690952D01*
X130746666Y-95833809D01*
X130794285Y-96024285D01*
X130841904Y-96119523D01*
X130937142Y-96214761D01*
X131080000Y-96262380D01*
X131175238Y-96262380D01*
X131318095Y-96214761D01*
X131365714Y-96167142D01*
X131365714Y-95833809D01*
X131175238Y-95833809D01*
X131794285Y-96262380D02*
X131794285Y-95262380D01*
X132365714Y-96262380D01*
X132365714Y-95262380D01*
X132841904Y-96262380D02*
X132841904Y-95262380D01*
X133080000Y-95262380D01*
X133222857Y-95310000D01*
X133318095Y-95405238D01*
X133365714Y-95500476D01*
X133413333Y-95690952D01*
X133413333Y-95833809D01*
X133365714Y-96024285D01*
X133318095Y-96119523D01*
X133222857Y-96214761D01*
X133080000Y-96262380D01*
X132841904Y-96262380D01*
X137795238Y-106422380D02*
X137795238Y-105422380D01*
X138176190Y-105422380D01*
X138271428Y-105470000D01*
X138319047Y-105517619D01*
X138366666Y-105612857D01*
X138366666Y-105755714D01*
X138319047Y-105850952D01*
X138271428Y-105898571D01*
X138176190Y-105946190D01*
X137795238Y-105946190D01*
X138700000Y-105422380D02*
X138938095Y-106422380D01*
X139128571Y-105708095D01*
X139319047Y-106422380D01*
X139557142Y-105422380D01*
X139938095Y-106422380D02*
X139938095Y-105422380D01*
X140271428Y-106136666D01*
X140604761Y-105422380D01*
X140604761Y-106422380D01*
X141414285Y-105898571D02*
X141557142Y-105946190D01*
X141604761Y-105993809D01*
X141652380Y-106089047D01*
X141652380Y-106231904D01*
X141604761Y-106327142D01*
X141557142Y-106374761D01*
X141461904Y-106422380D01*
X141080952Y-106422380D01*
X141080952Y-105422380D01*
X141414285Y-105422380D01*
X141509523Y-105470000D01*
X141557142Y-105517619D01*
X141604761Y-105612857D01*
X141604761Y-105708095D01*
X141557142Y-105803333D01*
X141509523Y-105850952D01*
X141414285Y-105898571D01*
X141080952Y-105898571D01*
X138533333Y-103358571D02*
X138676190Y-103406190D01*
X138723809Y-103453809D01*
X138771428Y-103549047D01*
X138771428Y-103691904D01*
X138723809Y-103787142D01*
X138676190Y-103834761D01*
X138580952Y-103882380D01*
X138200000Y-103882380D01*
X138200000Y-102882380D01*
X138533333Y-102882380D01*
X138628571Y-102930000D01*
X138676190Y-102977619D01*
X138723809Y-103072857D01*
X138723809Y-103168095D01*
X138676190Y-103263333D01*
X138628571Y-103310952D01*
X138533333Y-103358571D01*
X138200000Y-103358571D01*
X139200000Y-103882380D02*
X139200000Y-102882380D01*
X139676190Y-103882380D02*
X139676190Y-102882380D01*
X140247619Y-103882380D01*
X140247619Y-102882380D01*
X140676190Y-102977619D02*
X140723809Y-102930000D01*
X140819047Y-102882380D01*
X141057142Y-102882380D01*
X141152380Y-102930000D01*
X141200000Y-102977619D01*
X141247619Y-103072857D01*
X141247619Y-103168095D01*
X141200000Y-103310952D01*
X140628571Y-103882380D01*
X141247619Y-103882380D01*
X138533333Y-100818571D02*
X138676190Y-100866190D01*
X138723809Y-100913809D01*
X138771428Y-101009047D01*
X138771428Y-101151904D01*
X138723809Y-101247142D01*
X138676190Y-101294761D01*
X138580952Y-101342380D01*
X138200000Y-101342380D01*
X138200000Y-100342380D01*
X138533333Y-100342380D01*
X138628571Y-100390000D01*
X138676190Y-100437619D01*
X138723809Y-100532857D01*
X138723809Y-100628095D01*
X138676190Y-100723333D01*
X138628571Y-100770952D01*
X138533333Y-100818571D01*
X138200000Y-100818571D01*
X139200000Y-101342380D02*
X139200000Y-100342380D01*
X139676190Y-101342380D02*
X139676190Y-100342380D01*
X140247619Y-101342380D01*
X140247619Y-100342380D01*
X141247619Y-101342380D02*
X140676190Y-101342380D01*
X140961904Y-101342380D02*
X140961904Y-100342380D01*
X140866666Y-100485238D01*
X140771428Y-100580476D01*
X140676190Y-100628095D01*
X138104761Y-98754761D02*
X138247619Y-98802380D01*
X138485714Y-98802380D01*
X138580952Y-98754761D01*
X138628571Y-98707142D01*
X138676190Y-98611904D01*
X138676190Y-98516666D01*
X138628571Y-98421428D01*
X138580952Y-98373809D01*
X138485714Y-98326190D01*
X138295238Y-98278571D01*
X138200000Y-98230952D01*
X138152380Y-98183333D01*
X138104761Y-98088095D01*
X138104761Y-97992857D01*
X138152380Y-97897619D01*
X138200000Y-97850000D01*
X138295238Y-97802380D01*
X138533333Y-97802380D01*
X138676190Y-97850000D01*
X138961904Y-97802380D02*
X139533333Y-97802380D01*
X139247619Y-98802380D02*
X139247619Y-97802380D01*
X140200000Y-98278571D02*
X140342857Y-98326190D01*
X140390476Y-98373809D01*
X140438095Y-98469047D01*
X140438095Y-98611904D01*
X140390476Y-98707142D01*
X140342857Y-98754761D01*
X140247619Y-98802380D01*
X139866666Y-98802380D01*
X139866666Y-97802380D01*
X140200000Y-97802380D01*
X140295238Y-97850000D01*
X140342857Y-97897619D01*
X140390476Y-97992857D01*
X140390476Y-98088095D01*
X140342857Y-98183333D01*
X140295238Y-98230952D01*
X140200000Y-98278571D01*
X139866666Y-98278571D01*
X141057142Y-98326190D02*
X141057142Y-98802380D01*
X140723809Y-97802380D02*
X141057142Y-98326190D01*
X141390476Y-97802380D01*
X138223809Y-95976666D02*
X138700000Y-95976666D01*
X138128571Y-96262380D02*
X138461904Y-95262380D01*
X138795238Y-96262380D01*
X139128571Y-96262380D02*
X139128571Y-95262380D01*
X139604761Y-96262380D02*
X139604761Y-95262380D01*
X140176190Y-96262380D01*
X140176190Y-95262380D01*
X141176190Y-96262380D02*
X140604761Y-96262380D01*
X140890476Y-96262380D02*
X140890476Y-95262380D01*
X140795238Y-95405238D01*
X140700000Y-95500476D01*
X140604761Y-95548095D01*
X138223809Y-93436666D02*
X138700000Y-93436666D01*
X138128571Y-93722380D02*
X138461904Y-92722380D01*
X138795238Y-93722380D01*
X139128571Y-93722380D02*
X139128571Y-92722380D01*
X139604761Y-93722380D02*
X139604761Y-92722380D01*
X140176190Y-93722380D01*
X140176190Y-92722380D01*
X140604761Y-92817619D02*
X140652380Y-92770000D01*
X140747619Y-92722380D01*
X140985714Y-92722380D01*
X141080952Y-92770000D01*
X141128571Y-92817619D01*
X141176190Y-92912857D01*
X141176190Y-93008095D01*
X141128571Y-93150952D01*
X140557142Y-93722380D01*
X141176190Y-93722380D01*
X137866666Y-91182380D02*
X137866666Y-90182380D01*
X138247619Y-90182380D01*
X138342857Y-90230000D01*
X138390476Y-90277619D01*
X138438095Y-90372857D01*
X138438095Y-90515714D01*
X138390476Y-90610952D01*
X138342857Y-90658571D01*
X138247619Y-90706190D01*
X137866666Y-90706190D01*
X138771428Y-90182380D02*
X139009523Y-91182380D01*
X139200000Y-90468095D01*
X139390476Y-91182380D01*
X139628571Y-90182380D01*
X140009523Y-91182380D02*
X140009523Y-90182380D01*
X140342857Y-90896666D01*
X140676190Y-90182380D01*
X140676190Y-91182380D01*
X141104761Y-90896666D02*
X141580952Y-90896666D01*
X141009523Y-91182380D02*
X141342857Y-90182380D01*
X141676190Y-91182380D01*
X131318095Y-108010000D02*
X131222857Y-107962380D01*
X131080000Y-107962380D01*
X130937142Y-108010000D01*
X130841904Y-108105238D01*
X130794285Y-108200476D01*
X130746666Y-108390952D01*
X130746666Y-108533809D01*
X130794285Y-108724285D01*
X130841904Y-108819523D01*
X130937142Y-108914761D01*
X131080000Y-108962380D01*
X131175238Y-108962380D01*
X131318095Y-108914761D01*
X131365714Y-108867142D01*
X131365714Y-108533809D01*
X131175238Y-108533809D01*
X131794285Y-108962380D02*
X131794285Y-107962380D01*
X132365714Y-108962380D01*
X132365714Y-107962380D01*
X132841904Y-108962380D02*
X132841904Y-107962380D01*
X133080000Y-107962380D01*
X133222857Y-108010000D01*
X133318095Y-108105238D01*
X133365714Y-108200476D01*
X133413333Y-108390952D01*
X133413333Y-108533809D01*
X133365714Y-108724285D01*
X133318095Y-108819523D01*
X133222857Y-108914761D01*
X133080000Y-108962380D01*
X132841904Y-108962380D01*
X131151428Y-105898571D02*
X131294285Y-105946190D01*
X131341904Y-105993809D01*
X131389523Y-106089047D01*
X131389523Y-106231904D01*
X131341904Y-106327142D01*
X131294285Y-106374761D01*
X131199047Y-106422380D01*
X130818095Y-106422380D01*
X130818095Y-105422380D01*
X131151428Y-105422380D01*
X131246666Y-105470000D01*
X131294285Y-105517619D01*
X131341904Y-105612857D01*
X131341904Y-105708095D01*
X131294285Y-105803333D01*
X131246666Y-105850952D01*
X131151428Y-105898571D01*
X130818095Y-105898571D01*
X132008571Y-105422380D02*
X132199047Y-105422380D01*
X132294285Y-105470000D01*
X132389523Y-105565238D01*
X132437142Y-105755714D01*
X132437142Y-106089047D01*
X132389523Y-106279523D01*
X132294285Y-106374761D01*
X132199047Y-106422380D01*
X132008571Y-106422380D01*
X131913333Y-106374761D01*
X131818095Y-106279523D01*
X131770476Y-106089047D01*
X131770476Y-105755714D01*
X131818095Y-105565238D01*
X131913333Y-105470000D01*
X132008571Y-105422380D01*
X133389523Y-106422380D02*
X132818095Y-106422380D01*
X133103809Y-106422380D02*
X133103809Y-105422380D01*
X133008571Y-105565238D01*
X132913333Y-105660476D01*
X132818095Y-105708095D01*
X131151428Y-103358571D02*
X131294285Y-103406190D01*
X131341904Y-103453809D01*
X131389523Y-103549047D01*
X131389523Y-103691904D01*
X131341904Y-103787142D01*
X131294285Y-103834761D01*
X131199047Y-103882380D01*
X130818095Y-103882380D01*
X130818095Y-102882380D01*
X131151428Y-102882380D01*
X131246666Y-102930000D01*
X131294285Y-102977619D01*
X131341904Y-103072857D01*
X131341904Y-103168095D01*
X131294285Y-103263333D01*
X131246666Y-103310952D01*
X131151428Y-103358571D01*
X130818095Y-103358571D01*
X132008571Y-102882380D02*
X132199047Y-102882380D01*
X132294285Y-102930000D01*
X132389523Y-103025238D01*
X132437142Y-103215714D01*
X132437142Y-103549047D01*
X132389523Y-103739523D01*
X132294285Y-103834761D01*
X132199047Y-103882380D01*
X132008571Y-103882380D01*
X131913333Y-103834761D01*
X131818095Y-103739523D01*
X131770476Y-103549047D01*
X131770476Y-103215714D01*
X131818095Y-103025238D01*
X131913333Y-102930000D01*
X132008571Y-102882380D01*
X132818095Y-102977619D02*
X132865714Y-102930000D01*
X132960952Y-102882380D01*
X133199047Y-102882380D01*
X133294285Y-102930000D01*
X133341904Y-102977619D01*
X133389523Y-103072857D01*
X133389523Y-103168095D01*
X133341904Y-103310952D01*
X132770476Y-103882380D01*
X133389523Y-103882380D01*
X130841904Y-101056666D02*
X131318095Y-101056666D01*
X130746666Y-101342380D02*
X131080000Y-100342380D01*
X131413333Y-101342380D01*
X131937142Y-100342380D02*
X132127619Y-100342380D01*
X132222857Y-100390000D01*
X132318095Y-100485238D01*
X132365714Y-100675714D01*
X132365714Y-101009047D01*
X132318095Y-101199523D01*
X132222857Y-101294761D01*
X132127619Y-101342380D01*
X131937142Y-101342380D01*
X131841904Y-101294761D01*
X131746666Y-101199523D01*
X131699047Y-101009047D01*
X131699047Y-100675714D01*
X131746666Y-100485238D01*
X131841904Y-100390000D01*
X131937142Y-100342380D01*
X132746666Y-100437619D02*
X132794285Y-100390000D01*
X132889523Y-100342380D01*
X133127619Y-100342380D01*
X133222857Y-100390000D01*
X133270476Y-100437619D01*
X133318095Y-100532857D01*
X133318095Y-100628095D01*
X133270476Y-100770952D01*
X132699047Y-101342380D01*
X133318095Y-101342380D01*
X130841904Y-98516666D02*
X131318095Y-98516666D01*
X130746666Y-98802380D02*
X131080000Y-97802380D01*
X131413333Y-98802380D01*
X131937142Y-97802380D02*
X132127619Y-97802380D01*
X132222857Y-97850000D01*
X132318095Y-97945238D01*
X132365714Y-98135714D01*
X132365714Y-98469047D01*
X132318095Y-98659523D01*
X132222857Y-98754761D01*
X132127619Y-98802380D01*
X131937142Y-98802380D01*
X131841904Y-98754761D01*
X131746666Y-98659523D01*
X131699047Y-98469047D01*
X131699047Y-98135714D01*
X131746666Y-97945238D01*
X131841904Y-97850000D01*
X131937142Y-97802380D01*
X133318095Y-98802380D02*
X132746666Y-98802380D01*
X133032380Y-98802380D02*
X133032380Y-97802380D01*
X132937142Y-97945238D01*
X132841904Y-98040476D01*
X132746666Y-98088095D01*
X131318095Y-95310000D02*
X131222857Y-95262380D01*
X131080000Y-95262380D01*
X130937142Y-95310000D01*
X130841904Y-95405238D01*
X130794285Y-95500476D01*
X130746666Y-95690952D01*
X130746666Y-95833809D01*
X130794285Y-96024285D01*
X130841904Y-96119523D01*
X130937142Y-96214761D01*
X131080000Y-96262380D01*
X131175238Y-96262380D01*
X131318095Y-96214761D01*
X131365714Y-96167142D01*
X131365714Y-95833809D01*
X131175238Y-95833809D01*
X131794285Y-96262380D02*
X131794285Y-95262380D01*
X132365714Y-96262380D01*
X132365714Y-95262380D01*
X132841904Y-96262380D02*
X132841904Y-95262380D01*
X133080000Y-95262380D01*
X133222857Y-95310000D01*
X133318095Y-95405238D01*
X133365714Y-95500476D01*
X133413333Y-95690952D01*
X133413333Y-95833809D01*
X133365714Y-96024285D01*
X133318095Y-96119523D01*
X133222857Y-96214761D01*
X133080000Y-96262380D01*
X132841904Y-96262380D01*
X130746666Y-92722380D02*
X131080000Y-93722380D01*
X131413333Y-92722380D01*
X132318095Y-93627142D02*
X132270476Y-93674761D01*
X132127619Y-93722380D01*
X132032380Y-93722380D01*
X131889523Y-93674761D01*
X131794285Y-93579523D01*
X131746666Y-93484285D01*
X131699047Y-93293809D01*
X131699047Y-93150952D01*
X131746666Y-92960476D01*
X131794285Y-92865238D01*
X131889523Y-92770000D01*
X132032380Y-92722380D01*
X132127619Y-92722380D01*
X132270476Y-92770000D01*
X132318095Y-92817619D01*
X133318095Y-93627142D02*
X133270476Y-93674761D01*
X133127619Y-93722380D01*
X133032380Y-93722380D01*
X132889523Y-93674761D01*
X132794285Y-93579523D01*
X132746666Y-93484285D01*
X132699047Y-93293809D01*
X132699047Y-93150952D01*
X132746666Y-92960476D01*
X132794285Y-92865238D01*
X132889523Y-92770000D01*
X133032380Y-92722380D01*
X133127619Y-92722380D01*
X133270476Y-92770000D01*
X133318095Y-92817619D01*
X131175238Y-90182380D02*
X131508571Y-91182380D01*
X131841904Y-90182380D01*
X132175238Y-91182380D02*
X132175238Y-90182380D01*
X132508571Y-90896666D01*
X132841904Y-90182380D01*
X132841904Y-91182380D01*
X102292380Y-116119523D02*
X101292380Y-116119523D01*
X102006666Y-115786190D01*
X101292380Y-115452857D01*
X102292380Y-115452857D01*
X102292380Y-114452857D02*
X102292380Y-115024285D01*
X102292380Y-114738571D02*
X101292380Y-114738571D01*
X101435238Y-114833809D01*
X101530476Y-114929047D01*
X101578095Y-115024285D01*
X112971428Y-105530952D02*
X112971428Y-104769047D01*
X113352380Y-105150000D02*
X112590476Y-105150000D01*
X120591428Y-105530952D02*
X120591428Y-104769047D01*
X102292380Y-84739523D02*
X101292380Y-84739523D01*
X102006666Y-84406190D01*
X101292380Y-84072857D01*
X102292380Y-84072857D01*
X101387619Y-83644285D02*
X101340000Y-83596666D01*
X101292380Y-83501428D01*
X101292380Y-83263333D01*
X101340000Y-83168095D01*
X101387619Y-83120476D01*
X101482857Y-83072857D01*
X101578095Y-83072857D01*
X101720952Y-83120476D01*
X102292380Y-83691904D01*
X102292380Y-83072857D01*
X120591428Y-93790952D02*
X120591428Y-93029047D01*
X120972380Y-93410000D02*
X120210476Y-93410000D01*
X112971428Y-93790952D02*
X112971428Y-93029047D01*
X104642857Y-95878571D02*
X104785714Y-95926190D01*
X104833333Y-95973809D01*
X104880952Y-96069047D01*
X104880952Y-96211904D01*
X104833333Y-96307142D01*
X104785714Y-96354761D01*
X104690476Y-96402380D01*
X104309523Y-96402380D01*
X104309523Y-95402380D01*
X104642857Y-95402380D01*
X104738095Y-95450000D01*
X104785714Y-95497619D01*
X104833333Y-95592857D01*
X104833333Y-95688095D01*
X104785714Y-95783333D01*
X104738095Y-95830952D01*
X104642857Y-95878571D01*
X104309523Y-95878571D01*
X105738095Y-96402380D02*
X105738095Y-95878571D01*
X105690476Y-95783333D01*
X105595238Y-95735714D01*
X105404761Y-95735714D01*
X105309523Y-95783333D01*
X105738095Y-96354761D02*
X105642857Y-96402380D01*
X105404761Y-96402380D01*
X105309523Y-96354761D01*
X105261904Y-96259523D01*
X105261904Y-96164285D01*
X105309523Y-96069047D01*
X105404761Y-96021428D01*
X105642857Y-96021428D01*
X105738095Y-95973809D01*
X106071428Y-95735714D02*
X106452380Y-95735714D01*
X106214285Y-95402380D02*
X106214285Y-96259523D01*
X106261904Y-96354761D01*
X106357142Y-96402380D01*
X106452380Y-96402380D01*
X106642857Y-95735714D02*
X107023809Y-95735714D01*
X106785714Y-95402380D02*
X106785714Y-96259523D01*
X106833333Y-96354761D01*
X106928571Y-96402380D01*
X107023809Y-96402380D01*
X107738095Y-96354761D02*
X107642857Y-96402380D01*
X107452380Y-96402380D01*
X107357142Y-96354761D01*
X107309523Y-96259523D01*
X107309523Y-95878571D01*
X107357142Y-95783333D01*
X107452380Y-95735714D01*
X107642857Y-95735714D01*
X107738095Y-95783333D01*
X107785714Y-95878571D01*
X107785714Y-95973809D01*
X107309523Y-96069047D01*
X108214285Y-96402380D02*
X108214285Y-95735714D01*
X108214285Y-95926190D02*
X108261904Y-95830952D01*
X108309523Y-95783333D01*
X108404761Y-95735714D01*
X108500000Y-95735714D01*
X108833333Y-96402380D02*
X108833333Y-95735714D01*
X108833333Y-95402380D02*
X108785714Y-95450000D01*
X108833333Y-95497619D01*
X108880952Y-95450000D01*
X108833333Y-95402380D01*
X108833333Y-95497619D01*
X109690476Y-96354761D02*
X109595238Y-96402380D01*
X109404761Y-96402380D01*
X109309523Y-96354761D01*
X109261904Y-96259523D01*
X109261904Y-95878571D01*
X109309523Y-95783333D01*
X109404761Y-95735714D01*
X109595238Y-95735714D01*
X109690476Y-95783333D01*
X109738095Y-95878571D01*
X109738095Y-95973809D01*
X109261904Y-96069047D01*
X105809523Y-107402380D02*
X106142857Y-108402380D01*
X106476190Y-107402380D01*
X107238095Y-108354761D02*
X107142857Y-108402380D01*
X106952380Y-108402380D01*
X106857142Y-108354761D01*
X106809523Y-108307142D01*
X106761904Y-108211904D01*
X106761904Y-107926190D01*
X106809523Y-107830952D01*
X106857142Y-107783333D01*
X106952380Y-107735714D01*
X107142857Y-107735714D01*
X107238095Y-107783333D01*
X108095238Y-108354761D02*
X108000000Y-108402380D01*
X107809523Y-108402380D01*
X107714285Y-108354761D01*
X107666666Y-108307142D01*
X107619047Y-108211904D01*
X107619047Y-107926190D01*
X107666666Y-107830952D01*
X107714285Y-107783333D01*
X107809523Y-107735714D01*
X108000000Y-107735714D01*
X108095238Y-107783333D01*
X106238095Y-101450000D02*
X106142857Y-101402380D01*
X106000000Y-101402380D01*
X105857142Y-101450000D01*
X105761904Y-101545238D01*
X105714285Y-101640476D01*
X105666666Y-101830952D01*
X105666666Y-101973809D01*
X105714285Y-102164285D01*
X105761904Y-102259523D01*
X105857142Y-102354761D01*
X106000000Y-102402380D01*
X106095238Y-102402380D01*
X106238095Y-102354761D01*
X106285714Y-102307142D01*
X106285714Y-101973809D01*
X106095238Y-101973809D01*
X106714285Y-102402380D02*
X106714285Y-101402380D01*
X107285714Y-102402380D01*
X107285714Y-101402380D01*
X107761904Y-102402380D02*
X107761904Y-101402380D01*
X108000000Y-101402380D01*
X108142857Y-101450000D01*
X108238095Y-101545238D01*
X108285714Y-101640476D01*
X108333333Y-101830952D01*
X108333333Y-101973809D01*
X108285714Y-102164285D01*
X108238095Y-102259523D01*
X108142857Y-102354761D01*
X108000000Y-102402380D01*
X107761904Y-102402380D01*
X103973333Y-75762380D02*
X103640000Y-75286190D01*
X103401904Y-75762380D02*
X103401904Y-74762380D01*
X103782857Y-74762380D01*
X103878095Y-74810000D01*
X103925714Y-74857619D01*
X103973333Y-74952857D01*
X103973333Y-75095714D01*
X103925714Y-75190952D01*
X103878095Y-75238571D01*
X103782857Y-75286190D01*
X103401904Y-75286190D01*
X104925714Y-75762380D02*
X104354285Y-75762380D01*
X104640000Y-75762380D02*
X104640000Y-74762380D01*
X104544761Y-74905238D01*
X104449523Y-75000476D01*
X104354285Y-75048095D01*
X103973333Y-79572380D02*
X103640000Y-79096190D01*
X103401904Y-79572380D02*
X103401904Y-78572380D01*
X103782857Y-78572380D01*
X103878095Y-78620000D01*
X103925714Y-78667619D01*
X103973333Y-78762857D01*
X103973333Y-78905714D01*
X103925714Y-79000952D01*
X103878095Y-79048571D01*
X103782857Y-79096190D01*
X103401904Y-79096190D01*
X104354285Y-78667619D02*
X104401904Y-78620000D01*
X104497142Y-78572380D01*
X104735238Y-78572380D01*
X104830476Y-78620000D01*
X104878095Y-78667619D01*
X104925714Y-78762857D01*
X104925714Y-78858095D01*
X104878095Y-79000952D01*
X104306666Y-79572380D01*
X104925714Y-79572380D01*
X98250476Y-74762380D02*
X98583809Y-75762380D01*
X98917142Y-74762380D01*
X99774285Y-75762380D02*
X99202857Y-75762380D01*
X99488571Y-75762380D02*
X99488571Y-74762380D01*
X99393333Y-74905238D01*
X99298095Y-75000476D01*
X99202857Y-75048095D01*
X98250476Y-78572380D02*
X98583809Y-79572380D01*
X98917142Y-78572380D01*
X99202857Y-78667619D02*
X99250476Y-78620000D01*
X99345714Y-78572380D01*
X99583809Y-78572380D01*
X99679047Y-78620000D01*
X99726666Y-78667619D01*
X99774285Y-78762857D01*
X99774285Y-78858095D01*
X99726666Y-79000952D01*
X99155238Y-79572380D01*
X99774285Y-79572380D01*
X159433333Y-90077380D02*
X159100000Y-89601190D01*
X158861904Y-90077380D02*
X158861904Y-89077380D01*
X159242857Y-89077380D01*
X159338095Y-89125000D01*
X159385714Y-89172619D01*
X159433333Y-89267857D01*
X159433333Y-89410714D01*
X159385714Y-89505952D01*
X159338095Y-89553571D01*
X159242857Y-89601190D01*
X158861904Y-89601190D01*
X159766666Y-89077380D02*
X160385714Y-89077380D01*
X160052380Y-89458333D01*
X160195238Y-89458333D01*
X160290476Y-89505952D01*
X160338095Y-89553571D01*
X160385714Y-89648809D01*
X160385714Y-89886904D01*
X160338095Y-89982142D01*
X160290476Y-90029761D01*
X160195238Y-90077380D01*
X159909523Y-90077380D01*
X159814285Y-90029761D01*
X159766666Y-89982142D01*
X162233333Y-90077380D02*
X161900000Y-89601190D01*
X161661904Y-90077380D02*
X161661904Y-89077380D01*
X162042857Y-89077380D01*
X162138095Y-89125000D01*
X162185714Y-89172619D01*
X162233333Y-89267857D01*
X162233333Y-89410714D01*
X162185714Y-89505952D01*
X162138095Y-89553571D01*
X162042857Y-89601190D01*
X161661904Y-89601190D01*
X163090476Y-89410714D02*
X163090476Y-90077380D01*
X162852380Y-89029761D02*
X162614285Y-89744047D01*
X163233333Y-89744047D01*
X162233333Y-110067380D02*
X161900000Y-109591190D01*
X161661904Y-110067380D02*
X161661904Y-109067380D01*
X162042857Y-109067380D01*
X162138095Y-109115000D01*
X162185714Y-109162619D01*
X162233333Y-109257857D01*
X162233333Y-109400714D01*
X162185714Y-109495952D01*
X162138095Y-109543571D01*
X162042857Y-109591190D01*
X161661904Y-109591190D01*
X163138095Y-109067380D02*
X162661904Y-109067380D01*
X162614285Y-109543571D01*
X162661904Y-109495952D01*
X162757142Y-109448333D01*
X162995238Y-109448333D01*
X163090476Y-109495952D01*
X163138095Y-109543571D01*
X163185714Y-109638809D01*
X163185714Y-109876904D01*
X163138095Y-109972142D01*
X163090476Y-110019761D01*
X162995238Y-110067380D01*
X162757142Y-110067380D01*
X162661904Y-110019761D01*
X162614285Y-109972142D01*
X159433333Y-110067380D02*
X159100000Y-109591190D01*
X158861904Y-110067380D02*
X158861904Y-109067380D01*
X159242857Y-109067380D01*
X159338095Y-109115000D01*
X159385714Y-109162619D01*
X159433333Y-109257857D01*
X159433333Y-109400714D01*
X159385714Y-109495952D01*
X159338095Y-109543571D01*
X159242857Y-109591190D01*
X158861904Y-109591190D01*
X160290476Y-109067380D02*
X160100000Y-109067380D01*
X160004761Y-109115000D01*
X159957142Y-109162619D01*
X159861904Y-109305476D01*
X159814285Y-109495952D01*
X159814285Y-109876904D01*
X159861904Y-109972142D01*
X159909523Y-110019761D01*
X160004761Y-110067380D01*
X160195238Y-110067380D01*
X160290476Y-110019761D01*
X160338095Y-109972142D01*
X160385714Y-109876904D01*
X160385714Y-109638809D01*
X160338095Y-109543571D01*
X160290476Y-109495952D01*
X160195238Y-109448333D01*
X160004761Y-109448333D01*
X159909523Y-109495952D01*
X159861904Y-109543571D01*
X159814285Y-109638809D01*
M02*
