G04 #@! TF.GenerationSoftware,KiCad,Pcbnew,(5.1.2)-2*
G04 #@! TF.CreationDate,2019-10-29T07:50:01+01:00*
G04 #@! TF.ProjectId,Alphabot2.0,416c7068-6162-46f7-9432-2e302e6b6963,1.0*
G04 #@! TF.SameCoordinates,Original*
G04 #@! TF.FileFunction,Legend,Bot*
G04 #@! TF.FilePolarity,Positive*
%FSLAX46Y46*%
G04 Gerber Fmt 4.6, Leading zero omitted, Abs format (unit mm)*
G04 Created by KiCad (PCBNEW (5.1.2)-2) date 2019-10-29 07:50:01*
%MOMM*%
%LPD*%
G04 APERTURE LIST*
%ADD10C,0.120000*%
%ADD11C,0.150000*%
%ADD12C,0.125000*%
G04 APERTURE END LIST*
D10*
X112405000Y-72620000D02*
X112405000Y-126620000D01*
X153405000Y-72620000D02*
X112405000Y-72620000D01*
X153405000Y-126620000D02*
X153405000Y-72620000D01*
X112405000Y-126620000D02*
X153405000Y-126620000D01*
X177775117Y-78868687D02*
X178131464Y-78486552D01*
X178813640Y-79837124D02*
X179169987Y-79454989D01*
X178661240Y-119532276D02*
X179017587Y-119914411D01*
X177622717Y-120500713D02*
X177979064Y-120882848D01*
X158302940Y-119688560D02*
X157802940Y-119188560D01*
X164202940Y-114788560D02*
X164202940Y-119688560D01*
X157802940Y-114788560D02*
X164202940Y-114788560D01*
X157802940Y-119188560D02*
X157802940Y-114788560D01*
X164202940Y-119688560D02*
X158302940Y-119688560D01*
X163700000Y-79550000D02*
X164200000Y-80050000D01*
X157800000Y-84450000D02*
X157800000Y-79550000D01*
X164200000Y-84450000D02*
X157800000Y-84450000D01*
X164200000Y-80050000D02*
X164200000Y-84450000D01*
X157800000Y-79550000D02*
X163700000Y-79550000D01*
X150210000Y-139060000D02*
X150210000Y-137910000D01*
X157510000Y-139060000D02*
X150210000Y-139060000D01*
X157510000Y-133560000D02*
X150210000Y-133560000D01*
X95410000Y-127060000D02*
X95410000Y-125910000D01*
X102710000Y-127060000D02*
X95410000Y-127060000D01*
X102710000Y-121560000D02*
X95410000Y-121560000D01*
X95410000Y-77680000D02*
X95410000Y-76530000D01*
X102710000Y-77680000D02*
X95410000Y-77680000D01*
X102710000Y-72180000D02*
X95410000Y-72180000D01*
X157330000Y-60180000D02*
X157330000Y-61330000D01*
X150030000Y-60180000D02*
X157330000Y-60180000D01*
X150030000Y-65680000D02*
X157330000Y-65680000D01*
X98798748Y-119790000D02*
X99321252Y-119790000D01*
X98798748Y-121210000D02*
X99321252Y-121210000D01*
X99321252Y-79450000D02*
X98798748Y-79450000D01*
X99321252Y-78030000D02*
X98798748Y-78030000D01*
X153418748Y-131790000D02*
X153941252Y-131790000D01*
X153418748Y-133210000D02*
X153941252Y-133210000D01*
X153941252Y-67450000D02*
X153418748Y-67450000D01*
X153941252Y-66030000D02*
X153418748Y-66030000D01*
D11*
X168555355Y-67010908D02*
X168492753Y-67147863D01*
X168330372Y-67321995D01*
X168230594Y-67359172D01*
X168163291Y-67361522D01*
X168061162Y-67331396D01*
X167991510Y-67266444D01*
X167954333Y-67166665D01*
X167951983Y-67099363D01*
X167982109Y-66997234D01*
X168077187Y-66825453D01*
X168107313Y-66723324D01*
X168104962Y-66656021D01*
X168067786Y-66556243D01*
X167998133Y-66491290D01*
X167896004Y-66461165D01*
X167828702Y-66463515D01*
X167728923Y-66500691D01*
X167566542Y-66674823D01*
X167503940Y-66811778D01*
X167241781Y-67023087D02*
X167810754Y-67879217D01*
X167158454Y-67531381D01*
X167550946Y-68157828D01*
X166657211Y-67649962D01*
X166499531Y-67958698D02*
X166432229Y-67961049D01*
X166332450Y-67998225D01*
X166170070Y-68172357D01*
X166139944Y-68274486D01*
X166142294Y-68341788D01*
X166179471Y-68441567D01*
X166249123Y-68506519D01*
X166386079Y-68569121D01*
X167193708Y-68540918D01*
X166771519Y-68993661D01*
X167963307Y-132461185D02*
X167831052Y-132389182D01*
X167668671Y-132215050D01*
X167638545Y-132112921D01*
X167640896Y-132045619D01*
X167678072Y-131945840D01*
X167747725Y-131880888D01*
X167849854Y-131850762D01*
X167917156Y-131853112D01*
X168016935Y-131890289D01*
X168181666Y-131997118D01*
X168281444Y-132034295D01*
X168348747Y-132036645D01*
X168450876Y-132006519D01*
X168520528Y-131941567D01*
X168557705Y-131841788D01*
X168560055Y-131774486D01*
X168529929Y-131672357D01*
X168367549Y-131498225D01*
X168235294Y-131426222D01*
X168042788Y-131149962D02*
X167149053Y-131657828D01*
X167541545Y-131031381D01*
X166889245Y-131379217D01*
X167458218Y-130523087D01*
X166109818Y-130543384D02*
X166499531Y-130961301D01*
X166304675Y-130752342D02*
X167036028Y-130070344D01*
X166996501Y-130237425D01*
X166991801Y-130372030D01*
X167021927Y-130474159D01*
X180123802Y-80473765D02*
X180002871Y-79905220D01*
X180513516Y-80055849D02*
X179782162Y-79373851D01*
X179522353Y-79652461D01*
X179492227Y-79754590D01*
X179494578Y-79821893D01*
X179531754Y-79921671D01*
X179636233Y-80019100D01*
X179738362Y-80049226D01*
X179805665Y-80046875D01*
X179905443Y-80009699D01*
X180165252Y-79731088D01*
X179316173Y-80501968D02*
X179346298Y-80399839D01*
X179343948Y-80332537D01*
X179306772Y-80232758D01*
X179271945Y-80200282D01*
X179169816Y-80170156D01*
X179102514Y-80172507D01*
X179002735Y-80209683D01*
X178872831Y-80348989D01*
X178842705Y-80451118D01*
X178845055Y-80518420D01*
X178882232Y-80618199D01*
X178917058Y-80650675D01*
X179019187Y-80680801D01*
X179086490Y-80678450D01*
X179186268Y-80641274D01*
X179316173Y-80501968D01*
X179415951Y-80464792D01*
X179483254Y-80462441D01*
X179585383Y-80492567D01*
X179724688Y-80622472D01*
X179761865Y-80722250D01*
X179764215Y-80789553D01*
X179734089Y-80891682D01*
X179604185Y-81030987D01*
X179504406Y-81068164D01*
X179437104Y-81070514D01*
X179334975Y-81040388D01*
X179195669Y-80910484D01*
X179158493Y-80810705D01*
X179156142Y-80743403D01*
X179186268Y-80641274D01*
X176896233Y-121763274D02*
X177471830Y-121682297D01*
X177285947Y-122181190D02*
X178017300Y-121499192D01*
X177757492Y-121220581D01*
X177657713Y-121183404D01*
X177590410Y-121181054D01*
X177488282Y-121211180D01*
X177383803Y-121308608D01*
X177346626Y-121408387D01*
X177344276Y-121475689D01*
X177374402Y-121577818D01*
X177634210Y-121856429D01*
X177400254Y-120837491D02*
X176945589Y-120349922D01*
X176506520Y-121345357D01*
X160023809Y-113882380D02*
X160023809Y-112882380D01*
X161071428Y-113882380D02*
X160738095Y-113406190D01*
X160500000Y-113882380D02*
X160500000Y-112882380D01*
X160880952Y-112882380D01*
X160976190Y-112930000D01*
X161023809Y-112977619D01*
X161071428Y-113072857D01*
X161071428Y-113215714D01*
X161023809Y-113310952D01*
X160976190Y-113358571D01*
X160880952Y-113406190D01*
X160500000Y-113406190D01*
X161452380Y-112977619D02*
X161500000Y-112930000D01*
X161595238Y-112882380D01*
X161833333Y-112882380D01*
X161928571Y-112930000D01*
X161976190Y-112977619D01*
X162023809Y-113072857D01*
X162023809Y-113168095D01*
X161976190Y-113310952D01*
X161404761Y-113882380D01*
X162023809Y-113882380D01*
D12*
X155880559Y-115842845D02*
X156047225Y-115842845D01*
X156118654Y-116104750D02*
X155880559Y-116104750D01*
X155880559Y-115604750D01*
X156118654Y-115604750D01*
X156332940Y-116104750D02*
X156332940Y-115771417D01*
X156332940Y-115819036D02*
X156356749Y-115795226D01*
X156404368Y-115771417D01*
X156475797Y-115771417D01*
X156523416Y-115795226D01*
X156547225Y-115842845D01*
X156547225Y-116104750D01*
X156547225Y-115842845D02*
X156571035Y-115795226D01*
X156618654Y-115771417D01*
X156690082Y-115771417D01*
X156737701Y-115795226D01*
X156761511Y-115842845D01*
X156761511Y-116104750D01*
X156999606Y-116104750D02*
X156999606Y-115771417D01*
X156999606Y-115604750D02*
X156975797Y-115628560D01*
X156999606Y-115652369D01*
X157023416Y-115628560D01*
X156999606Y-115604750D01*
X156999606Y-115652369D01*
X157166273Y-115771417D02*
X157356749Y-115771417D01*
X157237701Y-115604750D02*
X157237701Y-116033321D01*
X157261511Y-116080940D01*
X157309130Y-116104750D01*
X157356749Y-116104750D01*
X156249606Y-118597131D02*
X156225797Y-118620940D01*
X156154368Y-118644750D01*
X156106749Y-118644750D01*
X156035320Y-118620940D01*
X155987701Y-118573321D01*
X155963892Y-118525702D01*
X155940082Y-118430464D01*
X155940082Y-118359036D01*
X155963892Y-118263798D01*
X155987701Y-118216179D01*
X156035320Y-118168560D01*
X156106749Y-118144750D01*
X156154368Y-118144750D01*
X156225797Y-118168560D01*
X156249606Y-118192369D01*
X156535320Y-118644750D02*
X156487701Y-118620940D01*
X156463892Y-118597131D01*
X156440082Y-118549512D01*
X156440082Y-118406655D01*
X156463892Y-118359036D01*
X156487701Y-118335226D01*
X156535320Y-118311417D01*
X156606749Y-118311417D01*
X156654368Y-118335226D01*
X156678178Y-118359036D01*
X156701987Y-118406655D01*
X156701987Y-118549512D01*
X156678178Y-118597131D01*
X156654368Y-118620940D01*
X156606749Y-118644750D01*
X156535320Y-118644750D01*
X156987701Y-118644750D02*
X156940082Y-118620940D01*
X156916273Y-118573321D01*
X156916273Y-118144750D01*
X157249606Y-118644750D02*
X157201987Y-118620940D01*
X157178178Y-118573321D01*
X157178178Y-118144750D01*
X165258654Y-116057131D02*
X165234844Y-116080940D01*
X165163416Y-116104750D01*
X165115797Y-116104750D01*
X165044368Y-116080940D01*
X164996749Y-116033321D01*
X164972940Y-115985702D01*
X164949130Y-115890464D01*
X164949130Y-115819036D01*
X164972940Y-115723798D01*
X164996749Y-115676179D01*
X165044368Y-115628560D01*
X165115797Y-115604750D01*
X165163416Y-115604750D01*
X165234844Y-115628560D01*
X165258654Y-115652369D01*
X165687225Y-116104750D02*
X165687225Y-115842845D01*
X165663416Y-115795226D01*
X165615797Y-115771417D01*
X165520559Y-115771417D01*
X165472940Y-115795226D01*
X165687225Y-116080940D02*
X165639606Y-116104750D01*
X165520559Y-116104750D01*
X165472940Y-116080940D01*
X165449130Y-116033321D01*
X165449130Y-115985702D01*
X165472940Y-115938083D01*
X165520559Y-115914274D01*
X165639606Y-115914274D01*
X165687225Y-115890464D01*
X165853892Y-115771417D02*
X166044368Y-115771417D01*
X165925320Y-115604750D02*
X165925320Y-116033321D01*
X165949130Y-116080940D01*
X165996749Y-116104750D01*
X166044368Y-116104750D01*
X165127701Y-118501893D02*
X165365797Y-118501893D01*
X165080082Y-118644750D02*
X165246749Y-118144750D01*
X165413416Y-118644750D01*
X165580082Y-118311417D02*
X165580082Y-118644750D01*
X165580082Y-118359036D02*
X165603892Y-118335226D01*
X165651511Y-118311417D01*
X165722940Y-118311417D01*
X165770559Y-118335226D01*
X165794368Y-118382845D01*
X165794368Y-118644750D01*
D11*
X160059809Y-78642380D02*
X160059809Y-77642380D01*
X161107428Y-78642380D02*
X160774095Y-78166190D01*
X160536000Y-78642380D02*
X160536000Y-77642380D01*
X160916952Y-77642380D01*
X161012190Y-77690000D01*
X161059809Y-77737619D01*
X161107428Y-77832857D01*
X161107428Y-77975714D01*
X161059809Y-78070952D01*
X161012190Y-78118571D01*
X160916952Y-78166190D01*
X160536000Y-78166190D01*
X162059809Y-78642380D02*
X161488380Y-78642380D01*
X161774095Y-78642380D02*
X161774095Y-77642380D01*
X161678857Y-77785238D01*
X161583619Y-77880476D01*
X161488380Y-77928095D01*
D12*
X164717619Y-83324285D02*
X164884285Y-83324285D01*
X164955714Y-83586190D02*
X164717619Y-83586190D01*
X164717619Y-83086190D01*
X164955714Y-83086190D01*
X165170000Y-83586190D02*
X165170000Y-83252857D01*
X165170000Y-83300476D02*
X165193809Y-83276666D01*
X165241428Y-83252857D01*
X165312857Y-83252857D01*
X165360476Y-83276666D01*
X165384285Y-83324285D01*
X165384285Y-83586190D01*
X165384285Y-83324285D02*
X165408095Y-83276666D01*
X165455714Y-83252857D01*
X165527142Y-83252857D01*
X165574761Y-83276666D01*
X165598571Y-83324285D01*
X165598571Y-83586190D01*
X165836666Y-83586190D02*
X165836666Y-83252857D01*
X165836666Y-83086190D02*
X165812857Y-83110000D01*
X165836666Y-83133809D01*
X165860476Y-83110000D01*
X165836666Y-83086190D01*
X165836666Y-83133809D01*
X166003333Y-83252857D02*
X166193809Y-83252857D01*
X166074761Y-83086190D02*
X166074761Y-83514761D01*
X166098571Y-83562380D01*
X166146190Y-83586190D01*
X166193809Y-83586190D01*
X165086666Y-80998571D02*
X165062857Y-81022380D01*
X164991428Y-81046190D01*
X164943809Y-81046190D01*
X164872380Y-81022380D01*
X164824761Y-80974761D01*
X164800952Y-80927142D01*
X164777142Y-80831904D01*
X164777142Y-80760476D01*
X164800952Y-80665238D01*
X164824761Y-80617619D01*
X164872380Y-80570000D01*
X164943809Y-80546190D01*
X164991428Y-80546190D01*
X165062857Y-80570000D01*
X165086666Y-80593809D01*
X165372380Y-81046190D02*
X165324761Y-81022380D01*
X165300952Y-80998571D01*
X165277142Y-80950952D01*
X165277142Y-80808095D01*
X165300952Y-80760476D01*
X165324761Y-80736666D01*
X165372380Y-80712857D01*
X165443809Y-80712857D01*
X165491428Y-80736666D01*
X165515238Y-80760476D01*
X165539047Y-80808095D01*
X165539047Y-80950952D01*
X165515238Y-80998571D01*
X165491428Y-81022380D01*
X165443809Y-81046190D01*
X165372380Y-81046190D01*
X165824761Y-81046190D02*
X165777142Y-81022380D01*
X165753333Y-80974761D01*
X165753333Y-80546190D01*
X166086666Y-81046190D02*
X166039047Y-81022380D01*
X166015238Y-80974761D01*
X166015238Y-80546190D01*
X156315714Y-83538571D02*
X156291904Y-83562380D01*
X156220476Y-83586190D01*
X156172857Y-83586190D01*
X156101428Y-83562380D01*
X156053809Y-83514761D01*
X156030000Y-83467142D01*
X156006190Y-83371904D01*
X156006190Y-83300476D01*
X156030000Y-83205238D01*
X156053809Y-83157619D01*
X156101428Y-83110000D01*
X156172857Y-83086190D01*
X156220476Y-83086190D01*
X156291904Y-83110000D01*
X156315714Y-83133809D01*
X156744285Y-83586190D02*
X156744285Y-83324285D01*
X156720476Y-83276666D01*
X156672857Y-83252857D01*
X156577619Y-83252857D01*
X156530000Y-83276666D01*
X156744285Y-83562380D02*
X156696666Y-83586190D01*
X156577619Y-83586190D01*
X156530000Y-83562380D01*
X156506190Y-83514761D01*
X156506190Y-83467142D01*
X156530000Y-83419523D01*
X156577619Y-83395714D01*
X156696666Y-83395714D01*
X156744285Y-83371904D01*
X156910952Y-83252857D02*
X157101428Y-83252857D01*
X156982380Y-83086190D02*
X156982380Y-83514761D01*
X157006190Y-83562380D01*
X157053809Y-83586190D01*
X157101428Y-83586190D01*
X156184761Y-80903333D02*
X156422857Y-80903333D01*
X156137142Y-81046190D02*
X156303809Y-80546190D01*
X156470476Y-81046190D01*
X156637142Y-80712857D02*
X156637142Y-81046190D01*
X156637142Y-80760476D02*
X156660952Y-80736666D01*
X156708571Y-80712857D01*
X156780000Y-80712857D01*
X156827619Y-80736666D01*
X156851428Y-80784285D01*
X156851428Y-81046190D01*
D11*
X159241523Y-135762380D02*
X158908190Y-136762380D01*
X158574857Y-135762380D01*
X157812952Y-135762380D02*
X158003428Y-135762380D01*
X158098666Y-135810000D01*
X158146285Y-135857619D01*
X158241523Y-136000476D01*
X158289142Y-136190952D01*
X158289142Y-136571904D01*
X158241523Y-136667142D01*
X158193904Y-136714761D01*
X158098666Y-136762380D01*
X157908190Y-136762380D01*
X157812952Y-136714761D01*
X157765333Y-136667142D01*
X157717714Y-136571904D01*
X157717714Y-136333809D01*
X157765333Y-136238571D01*
X157812952Y-136190952D01*
X157908190Y-136143333D01*
X158098666Y-136143333D01*
X158193904Y-136190952D01*
X158241523Y-136238571D01*
X158289142Y-136333809D01*
X157724285Y-135162380D02*
X158295714Y-135162380D01*
X158010000Y-135162380D02*
X158010000Y-134162380D01*
X158105238Y-134305238D01*
X158200476Y-134400476D01*
X158295714Y-134448095D01*
X104441523Y-123658380D02*
X104108190Y-124658380D01*
X103774857Y-123658380D01*
X102965333Y-123658380D02*
X103441523Y-123658380D01*
X103489142Y-124134571D01*
X103441523Y-124086952D01*
X103346285Y-124039333D01*
X103108190Y-124039333D01*
X103012952Y-124086952D01*
X102965333Y-124134571D01*
X102917714Y-124229809D01*
X102917714Y-124467904D01*
X102965333Y-124563142D01*
X103012952Y-124610761D01*
X103108190Y-124658380D01*
X103346285Y-124658380D01*
X103441523Y-124610761D01*
X103489142Y-124563142D01*
X102924285Y-123162380D02*
X103495714Y-123162380D01*
X103210000Y-123162380D02*
X103210000Y-122162380D01*
X103305238Y-122305238D01*
X103400476Y-122400476D01*
X103495714Y-122448095D01*
X104441523Y-74382380D02*
X104108190Y-75382380D01*
X103774857Y-74382380D01*
X103012952Y-74715714D02*
X103012952Y-75382380D01*
X103251047Y-74334761D02*
X103489142Y-75049047D01*
X102870095Y-75049047D01*
X102924285Y-73782380D02*
X103495714Y-73782380D01*
X103210000Y-73782380D02*
X103210000Y-72782380D01*
X103305238Y-72925238D01*
X103400476Y-73020476D01*
X103495714Y-73068095D01*
X159061523Y-62382380D02*
X158728190Y-63382380D01*
X158394857Y-62382380D01*
X158156761Y-62382380D02*
X157537714Y-62382380D01*
X157871047Y-62763333D01*
X157728190Y-62763333D01*
X157632952Y-62810952D01*
X157585333Y-62858571D01*
X157537714Y-62953809D01*
X157537714Y-63191904D01*
X157585333Y-63287142D01*
X157632952Y-63334761D01*
X157728190Y-63382380D01*
X158013904Y-63382380D01*
X158109142Y-63334761D01*
X158156761Y-63287142D01*
X149244285Y-64982380D02*
X149815714Y-64982380D01*
X149530000Y-64982380D02*
X149530000Y-63982380D01*
X149625238Y-64125238D01*
X149720476Y-64220476D01*
X149815714Y-64268095D01*
X99226666Y-118975142D02*
X99274285Y-119022761D01*
X99417142Y-119070380D01*
X99512380Y-119070380D01*
X99655238Y-119022761D01*
X99750476Y-118927523D01*
X99798095Y-118832285D01*
X99845714Y-118641809D01*
X99845714Y-118498952D01*
X99798095Y-118308476D01*
X99750476Y-118213238D01*
X99655238Y-118118000D01*
X99512380Y-118070380D01*
X99417142Y-118070380D01*
X99274285Y-118118000D01*
X99226666Y-118165619D01*
X98369523Y-118403714D02*
X98369523Y-119070380D01*
X98607619Y-118022761D02*
X98845714Y-118737047D01*
X98226666Y-118737047D01*
X99226666Y-81129142D02*
X99274285Y-81176761D01*
X99417142Y-81224380D01*
X99512380Y-81224380D01*
X99655238Y-81176761D01*
X99750476Y-81081523D01*
X99798095Y-80986285D01*
X99845714Y-80795809D01*
X99845714Y-80652952D01*
X99798095Y-80462476D01*
X99750476Y-80367238D01*
X99655238Y-80272000D01*
X99512380Y-80224380D01*
X99417142Y-80224380D01*
X99274285Y-80272000D01*
X99226666Y-80319619D01*
X98893333Y-80224380D02*
X98274285Y-80224380D01*
X98607619Y-80605333D01*
X98464761Y-80605333D01*
X98369523Y-80652952D01*
X98321904Y-80700571D01*
X98274285Y-80795809D01*
X98274285Y-81033904D01*
X98321904Y-81129142D01*
X98369523Y-81176761D01*
X98464761Y-81224380D01*
X98750476Y-81224380D01*
X98845714Y-81176761D01*
X98893333Y-81129142D01*
X153846666Y-131079142D02*
X153894285Y-131126761D01*
X154037142Y-131174380D01*
X154132380Y-131174380D01*
X154275238Y-131126761D01*
X154370476Y-131031523D01*
X154418095Y-130936285D01*
X154465714Y-130745809D01*
X154465714Y-130602952D01*
X154418095Y-130412476D01*
X154370476Y-130317238D01*
X154275238Y-130222000D01*
X154132380Y-130174380D01*
X154037142Y-130174380D01*
X153894285Y-130222000D01*
X153846666Y-130269619D01*
X153465714Y-130269619D02*
X153418095Y-130222000D01*
X153322857Y-130174380D01*
X153084761Y-130174380D01*
X152989523Y-130222000D01*
X152941904Y-130269619D01*
X152894285Y-130364857D01*
X152894285Y-130460095D01*
X152941904Y-130602952D01*
X153513333Y-131174380D01*
X152894285Y-131174380D01*
X153846666Y-68875142D02*
X153894285Y-68922761D01*
X154037142Y-68970380D01*
X154132380Y-68970380D01*
X154275238Y-68922761D01*
X154370476Y-68827523D01*
X154418095Y-68732285D01*
X154465714Y-68541809D01*
X154465714Y-68398952D01*
X154418095Y-68208476D01*
X154370476Y-68113238D01*
X154275238Y-68018000D01*
X154132380Y-67970380D01*
X154037142Y-67970380D01*
X153894285Y-68018000D01*
X153846666Y-68065619D01*
X152894285Y-68970380D02*
X153465714Y-68970380D01*
X153180000Y-68970380D02*
X153180000Y-67970380D01*
X153275238Y-68113238D01*
X153370476Y-68208476D01*
X153465714Y-68256095D01*
M02*
