G04 #@! TF.GenerationSoftware,KiCad,Pcbnew,(5.1.2)-2*
G04 #@! TF.CreationDate,2019-10-29T07:50:01+01:00*
G04 #@! TF.ProjectId,Alphabot2.0,416c7068-6162-46f7-9432-2e302e6b6963,1.0*
G04 #@! TF.SameCoordinates,Original*
G04 #@! TF.FileFunction,Copper,L2,Bot*
G04 #@! TF.FilePolarity,Positive*
%FSLAX46Y46*%
G04 Gerber Fmt 4.6, Leading zero omitted, Abs format (unit mm)*
G04 Created by KiCad (PCBNEW (5.1.2)-2) date 2019-10-29 07:50:01*
%MOMM*%
%LPD*%
G04 APERTURE LIST*
%ADD10C,2.400000*%
%ADD11C,2.000000*%
%ADD12C,0.100000*%
%ADD13C,1.150000*%
%ADD14C,1.524000*%
%ADD15R,2.000000X2.000000*%
%ADD16R,1.500000X1.000000*%
%ADD17C,0.800000*%
%ADD18C,0.250000*%
G04 APERTURE END LIST*
D10*
X157405000Y-108620000D03*
X108405000Y-75620000D03*
X157405000Y-90620000D03*
X108405000Y-123620000D03*
D11*
X167650000Y-75490000D03*
X167650000Y-78030000D03*
X167650000Y-80570000D03*
X167650000Y-83110000D03*
X167650000Y-85650000D03*
X167650000Y-88190000D03*
X167650000Y-90730000D03*
X167650000Y-93270000D03*
X167650000Y-95810000D03*
X167650000Y-98350000D03*
X167650000Y-100890000D03*
X167650000Y-103430000D03*
X167650000Y-105970000D03*
X167650000Y-108510000D03*
X167650000Y-111050000D03*
X167650000Y-113590000D03*
X167650000Y-116130000D03*
X167650000Y-118670000D03*
X167650000Y-121210000D03*
X167650000Y-123750000D03*
X149870000Y-123750000D03*
X149870000Y-121210000D03*
X149870000Y-118670000D03*
X149870000Y-116130000D03*
X149870000Y-113590000D03*
X149870000Y-111050000D03*
X149870000Y-108510000D03*
X149870000Y-105970000D03*
X149870000Y-103430000D03*
X149870000Y-100890000D03*
X149870000Y-98350000D03*
X149870000Y-95810000D03*
X149870000Y-93270000D03*
X149870000Y-90730000D03*
X149870000Y-88190000D03*
X149870000Y-85650000D03*
X149870000Y-83110000D03*
X149870000Y-80570000D03*
X149870000Y-78030000D03*
X149870000Y-75490000D03*
X169947817Y-69962815D03*
D12*
G36*
X170921459Y-67452432D02*
G01*
X172384167Y-68816429D01*
X168974175Y-72473198D01*
X167511467Y-71109201D01*
X170921459Y-67452432D01*
X170921459Y-67452432D01*
G37*
D11*
X181649476Y-80874789D03*
D12*
G36*
X182623118Y-78364406D02*
G01*
X184085826Y-79728403D01*
X180675834Y-83385172D01*
X179213126Y-82021175D01*
X182623118Y-78364406D01*
X182623118Y-78364406D01*
G37*
D11*
X176530000Y-76100800D03*
D12*
G36*
X177503642Y-73590417D02*
G01*
X178966350Y-74954414D01*
X175556358Y-78611183D01*
X174093650Y-77247186D01*
X177503642Y-73590417D01*
X177503642Y-73590417D01*
G37*
D11*
X169900600Y-129313800D03*
D12*
G36*
X167464250Y-128167414D02*
G01*
X168926958Y-126803417D01*
X172336950Y-130460186D01*
X170874242Y-131824183D01*
X167464250Y-128167414D01*
X167464250Y-128167414D01*
G37*
D11*
X181602259Y-118401826D03*
D12*
G36*
X179165909Y-117255440D02*
G01*
X180628617Y-115891443D01*
X184038609Y-119548212D01*
X182575901Y-120912209D01*
X179165909Y-117255440D01*
X179165909Y-117255440D01*
G37*
D11*
X176482783Y-123175815D03*
D12*
G36*
X174046433Y-122029429D02*
G01*
X175509141Y-120665432D01*
X178919133Y-124322201D01*
X177456425Y-125686198D01*
X174046433Y-122029429D01*
X174046433Y-122029429D01*
G37*
G36*
X179079946Y-77618110D02*
G01*
X179104325Y-77620861D01*
X179128317Y-77625988D01*
X179151691Y-77633442D01*
X179174222Y-77643151D01*
X179195693Y-77655022D01*
X179215896Y-77668940D01*
X179234639Y-77684771D01*
X179892859Y-78298571D01*
X179909959Y-78316164D01*
X179925253Y-78335347D01*
X179938592Y-78355937D01*
X179949849Y-78377736D01*
X179958916Y-78400533D01*
X179965704Y-78424109D01*
X179970148Y-78448237D01*
X179972207Y-78472684D01*
X179971859Y-78497215D01*
X179969108Y-78521594D01*
X179963981Y-78545587D01*
X179956527Y-78568960D01*
X179946818Y-78591491D01*
X179934947Y-78612962D01*
X179921029Y-78633166D01*
X179905198Y-78651908D01*
X179461898Y-79127290D01*
X179444306Y-79144390D01*
X179425122Y-79159684D01*
X179404532Y-79173023D01*
X179382733Y-79184280D01*
X179359936Y-79193347D01*
X179336360Y-79200135D01*
X179312232Y-79204579D01*
X179287785Y-79206638D01*
X179263254Y-79206290D01*
X179238875Y-79203539D01*
X179214883Y-79198412D01*
X179191509Y-79190958D01*
X179168978Y-79181249D01*
X179147507Y-79169378D01*
X179127304Y-79155460D01*
X179108561Y-79139629D01*
X178450341Y-78525829D01*
X178433241Y-78508236D01*
X178417947Y-78489053D01*
X178404608Y-78468463D01*
X178393351Y-78446664D01*
X178384284Y-78423867D01*
X178377496Y-78400291D01*
X178373052Y-78376163D01*
X178370993Y-78351716D01*
X178371341Y-78327185D01*
X178374092Y-78302806D01*
X178379219Y-78278813D01*
X178386673Y-78255440D01*
X178396382Y-78232909D01*
X178408253Y-78211438D01*
X178422171Y-78191234D01*
X178438002Y-78172492D01*
X178881302Y-77697110D01*
X178898894Y-77680010D01*
X178918078Y-77664716D01*
X178938668Y-77651377D01*
X178960467Y-77640120D01*
X178983264Y-77631053D01*
X179006840Y-77624265D01*
X179030968Y-77619821D01*
X179055415Y-77617762D01*
X179079946Y-77618110D01*
X179079946Y-77618110D01*
G37*
D13*
X179171600Y-78412200D03*
D12*
G36*
X177681850Y-79117386D02*
G01*
X177706229Y-79120137D01*
X177730221Y-79125264D01*
X177753595Y-79132718D01*
X177776126Y-79142427D01*
X177797597Y-79154298D01*
X177817800Y-79168216D01*
X177836543Y-79184047D01*
X178494763Y-79797847D01*
X178511863Y-79815440D01*
X178527157Y-79834623D01*
X178540496Y-79855213D01*
X178551753Y-79877012D01*
X178560820Y-79899809D01*
X178567608Y-79923385D01*
X178572052Y-79947513D01*
X178574111Y-79971960D01*
X178573763Y-79996491D01*
X178571012Y-80020870D01*
X178565885Y-80044863D01*
X178558431Y-80068236D01*
X178548722Y-80090767D01*
X178536851Y-80112238D01*
X178522933Y-80132442D01*
X178507102Y-80151184D01*
X178063802Y-80626566D01*
X178046210Y-80643666D01*
X178027026Y-80658960D01*
X178006436Y-80672299D01*
X177984637Y-80683556D01*
X177961840Y-80692623D01*
X177938264Y-80699411D01*
X177914136Y-80703855D01*
X177889689Y-80705914D01*
X177865158Y-80705566D01*
X177840779Y-80702815D01*
X177816787Y-80697688D01*
X177793413Y-80690234D01*
X177770882Y-80680525D01*
X177749411Y-80668654D01*
X177729208Y-80654736D01*
X177710465Y-80638905D01*
X177052245Y-80025105D01*
X177035145Y-80007512D01*
X177019851Y-79988329D01*
X177006512Y-79967739D01*
X176995255Y-79945940D01*
X176986188Y-79923143D01*
X176979400Y-79899567D01*
X176974956Y-79875439D01*
X176972897Y-79850992D01*
X176973245Y-79826461D01*
X176975996Y-79802082D01*
X176981123Y-79778089D01*
X176988577Y-79754716D01*
X176998286Y-79732185D01*
X177010157Y-79710714D01*
X177024075Y-79690510D01*
X177039906Y-79671768D01*
X177483206Y-79196386D01*
X177500798Y-79179286D01*
X177519982Y-79163992D01*
X177540572Y-79150653D01*
X177562371Y-79139396D01*
X177585168Y-79130329D01*
X177608744Y-79123541D01*
X177632872Y-79119097D01*
X177657319Y-79117038D01*
X177681850Y-79117386D01*
X177681850Y-79117386D01*
G37*
D13*
X177773504Y-79911476D03*
D12*
G36*
X179159832Y-120164821D02*
G01*
X179183960Y-120169265D01*
X179207536Y-120176053D01*
X179230333Y-120185120D01*
X179252132Y-120196377D01*
X179272722Y-120209716D01*
X179291905Y-120225010D01*
X179309498Y-120242110D01*
X179752798Y-120717492D01*
X179768629Y-120736235D01*
X179782547Y-120756438D01*
X179794418Y-120777909D01*
X179804127Y-120800440D01*
X179811581Y-120823814D01*
X179816708Y-120847806D01*
X179819459Y-120872185D01*
X179819807Y-120896716D01*
X179817748Y-120921163D01*
X179813304Y-120945291D01*
X179806516Y-120968867D01*
X179797449Y-120991664D01*
X179786192Y-121013463D01*
X179772853Y-121034053D01*
X179757559Y-121053237D01*
X179740459Y-121070829D01*
X179082239Y-121684629D01*
X179063497Y-121700460D01*
X179043293Y-121714378D01*
X179021822Y-121726249D01*
X178999291Y-121735958D01*
X178975918Y-121743412D01*
X178951925Y-121748539D01*
X178927546Y-121751290D01*
X178903015Y-121751638D01*
X178878568Y-121749579D01*
X178854440Y-121745135D01*
X178830864Y-121738347D01*
X178808067Y-121729280D01*
X178786268Y-121718023D01*
X178765678Y-121704684D01*
X178746495Y-121689390D01*
X178728902Y-121672290D01*
X178285602Y-121196908D01*
X178269771Y-121178165D01*
X178255853Y-121157962D01*
X178243982Y-121136491D01*
X178234273Y-121113960D01*
X178226819Y-121090586D01*
X178221692Y-121066594D01*
X178218941Y-121042215D01*
X178218593Y-121017684D01*
X178220652Y-120993237D01*
X178225096Y-120969109D01*
X178231884Y-120945533D01*
X178240951Y-120922736D01*
X178252208Y-120900937D01*
X178265547Y-120880347D01*
X178280841Y-120861163D01*
X178297941Y-120843571D01*
X178956161Y-120229771D01*
X178974903Y-120213940D01*
X178995107Y-120200022D01*
X179016578Y-120188151D01*
X179039109Y-120178442D01*
X179062482Y-120170988D01*
X179086475Y-120165861D01*
X179110854Y-120163110D01*
X179135385Y-120162762D01*
X179159832Y-120164821D01*
X179159832Y-120164821D01*
G37*
D13*
X179019200Y-120957200D03*
D12*
G36*
X177761736Y-118665545D02*
G01*
X177785864Y-118669989D01*
X177809440Y-118676777D01*
X177832237Y-118685844D01*
X177854036Y-118697101D01*
X177874626Y-118710440D01*
X177893809Y-118725734D01*
X177911402Y-118742834D01*
X178354702Y-119218216D01*
X178370533Y-119236959D01*
X178384451Y-119257162D01*
X178396322Y-119278633D01*
X178406031Y-119301164D01*
X178413485Y-119324538D01*
X178418612Y-119348530D01*
X178421363Y-119372909D01*
X178421711Y-119397440D01*
X178419652Y-119421887D01*
X178415208Y-119446015D01*
X178408420Y-119469591D01*
X178399353Y-119492388D01*
X178388096Y-119514187D01*
X178374757Y-119534777D01*
X178359463Y-119553961D01*
X178342363Y-119571553D01*
X177684143Y-120185353D01*
X177665401Y-120201184D01*
X177645197Y-120215102D01*
X177623726Y-120226973D01*
X177601195Y-120236682D01*
X177577822Y-120244136D01*
X177553829Y-120249263D01*
X177529450Y-120252014D01*
X177504919Y-120252362D01*
X177480472Y-120250303D01*
X177456344Y-120245859D01*
X177432768Y-120239071D01*
X177409971Y-120230004D01*
X177388172Y-120218747D01*
X177367582Y-120205408D01*
X177348399Y-120190114D01*
X177330806Y-120173014D01*
X176887506Y-119697632D01*
X176871675Y-119678889D01*
X176857757Y-119658686D01*
X176845886Y-119637215D01*
X176836177Y-119614684D01*
X176828723Y-119591310D01*
X176823596Y-119567318D01*
X176820845Y-119542939D01*
X176820497Y-119518408D01*
X176822556Y-119493961D01*
X176827000Y-119469833D01*
X176833788Y-119446257D01*
X176842855Y-119423460D01*
X176854112Y-119401661D01*
X176867451Y-119381071D01*
X176882745Y-119361887D01*
X176899845Y-119344295D01*
X177558065Y-118730495D01*
X177576807Y-118714664D01*
X177597011Y-118700746D01*
X177618482Y-118688875D01*
X177641013Y-118679166D01*
X177664386Y-118671712D01*
X177688379Y-118666585D01*
X177712758Y-118663834D01*
X177737289Y-118663486D01*
X177761736Y-118665545D01*
X177761736Y-118665545D01*
G37*
D13*
X177621104Y-119457924D03*
D14*
X159602940Y-115968560D03*
X159602940Y-118508560D03*
X162322940Y-118508560D03*
X162402940Y-115968560D03*
X162400000Y-83270000D03*
X162400000Y-80730000D03*
X159680000Y-80730000D03*
X159600000Y-83270000D03*
D10*
X177810000Y-109620000D03*
X177810000Y-89620000D03*
X100340000Y-106215000D03*
X100340000Y-93025000D03*
D11*
X143510000Y-90730000D03*
X143510000Y-93270000D03*
X143510000Y-95810000D03*
X143510000Y-98350000D03*
X143510000Y-100890000D03*
X143510000Y-103430000D03*
X143510000Y-105970000D03*
X128270000Y-108510000D03*
X128270000Y-105970000D03*
X128270000Y-103430000D03*
X128270000Y-100890000D03*
X128270000Y-98350000D03*
X128270000Y-95810000D03*
X128270000Y-93270000D03*
X143510000Y-108510000D03*
X128270000Y-90730000D03*
D10*
X125710000Y-115550000D03*
X107710000Y-115550000D03*
D11*
X120710000Y-101340000D03*
X112710000Y-101340000D03*
D10*
X107710000Y-83690000D03*
X125710000Y-83690000D03*
D11*
X112710000Y-97900000D03*
X120710000Y-97900000D03*
D15*
X107000000Y-93620000D03*
D16*
X156310000Y-134710000D03*
X156310000Y-137910000D03*
X151410000Y-134710000D03*
X151410000Y-137910000D03*
X101510000Y-122710000D03*
X101510000Y-125910000D03*
X96610000Y-122710000D03*
X96610000Y-125910000D03*
X101510000Y-73330000D03*
X101510000Y-76530000D03*
X96610000Y-73330000D03*
X96610000Y-76530000D03*
X151230000Y-64530000D03*
X151230000Y-61330000D03*
X156130000Y-64530000D03*
X156130000Y-61330000D03*
D12*
G36*
X100434505Y-119801204D02*
G01*
X100458773Y-119804804D01*
X100482572Y-119810765D01*
X100505671Y-119819030D01*
X100527850Y-119829520D01*
X100548893Y-119842132D01*
X100568599Y-119856747D01*
X100586777Y-119873223D01*
X100603253Y-119891401D01*
X100617868Y-119911107D01*
X100630480Y-119932150D01*
X100640970Y-119954329D01*
X100649235Y-119977428D01*
X100655196Y-120001227D01*
X100658796Y-120025495D01*
X100660000Y-120049999D01*
X100660000Y-120950001D01*
X100658796Y-120974505D01*
X100655196Y-120998773D01*
X100649235Y-121022572D01*
X100640970Y-121045671D01*
X100630480Y-121067850D01*
X100617868Y-121088893D01*
X100603253Y-121108599D01*
X100586777Y-121126777D01*
X100568599Y-121143253D01*
X100548893Y-121157868D01*
X100527850Y-121170480D01*
X100505671Y-121180970D01*
X100482572Y-121189235D01*
X100458773Y-121195196D01*
X100434505Y-121198796D01*
X100410001Y-121200000D01*
X99759999Y-121200000D01*
X99735495Y-121198796D01*
X99711227Y-121195196D01*
X99687428Y-121189235D01*
X99664329Y-121180970D01*
X99642150Y-121170480D01*
X99621107Y-121157868D01*
X99601401Y-121143253D01*
X99583223Y-121126777D01*
X99566747Y-121108599D01*
X99552132Y-121088893D01*
X99539520Y-121067850D01*
X99529030Y-121045671D01*
X99520765Y-121022572D01*
X99514804Y-120998773D01*
X99511204Y-120974505D01*
X99510000Y-120950001D01*
X99510000Y-120049999D01*
X99511204Y-120025495D01*
X99514804Y-120001227D01*
X99520765Y-119977428D01*
X99529030Y-119954329D01*
X99539520Y-119932150D01*
X99552132Y-119911107D01*
X99566747Y-119891401D01*
X99583223Y-119873223D01*
X99601401Y-119856747D01*
X99621107Y-119842132D01*
X99642150Y-119829520D01*
X99664329Y-119819030D01*
X99687428Y-119810765D01*
X99711227Y-119804804D01*
X99735495Y-119801204D01*
X99759999Y-119800000D01*
X100410001Y-119800000D01*
X100434505Y-119801204D01*
X100434505Y-119801204D01*
G37*
D13*
X100085000Y-120500000D03*
D12*
G36*
X98384505Y-119801204D02*
G01*
X98408773Y-119804804D01*
X98432572Y-119810765D01*
X98455671Y-119819030D01*
X98477850Y-119829520D01*
X98498893Y-119842132D01*
X98518599Y-119856747D01*
X98536777Y-119873223D01*
X98553253Y-119891401D01*
X98567868Y-119911107D01*
X98580480Y-119932150D01*
X98590970Y-119954329D01*
X98599235Y-119977428D01*
X98605196Y-120001227D01*
X98608796Y-120025495D01*
X98610000Y-120049999D01*
X98610000Y-120950001D01*
X98608796Y-120974505D01*
X98605196Y-120998773D01*
X98599235Y-121022572D01*
X98590970Y-121045671D01*
X98580480Y-121067850D01*
X98567868Y-121088893D01*
X98553253Y-121108599D01*
X98536777Y-121126777D01*
X98518599Y-121143253D01*
X98498893Y-121157868D01*
X98477850Y-121170480D01*
X98455671Y-121180970D01*
X98432572Y-121189235D01*
X98408773Y-121195196D01*
X98384505Y-121198796D01*
X98360001Y-121200000D01*
X97709999Y-121200000D01*
X97685495Y-121198796D01*
X97661227Y-121195196D01*
X97637428Y-121189235D01*
X97614329Y-121180970D01*
X97592150Y-121170480D01*
X97571107Y-121157868D01*
X97551401Y-121143253D01*
X97533223Y-121126777D01*
X97516747Y-121108599D01*
X97502132Y-121088893D01*
X97489520Y-121067850D01*
X97479030Y-121045671D01*
X97470765Y-121022572D01*
X97464804Y-120998773D01*
X97461204Y-120974505D01*
X97460000Y-120950001D01*
X97460000Y-120049999D01*
X97461204Y-120025495D01*
X97464804Y-120001227D01*
X97470765Y-119977428D01*
X97479030Y-119954329D01*
X97489520Y-119932150D01*
X97502132Y-119911107D01*
X97516747Y-119891401D01*
X97533223Y-119873223D01*
X97551401Y-119856747D01*
X97571107Y-119842132D01*
X97592150Y-119829520D01*
X97614329Y-119819030D01*
X97637428Y-119810765D01*
X97661227Y-119804804D01*
X97685495Y-119801204D01*
X97709999Y-119800000D01*
X98360001Y-119800000D01*
X98384505Y-119801204D01*
X98384505Y-119801204D01*
G37*
D13*
X98035000Y-120500000D03*
D12*
G36*
X98384505Y-78041204D02*
G01*
X98408773Y-78044804D01*
X98432572Y-78050765D01*
X98455671Y-78059030D01*
X98477850Y-78069520D01*
X98498893Y-78082132D01*
X98518599Y-78096747D01*
X98536777Y-78113223D01*
X98553253Y-78131401D01*
X98567868Y-78151107D01*
X98580480Y-78172150D01*
X98590970Y-78194329D01*
X98599235Y-78217428D01*
X98605196Y-78241227D01*
X98608796Y-78265495D01*
X98610000Y-78289999D01*
X98610000Y-79190001D01*
X98608796Y-79214505D01*
X98605196Y-79238773D01*
X98599235Y-79262572D01*
X98590970Y-79285671D01*
X98580480Y-79307850D01*
X98567868Y-79328893D01*
X98553253Y-79348599D01*
X98536777Y-79366777D01*
X98518599Y-79383253D01*
X98498893Y-79397868D01*
X98477850Y-79410480D01*
X98455671Y-79420970D01*
X98432572Y-79429235D01*
X98408773Y-79435196D01*
X98384505Y-79438796D01*
X98360001Y-79440000D01*
X97709999Y-79440000D01*
X97685495Y-79438796D01*
X97661227Y-79435196D01*
X97637428Y-79429235D01*
X97614329Y-79420970D01*
X97592150Y-79410480D01*
X97571107Y-79397868D01*
X97551401Y-79383253D01*
X97533223Y-79366777D01*
X97516747Y-79348599D01*
X97502132Y-79328893D01*
X97489520Y-79307850D01*
X97479030Y-79285671D01*
X97470765Y-79262572D01*
X97464804Y-79238773D01*
X97461204Y-79214505D01*
X97460000Y-79190001D01*
X97460000Y-78289999D01*
X97461204Y-78265495D01*
X97464804Y-78241227D01*
X97470765Y-78217428D01*
X97479030Y-78194329D01*
X97489520Y-78172150D01*
X97502132Y-78151107D01*
X97516747Y-78131401D01*
X97533223Y-78113223D01*
X97551401Y-78096747D01*
X97571107Y-78082132D01*
X97592150Y-78069520D01*
X97614329Y-78059030D01*
X97637428Y-78050765D01*
X97661227Y-78044804D01*
X97685495Y-78041204D01*
X97709999Y-78040000D01*
X98360001Y-78040000D01*
X98384505Y-78041204D01*
X98384505Y-78041204D01*
G37*
D13*
X98035000Y-78740000D03*
D12*
G36*
X100434505Y-78041204D02*
G01*
X100458773Y-78044804D01*
X100482572Y-78050765D01*
X100505671Y-78059030D01*
X100527850Y-78069520D01*
X100548893Y-78082132D01*
X100568599Y-78096747D01*
X100586777Y-78113223D01*
X100603253Y-78131401D01*
X100617868Y-78151107D01*
X100630480Y-78172150D01*
X100640970Y-78194329D01*
X100649235Y-78217428D01*
X100655196Y-78241227D01*
X100658796Y-78265495D01*
X100660000Y-78289999D01*
X100660000Y-79190001D01*
X100658796Y-79214505D01*
X100655196Y-79238773D01*
X100649235Y-79262572D01*
X100640970Y-79285671D01*
X100630480Y-79307850D01*
X100617868Y-79328893D01*
X100603253Y-79348599D01*
X100586777Y-79366777D01*
X100568599Y-79383253D01*
X100548893Y-79397868D01*
X100527850Y-79410480D01*
X100505671Y-79420970D01*
X100482572Y-79429235D01*
X100458773Y-79435196D01*
X100434505Y-79438796D01*
X100410001Y-79440000D01*
X99759999Y-79440000D01*
X99735495Y-79438796D01*
X99711227Y-79435196D01*
X99687428Y-79429235D01*
X99664329Y-79420970D01*
X99642150Y-79410480D01*
X99621107Y-79397868D01*
X99601401Y-79383253D01*
X99583223Y-79366777D01*
X99566747Y-79348599D01*
X99552132Y-79328893D01*
X99539520Y-79307850D01*
X99529030Y-79285671D01*
X99520765Y-79262572D01*
X99514804Y-79238773D01*
X99511204Y-79214505D01*
X99510000Y-79190001D01*
X99510000Y-78289999D01*
X99511204Y-78265495D01*
X99514804Y-78241227D01*
X99520765Y-78217428D01*
X99529030Y-78194329D01*
X99539520Y-78172150D01*
X99552132Y-78151107D01*
X99566747Y-78131401D01*
X99583223Y-78113223D01*
X99601401Y-78096747D01*
X99621107Y-78082132D01*
X99642150Y-78069520D01*
X99664329Y-78059030D01*
X99687428Y-78050765D01*
X99711227Y-78044804D01*
X99735495Y-78041204D01*
X99759999Y-78040000D01*
X100410001Y-78040000D01*
X100434505Y-78041204D01*
X100434505Y-78041204D01*
G37*
D13*
X100085000Y-78740000D03*
D12*
G36*
X155054505Y-131801204D02*
G01*
X155078773Y-131804804D01*
X155102572Y-131810765D01*
X155125671Y-131819030D01*
X155147850Y-131829520D01*
X155168893Y-131842132D01*
X155188599Y-131856747D01*
X155206777Y-131873223D01*
X155223253Y-131891401D01*
X155237868Y-131911107D01*
X155250480Y-131932150D01*
X155260970Y-131954329D01*
X155269235Y-131977428D01*
X155275196Y-132001227D01*
X155278796Y-132025495D01*
X155280000Y-132049999D01*
X155280000Y-132950001D01*
X155278796Y-132974505D01*
X155275196Y-132998773D01*
X155269235Y-133022572D01*
X155260970Y-133045671D01*
X155250480Y-133067850D01*
X155237868Y-133088893D01*
X155223253Y-133108599D01*
X155206777Y-133126777D01*
X155188599Y-133143253D01*
X155168893Y-133157868D01*
X155147850Y-133170480D01*
X155125671Y-133180970D01*
X155102572Y-133189235D01*
X155078773Y-133195196D01*
X155054505Y-133198796D01*
X155030001Y-133200000D01*
X154379999Y-133200000D01*
X154355495Y-133198796D01*
X154331227Y-133195196D01*
X154307428Y-133189235D01*
X154284329Y-133180970D01*
X154262150Y-133170480D01*
X154241107Y-133157868D01*
X154221401Y-133143253D01*
X154203223Y-133126777D01*
X154186747Y-133108599D01*
X154172132Y-133088893D01*
X154159520Y-133067850D01*
X154149030Y-133045671D01*
X154140765Y-133022572D01*
X154134804Y-132998773D01*
X154131204Y-132974505D01*
X154130000Y-132950001D01*
X154130000Y-132049999D01*
X154131204Y-132025495D01*
X154134804Y-132001227D01*
X154140765Y-131977428D01*
X154149030Y-131954329D01*
X154159520Y-131932150D01*
X154172132Y-131911107D01*
X154186747Y-131891401D01*
X154203223Y-131873223D01*
X154221401Y-131856747D01*
X154241107Y-131842132D01*
X154262150Y-131829520D01*
X154284329Y-131819030D01*
X154307428Y-131810765D01*
X154331227Y-131804804D01*
X154355495Y-131801204D01*
X154379999Y-131800000D01*
X155030001Y-131800000D01*
X155054505Y-131801204D01*
X155054505Y-131801204D01*
G37*
D13*
X154705000Y-132500000D03*
D12*
G36*
X153004505Y-131801204D02*
G01*
X153028773Y-131804804D01*
X153052572Y-131810765D01*
X153075671Y-131819030D01*
X153097850Y-131829520D01*
X153118893Y-131842132D01*
X153138599Y-131856747D01*
X153156777Y-131873223D01*
X153173253Y-131891401D01*
X153187868Y-131911107D01*
X153200480Y-131932150D01*
X153210970Y-131954329D01*
X153219235Y-131977428D01*
X153225196Y-132001227D01*
X153228796Y-132025495D01*
X153230000Y-132049999D01*
X153230000Y-132950001D01*
X153228796Y-132974505D01*
X153225196Y-132998773D01*
X153219235Y-133022572D01*
X153210970Y-133045671D01*
X153200480Y-133067850D01*
X153187868Y-133088893D01*
X153173253Y-133108599D01*
X153156777Y-133126777D01*
X153138599Y-133143253D01*
X153118893Y-133157868D01*
X153097850Y-133170480D01*
X153075671Y-133180970D01*
X153052572Y-133189235D01*
X153028773Y-133195196D01*
X153004505Y-133198796D01*
X152980001Y-133200000D01*
X152329999Y-133200000D01*
X152305495Y-133198796D01*
X152281227Y-133195196D01*
X152257428Y-133189235D01*
X152234329Y-133180970D01*
X152212150Y-133170480D01*
X152191107Y-133157868D01*
X152171401Y-133143253D01*
X152153223Y-133126777D01*
X152136747Y-133108599D01*
X152122132Y-133088893D01*
X152109520Y-133067850D01*
X152099030Y-133045671D01*
X152090765Y-133022572D01*
X152084804Y-132998773D01*
X152081204Y-132974505D01*
X152080000Y-132950001D01*
X152080000Y-132049999D01*
X152081204Y-132025495D01*
X152084804Y-132001227D01*
X152090765Y-131977428D01*
X152099030Y-131954329D01*
X152109520Y-131932150D01*
X152122132Y-131911107D01*
X152136747Y-131891401D01*
X152153223Y-131873223D01*
X152171401Y-131856747D01*
X152191107Y-131842132D01*
X152212150Y-131829520D01*
X152234329Y-131819030D01*
X152257428Y-131810765D01*
X152281227Y-131804804D01*
X152305495Y-131801204D01*
X152329999Y-131800000D01*
X152980001Y-131800000D01*
X153004505Y-131801204D01*
X153004505Y-131801204D01*
G37*
D13*
X152655000Y-132500000D03*
D12*
G36*
X153004505Y-66041204D02*
G01*
X153028773Y-66044804D01*
X153052572Y-66050765D01*
X153075671Y-66059030D01*
X153097850Y-66069520D01*
X153118893Y-66082132D01*
X153138599Y-66096747D01*
X153156777Y-66113223D01*
X153173253Y-66131401D01*
X153187868Y-66151107D01*
X153200480Y-66172150D01*
X153210970Y-66194329D01*
X153219235Y-66217428D01*
X153225196Y-66241227D01*
X153228796Y-66265495D01*
X153230000Y-66289999D01*
X153230000Y-67190001D01*
X153228796Y-67214505D01*
X153225196Y-67238773D01*
X153219235Y-67262572D01*
X153210970Y-67285671D01*
X153200480Y-67307850D01*
X153187868Y-67328893D01*
X153173253Y-67348599D01*
X153156777Y-67366777D01*
X153138599Y-67383253D01*
X153118893Y-67397868D01*
X153097850Y-67410480D01*
X153075671Y-67420970D01*
X153052572Y-67429235D01*
X153028773Y-67435196D01*
X153004505Y-67438796D01*
X152980001Y-67440000D01*
X152329999Y-67440000D01*
X152305495Y-67438796D01*
X152281227Y-67435196D01*
X152257428Y-67429235D01*
X152234329Y-67420970D01*
X152212150Y-67410480D01*
X152191107Y-67397868D01*
X152171401Y-67383253D01*
X152153223Y-67366777D01*
X152136747Y-67348599D01*
X152122132Y-67328893D01*
X152109520Y-67307850D01*
X152099030Y-67285671D01*
X152090765Y-67262572D01*
X152084804Y-67238773D01*
X152081204Y-67214505D01*
X152080000Y-67190001D01*
X152080000Y-66289999D01*
X152081204Y-66265495D01*
X152084804Y-66241227D01*
X152090765Y-66217428D01*
X152099030Y-66194329D01*
X152109520Y-66172150D01*
X152122132Y-66151107D01*
X152136747Y-66131401D01*
X152153223Y-66113223D01*
X152171401Y-66096747D01*
X152191107Y-66082132D01*
X152212150Y-66069520D01*
X152234329Y-66059030D01*
X152257428Y-66050765D01*
X152281227Y-66044804D01*
X152305495Y-66041204D01*
X152329999Y-66040000D01*
X152980001Y-66040000D01*
X153004505Y-66041204D01*
X153004505Y-66041204D01*
G37*
D13*
X152655000Y-66740000D03*
D12*
G36*
X155054505Y-66041204D02*
G01*
X155078773Y-66044804D01*
X155102572Y-66050765D01*
X155125671Y-66059030D01*
X155147850Y-66069520D01*
X155168893Y-66082132D01*
X155188599Y-66096747D01*
X155206777Y-66113223D01*
X155223253Y-66131401D01*
X155237868Y-66151107D01*
X155250480Y-66172150D01*
X155260970Y-66194329D01*
X155269235Y-66217428D01*
X155275196Y-66241227D01*
X155278796Y-66265495D01*
X155280000Y-66289999D01*
X155280000Y-67190001D01*
X155278796Y-67214505D01*
X155275196Y-67238773D01*
X155269235Y-67262572D01*
X155260970Y-67285671D01*
X155250480Y-67307850D01*
X155237868Y-67328893D01*
X155223253Y-67348599D01*
X155206777Y-67366777D01*
X155188599Y-67383253D01*
X155168893Y-67397868D01*
X155147850Y-67410480D01*
X155125671Y-67420970D01*
X155102572Y-67429235D01*
X155078773Y-67435196D01*
X155054505Y-67438796D01*
X155030001Y-67440000D01*
X154379999Y-67440000D01*
X154355495Y-67438796D01*
X154331227Y-67435196D01*
X154307428Y-67429235D01*
X154284329Y-67420970D01*
X154262150Y-67410480D01*
X154241107Y-67397868D01*
X154221401Y-67383253D01*
X154203223Y-67366777D01*
X154186747Y-67348599D01*
X154172132Y-67328893D01*
X154159520Y-67307850D01*
X154149030Y-67285671D01*
X154140765Y-67262572D01*
X154134804Y-67238773D01*
X154131204Y-67214505D01*
X154130000Y-67190001D01*
X154130000Y-66289999D01*
X154131204Y-66265495D01*
X154134804Y-66241227D01*
X154140765Y-66217428D01*
X154149030Y-66194329D01*
X154159520Y-66172150D01*
X154172132Y-66151107D01*
X154186747Y-66131401D01*
X154203223Y-66113223D01*
X154221401Y-66096747D01*
X154241107Y-66082132D01*
X154262150Y-66069520D01*
X154284329Y-66059030D01*
X154307428Y-66050765D01*
X154331227Y-66044804D01*
X154355495Y-66041204D01*
X154379999Y-66040000D01*
X155030001Y-66040000D01*
X155054505Y-66041204D01*
X155054505Y-66041204D01*
G37*
D13*
X154705000Y-66740000D03*
D15*
X107000000Y-105620000D03*
X107000000Y-99620000D03*
D17*
X94173000Y-74855000D03*
X96713000Y-81586000D03*
X98035000Y-104884400D03*
X98035000Y-115175000D03*
X105242200Y-75858600D03*
X176326800Y-118061600D03*
X175971200Y-81892000D03*
X167350000Y-126130000D03*
X159730000Y-95650000D03*
D18*
X154705000Y-65940000D02*
X154705000Y-66740000D01*
X154705000Y-63505000D02*
X154705000Y-65940000D01*
X156130000Y-62080000D02*
X154705000Y-63505000D01*
X156130000Y-61330000D02*
X156130000Y-62080000D01*
X96860000Y-125910000D02*
X96610000Y-125910000D01*
X98035000Y-124735000D02*
X96860000Y-125910000D01*
X98035000Y-120500000D02*
X98035000Y-124735000D01*
X99461628Y-79363372D02*
X100085000Y-78740000D01*
X99059990Y-79765010D02*
X99461628Y-79363372D01*
X97471820Y-79765010D02*
X99059990Y-79765010D01*
X96610000Y-78903190D02*
X97471820Y-79765010D01*
X96610000Y-76530000D02*
X96610000Y-78903190D01*
X151660000Y-137910000D02*
X151410000Y-137910000D01*
X152655000Y-136915000D02*
X151660000Y-137910000D01*
X152655000Y-132500000D02*
X152655000Y-136915000D01*
X148870001Y-122209999D02*
X149870000Y-121210000D01*
X148544999Y-122535001D02*
X148870001Y-122209999D01*
X148544999Y-124386001D02*
X148544999Y-122535001D01*
X152655000Y-128496002D02*
X148544999Y-124386001D01*
X152655000Y-132500000D02*
X152655000Y-128496002D01*
X106987600Y-99607600D02*
X107000000Y-99620000D01*
X103311800Y-99607600D02*
X106987600Y-99607600D01*
X98035000Y-104884400D02*
X103311800Y-99607600D01*
X126855787Y-95810000D02*
X128270000Y-95810000D01*
X109560000Y-95810000D02*
X126855787Y-95810000D01*
X107000000Y-98370000D02*
X109560000Y-95810000D01*
X107000000Y-99620000D02*
X107000000Y-98370000D01*
X154081628Y-67363372D02*
X154705000Y-66740000D01*
X138115000Y-83330000D02*
X154081628Y-67363372D01*
X138115000Y-88253500D02*
X138115000Y-83330000D01*
X130558500Y-95810000D02*
X138115000Y-88253500D01*
X128270000Y-95810000D02*
X130558500Y-95810000D01*
X94685000Y-74855000D02*
X94173000Y-74855000D01*
X96610000Y-76530000D02*
X96360000Y-76530000D01*
X96360000Y-76530000D02*
X94685000Y-74855000D01*
X97471820Y-79765010D02*
X97471820Y-80827180D01*
X97471820Y-80827180D02*
X96713000Y-81586000D01*
X98035000Y-110730000D02*
X98035000Y-104884400D01*
X98035000Y-120500000D02*
X98035000Y-115175000D01*
X98035000Y-115175000D02*
X98035000Y-110730000D01*
X169900600Y-123460600D02*
X167650000Y-121210000D01*
X169900600Y-129313800D02*
X169900600Y-123460600D01*
X165024380Y-121210000D02*
X162322940Y-118508560D01*
X167650000Y-121210000D02*
X165024380Y-121210000D01*
X162400000Y-77510632D02*
X162400000Y-80730000D01*
X169947817Y-69962815D02*
X162400000Y-77510632D01*
X151230000Y-65315000D02*
X152655000Y-66740000D01*
X151230000Y-64530000D02*
X151230000Y-65315000D01*
X98035000Y-77940000D02*
X98035000Y-78740000D01*
X98035000Y-76555000D02*
X98035000Y-77940000D01*
X101260000Y-73330000D02*
X98035000Y-76555000D01*
X101510000Y-73330000D02*
X101260000Y-73330000D01*
X100085000Y-121300000D02*
X100085000Y-120500000D01*
X100085000Y-122285000D02*
X100085000Y-121300000D01*
X100510000Y-122710000D02*
X100085000Y-122285000D01*
X101510000Y-122710000D02*
X100510000Y-122710000D01*
X156310000Y-134105000D02*
X156310000Y-134710000D01*
X154705000Y-132500000D02*
X156310000Y-134105000D01*
X154705000Y-128585000D02*
X149870000Y-123750000D01*
X104288600Y-75858600D02*
X105242200Y-75858600D01*
X101510000Y-73330000D02*
X101760000Y-73330000D01*
X101760000Y-73330000D02*
X104288600Y-75858600D01*
X105750000Y-105620000D02*
X107000000Y-105620000D01*
X100085000Y-111285000D02*
X105750000Y-105620000D01*
X100085000Y-120500000D02*
X100085000Y-111285000D01*
X152655000Y-67540000D02*
X152655000Y-66740000D01*
X130464999Y-89730001D02*
X152655000Y-67540000D01*
X129269999Y-89730001D02*
X130464999Y-89730001D01*
X128270000Y-90730000D02*
X129269999Y-89730001D01*
X176326800Y-118163620D02*
X177621104Y-119457924D01*
X176326800Y-118061600D02*
X176326800Y-118163620D01*
X177773504Y-80089696D02*
X177773504Y-79911476D01*
X175971200Y-81892000D02*
X177773504Y-80089696D01*
X164755000Y-128725000D02*
X167350000Y-126130000D01*
X154705000Y-128725000D02*
X164755000Y-128725000D01*
X154705000Y-128725000D02*
X154705000Y-128585000D01*
X154705000Y-132500000D02*
X154705000Y-128725000D01*
X156130000Y-84290000D02*
X156130000Y-64530000D01*
X167650000Y-95810000D02*
X156130000Y-84290000D01*
X98435001Y-72504999D02*
X97610000Y-73330000D01*
X97610000Y-73330000D02*
X96610000Y-73330000D01*
X146439989Y-72504999D02*
X98435001Y-72504999D01*
X147680010Y-65629990D02*
X147680010Y-71264978D01*
X147680010Y-71264978D02*
X146439989Y-72504999D01*
X151230000Y-62080000D02*
X147680010Y-65629990D01*
X151230000Y-61330000D02*
X151230000Y-62080000D01*
X101510000Y-77280000D02*
X101510000Y-76530000D01*
X101510000Y-78903190D02*
X101510000Y-77280000D01*
X96610000Y-83803190D02*
X101510000Y-78903190D01*
X96610000Y-122710000D02*
X96610000Y-83803190D01*
X151410000Y-133960000D02*
X151410000Y-134710000D01*
X151410000Y-131705012D02*
X151410000Y-133960000D01*
X145614988Y-125910000D02*
X151410000Y-131705012D01*
X101510000Y-125910000D02*
X145614988Y-125910000D01*
X120710000Y-98410000D02*
X120710000Y-97900000D01*
X128270000Y-105970000D02*
X120710000Y-98410000D01*
X127270001Y-102430001D02*
X128270000Y-103430000D01*
X121414999Y-96574999D02*
X127270001Y-102430001D01*
X120073999Y-96574999D02*
X121414999Y-96574999D01*
X118748998Y-97900000D02*
X120073999Y-96574999D01*
X112710000Y-97900000D02*
X118748998Y-97900000D01*
X159730000Y-100590000D02*
X167650000Y-108510000D01*
X159730000Y-95650000D02*
X159730000Y-100590000D01*
X181574574Y-118401826D02*
X181602259Y-118401826D01*
X179019200Y-120957200D02*
X181574574Y-118401826D01*
X181602259Y-118401826D02*
X174345600Y-111145167D01*
X174345600Y-107585600D02*
X167650000Y-100890000D01*
X174345600Y-111145167D02*
X174345600Y-107585600D01*
X181634189Y-80874789D02*
X181649476Y-80874789D01*
X179171600Y-78412200D02*
X181634189Y-80874789D01*
X180182149Y-80874789D02*
X174040800Y-87016138D01*
X181649476Y-80874789D02*
X180182149Y-80874789D01*
X174040800Y-91959200D02*
X167650000Y-98350000D01*
X174040800Y-87016138D02*
X174040800Y-91959200D01*
M02*
