G04 #@! TF.GenerationSoftware,KiCad,Pcbnew,(5.1.2)-2*
G04 #@! TF.CreationDate,2019-10-29T07:50:02+01:00*
G04 #@! TF.ProjectId,Alphabot2.0,416c7068-6162-46f7-9432-2e302e6b6963,1.0*
G04 #@! TF.SameCoordinates,Original*
G04 #@! TF.FileFunction,Soldermask,Bot*
G04 #@! TF.FilePolarity,Negative*
%FSLAX46Y46*%
G04 Gerber Fmt 4.6, Leading zero omitted, Abs format (unit mm)*
G04 Created by KiCad (PCBNEW (5.1.2)-2) date 2019-10-29 07:50:02*
%MOMM*%
%LPD*%
G04 APERTURE LIST*
%ADD10C,0.100000*%
G04 APERTURE END LIST*
D10*
G36*
X157111000Y-138461000D02*
G01*
X155509000Y-138461000D01*
X155509000Y-137359000D01*
X157111000Y-137359000D01*
X157111000Y-138461000D01*
X157111000Y-138461000D01*
G37*
G36*
X152211000Y-138461000D02*
G01*
X150609000Y-138461000D01*
X150609000Y-137359000D01*
X152211000Y-137359000D01*
X152211000Y-138461000D01*
X152211000Y-138461000D01*
G37*
G36*
X157111000Y-135261000D02*
G01*
X155509000Y-135261000D01*
X155509000Y-134159000D01*
X157111000Y-134159000D01*
X157111000Y-135261000D01*
X157111000Y-135261000D01*
G37*
G36*
X152211000Y-135261000D02*
G01*
X150609000Y-135261000D01*
X150609000Y-134159000D01*
X152211000Y-134159000D01*
X152211000Y-135261000D01*
X152211000Y-135261000D01*
G37*
G36*
X155168674Y-131753465D02*
G01*
X155206367Y-131764899D01*
X155241103Y-131783466D01*
X155271548Y-131808452D01*
X155296534Y-131838897D01*
X155315101Y-131873633D01*
X155326535Y-131911326D01*
X155331000Y-131956661D01*
X155331000Y-133043339D01*
X155326535Y-133088674D01*
X155315101Y-133126367D01*
X155296534Y-133161103D01*
X155271548Y-133191548D01*
X155241103Y-133216534D01*
X155206367Y-133235101D01*
X155168674Y-133246535D01*
X155123339Y-133251000D01*
X154286661Y-133251000D01*
X154241326Y-133246535D01*
X154203633Y-133235101D01*
X154168897Y-133216534D01*
X154138452Y-133191548D01*
X154113466Y-133161103D01*
X154094899Y-133126367D01*
X154083465Y-133088674D01*
X154079000Y-133043339D01*
X154079000Y-131956661D01*
X154083465Y-131911326D01*
X154094899Y-131873633D01*
X154113466Y-131838897D01*
X154138452Y-131808452D01*
X154168897Y-131783466D01*
X154203633Y-131764899D01*
X154241326Y-131753465D01*
X154286661Y-131749000D01*
X155123339Y-131749000D01*
X155168674Y-131753465D01*
X155168674Y-131753465D01*
G37*
G36*
X153118674Y-131753465D02*
G01*
X153156367Y-131764899D01*
X153191103Y-131783466D01*
X153221548Y-131808452D01*
X153246534Y-131838897D01*
X153265101Y-131873633D01*
X153276535Y-131911326D01*
X153281000Y-131956661D01*
X153281000Y-133043339D01*
X153276535Y-133088674D01*
X153265101Y-133126367D01*
X153246534Y-133161103D01*
X153221548Y-133191548D01*
X153191103Y-133216534D01*
X153156367Y-133235101D01*
X153118674Y-133246535D01*
X153073339Y-133251000D01*
X152236661Y-133251000D01*
X152191326Y-133246535D01*
X152153633Y-133235101D01*
X152118897Y-133216534D01*
X152088452Y-133191548D01*
X152063466Y-133161103D01*
X152044899Y-133126367D01*
X152033465Y-133088674D01*
X152029000Y-133043339D01*
X152029000Y-131956661D01*
X152033465Y-131911326D01*
X152044899Y-131873633D01*
X152063466Y-131838897D01*
X152088452Y-131808452D01*
X152118897Y-131783466D01*
X152153633Y-131764899D01*
X152191326Y-131753465D01*
X152236661Y-131749000D01*
X153073339Y-131749000D01*
X153118674Y-131753465D01*
X153118674Y-131753465D01*
G37*
G36*
X172409031Y-130462703D02*
G01*
X170871725Y-131896264D01*
X167392169Y-128164897D01*
X168929475Y-126731336D01*
X172409031Y-130462703D01*
X172409031Y-130462703D01*
G37*
G36*
X102311000Y-126461000D02*
G01*
X100709000Y-126461000D01*
X100709000Y-125359000D01*
X102311000Y-125359000D01*
X102311000Y-126461000D01*
X102311000Y-126461000D01*
G37*
G36*
X97411000Y-126461000D02*
G01*
X95809000Y-126461000D01*
X95809000Y-125359000D01*
X97411000Y-125359000D01*
X97411000Y-126461000D01*
X97411000Y-126461000D01*
G37*
G36*
X178991214Y-124324718D02*
G01*
X177453908Y-125758279D01*
X173974352Y-122026912D01*
X175511658Y-120593351D01*
X178991214Y-124324718D01*
X178991214Y-124324718D01*
G37*
G36*
X108769903Y-122417075D02*
G01*
X108997571Y-122511378D01*
X109202466Y-122648285D01*
X109376715Y-122822534D01*
X109513622Y-123027429D01*
X109513623Y-123027431D01*
X109607925Y-123255097D01*
X109656000Y-123496786D01*
X109656000Y-123743214D01*
X109607925Y-123984903D01*
X109513622Y-124212571D01*
X109376715Y-124417466D01*
X109202466Y-124591715D01*
X108997571Y-124728622D01*
X108997570Y-124728623D01*
X108997569Y-124728623D01*
X108769903Y-124822925D01*
X108528214Y-124871000D01*
X108281786Y-124871000D01*
X108040097Y-124822925D01*
X107812431Y-124728623D01*
X107812430Y-124728623D01*
X107812429Y-124728622D01*
X107607534Y-124591715D01*
X107433285Y-124417466D01*
X107296378Y-124212571D01*
X107202075Y-123984903D01*
X107154000Y-123743214D01*
X107154000Y-123496786D01*
X107202075Y-123255097D01*
X107296377Y-123027431D01*
X107296378Y-123027429D01*
X107433285Y-122822534D01*
X107607534Y-122648285D01*
X107812429Y-122511378D01*
X108040097Y-122417075D01*
X108281786Y-122369000D01*
X108528214Y-122369000D01*
X108769903Y-122417075D01*
X108769903Y-122417075D01*
G37*
G36*
X167956564Y-122739389D02*
G01*
X168147833Y-122818615D01*
X168147835Y-122818616D01*
X168319973Y-122933635D01*
X168466365Y-123080027D01*
X168581385Y-123252167D01*
X168660611Y-123443436D01*
X168701000Y-123646484D01*
X168701000Y-123853516D01*
X168660611Y-124056564D01*
X168595992Y-124212569D01*
X168581384Y-124247835D01*
X168466365Y-124419973D01*
X168319973Y-124566365D01*
X168147835Y-124681384D01*
X168147834Y-124681385D01*
X168147833Y-124681385D01*
X167956564Y-124760611D01*
X167753516Y-124801000D01*
X167546484Y-124801000D01*
X167343436Y-124760611D01*
X167152167Y-124681385D01*
X167152166Y-124681385D01*
X167152165Y-124681384D01*
X166980027Y-124566365D01*
X166833635Y-124419973D01*
X166718616Y-124247835D01*
X166704008Y-124212569D01*
X166639389Y-124056564D01*
X166599000Y-123853516D01*
X166599000Y-123646484D01*
X166639389Y-123443436D01*
X166718615Y-123252167D01*
X166833635Y-123080027D01*
X166980027Y-122933635D01*
X167152165Y-122818616D01*
X167152167Y-122818615D01*
X167343436Y-122739389D01*
X167546484Y-122699000D01*
X167753516Y-122699000D01*
X167956564Y-122739389D01*
X167956564Y-122739389D01*
G37*
G36*
X150176564Y-122739389D02*
G01*
X150367833Y-122818615D01*
X150367835Y-122818616D01*
X150539973Y-122933635D01*
X150686365Y-123080027D01*
X150801385Y-123252167D01*
X150880611Y-123443436D01*
X150921000Y-123646484D01*
X150921000Y-123853516D01*
X150880611Y-124056564D01*
X150815992Y-124212569D01*
X150801384Y-124247835D01*
X150686365Y-124419973D01*
X150539973Y-124566365D01*
X150367835Y-124681384D01*
X150367834Y-124681385D01*
X150367833Y-124681385D01*
X150176564Y-124760611D01*
X149973516Y-124801000D01*
X149766484Y-124801000D01*
X149563436Y-124760611D01*
X149372167Y-124681385D01*
X149372166Y-124681385D01*
X149372165Y-124681384D01*
X149200027Y-124566365D01*
X149053635Y-124419973D01*
X148938616Y-124247835D01*
X148924008Y-124212569D01*
X148859389Y-124056564D01*
X148819000Y-123853516D01*
X148819000Y-123646484D01*
X148859389Y-123443436D01*
X148938615Y-123252167D01*
X149053635Y-123080027D01*
X149200027Y-122933635D01*
X149372165Y-122818616D01*
X149372167Y-122818615D01*
X149563436Y-122739389D01*
X149766484Y-122699000D01*
X149973516Y-122699000D01*
X150176564Y-122739389D01*
X150176564Y-122739389D01*
G37*
G36*
X102311000Y-123261000D02*
G01*
X100709000Y-123261000D01*
X100709000Y-122159000D01*
X102311000Y-122159000D01*
X102311000Y-123261000D01*
X102311000Y-123261000D01*
G37*
G36*
X97411000Y-123261000D02*
G01*
X95809000Y-123261000D01*
X95809000Y-122159000D01*
X97411000Y-122159000D01*
X97411000Y-123261000D01*
X97411000Y-123261000D01*
G37*
G36*
X150176564Y-120199389D02*
G01*
X150361657Y-120276057D01*
X150367835Y-120278616D01*
X150539973Y-120393635D01*
X150686365Y-120540027D01*
X150795789Y-120703791D01*
X150801385Y-120712167D01*
X150880611Y-120903436D01*
X150921000Y-121106484D01*
X150921000Y-121313516D01*
X150880611Y-121516564D01*
X150801385Y-121707833D01*
X150801384Y-121707835D01*
X150686365Y-121879973D01*
X150539973Y-122026365D01*
X150367835Y-122141384D01*
X150367834Y-122141385D01*
X150367833Y-122141385D01*
X150176564Y-122220611D01*
X149973516Y-122261000D01*
X149766484Y-122261000D01*
X149563436Y-122220611D01*
X149372167Y-122141385D01*
X149372166Y-122141385D01*
X149372165Y-122141384D01*
X149200027Y-122026365D01*
X149053635Y-121879973D01*
X148938616Y-121707835D01*
X148938615Y-121707833D01*
X148859389Y-121516564D01*
X148819000Y-121313516D01*
X148819000Y-121106484D01*
X148859389Y-120903436D01*
X148938615Y-120712167D01*
X148944212Y-120703791D01*
X149053635Y-120540027D01*
X149200027Y-120393635D01*
X149372165Y-120278616D01*
X149378343Y-120276057D01*
X149563436Y-120199389D01*
X149766484Y-120159000D01*
X149973516Y-120159000D01*
X150176564Y-120199389D01*
X150176564Y-120199389D01*
G37*
G36*
X167956564Y-120199389D02*
G01*
X168141657Y-120276057D01*
X168147835Y-120278616D01*
X168319973Y-120393635D01*
X168466365Y-120540027D01*
X168575789Y-120703791D01*
X168581385Y-120712167D01*
X168660611Y-120903436D01*
X168701000Y-121106484D01*
X168701000Y-121313516D01*
X168660611Y-121516564D01*
X168581385Y-121707833D01*
X168581384Y-121707835D01*
X168466365Y-121879973D01*
X168319973Y-122026365D01*
X168147835Y-122141384D01*
X168147834Y-122141385D01*
X168147833Y-122141385D01*
X167956564Y-122220611D01*
X167753516Y-122261000D01*
X167546484Y-122261000D01*
X167343436Y-122220611D01*
X167152167Y-122141385D01*
X167152166Y-122141385D01*
X167152165Y-122141384D01*
X166980027Y-122026365D01*
X166833635Y-121879973D01*
X166718616Y-121707835D01*
X166718615Y-121707833D01*
X166639389Y-121516564D01*
X166599000Y-121313516D01*
X166599000Y-121106484D01*
X166639389Y-120903436D01*
X166718615Y-120712167D01*
X166724212Y-120703791D01*
X166833635Y-120540027D01*
X166980027Y-120393635D01*
X167152165Y-120278616D01*
X167158343Y-120276057D01*
X167343436Y-120199389D01*
X167546484Y-120159000D01*
X167753516Y-120159000D01*
X167956564Y-120199389D01*
X167956564Y-120199389D01*
G37*
G36*
X179177625Y-120076445D02*
G01*
X179214885Y-120089184D01*
X179248954Y-120108953D01*
X179283142Y-120139067D01*
X179327137Y-120186246D01*
X179809756Y-120703791D01*
X179809764Y-120703801D01*
X179853754Y-120750975D01*
X179881406Y-120787176D01*
X179898749Y-120822539D01*
X179908860Y-120860606D01*
X179911351Y-120899913D01*
X179906125Y-120938952D01*
X179893382Y-120976220D01*
X179873616Y-121010286D01*
X179843503Y-121044472D01*
X179796323Y-121088468D01*
X179095940Y-121741587D01*
X179095930Y-121741595D01*
X179048756Y-121785585D01*
X179012553Y-121813239D01*
X178977195Y-121830580D01*
X178939126Y-121840691D01*
X178899818Y-121843182D01*
X178860775Y-121837955D01*
X178823515Y-121825216D01*
X178789446Y-121805447D01*
X178755258Y-121775333D01*
X178692313Y-121707833D01*
X178228644Y-121210609D01*
X178228636Y-121210599D01*
X178184646Y-121163425D01*
X178156994Y-121127224D01*
X178139651Y-121091861D01*
X178129540Y-121053794D01*
X178127049Y-121014487D01*
X178132275Y-120975448D01*
X178145018Y-120938180D01*
X178164784Y-120904114D01*
X178194897Y-120869928D01*
X178283638Y-120787176D01*
X178942460Y-120172813D01*
X178942470Y-120172805D01*
X178989644Y-120128815D01*
X179025847Y-120101161D01*
X179061205Y-120083820D01*
X179099274Y-120073709D01*
X179138582Y-120071218D01*
X179177625Y-120076445D01*
X179177625Y-120076445D01*
G37*
G36*
X100548674Y-119753465D02*
G01*
X100586367Y-119764899D01*
X100621103Y-119783466D01*
X100651548Y-119808452D01*
X100676534Y-119838897D01*
X100695101Y-119873633D01*
X100706535Y-119911326D01*
X100711000Y-119956661D01*
X100711000Y-121043339D01*
X100706535Y-121088674D01*
X100695101Y-121126367D01*
X100676534Y-121161103D01*
X100651548Y-121191548D01*
X100621103Y-121216534D01*
X100586367Y-121235101D01*
X100548674Y-121246535D01*
X100503339Y-121251000D01*
X99666661Y-121251000D01*
X99621326Y-121246535D01*
X99583633Y-121235101D01*
X99548897Y-121216534D01*
X99518452Y-121191548D01*
X99493466Y-121161103D01*
X99474899Y-121126367D01*
X99463465Y-121088674D01*
X99459000Y-121043339D01*
X99459000Y-119956661D01*
X99463465Y-119911326D01*
X99474899Y-119873633D01*
X99493466Y-119838897D01*
X99518452Y-119808452D01*
X99548897Y-119783466D01*
X99583633Y-119764899D01*
X99621326Y-119753465D01*
X99666661Y-119749000D01*
X100503339Y-119749000D01*
X100548674Y-119753465D01*
X100548674Y-119753465D01*
G37*
G36*
X98498674Y-119753465D02*
G01*
X98536367Y-119764899D01*
X98571103Y-119783466D01*
X98601548Y-119808452D01*
X98626534Y-119838897D01*
X98645101Y-119873633D01*
X98656535Y-119911326D01*
X98661000Y-119956661D01*
X98661000Y-121043339D01*
X98656535Y-121088674D01*
X98645101Y-121126367D01*
X98626534Y-121161103D01*
X98601548Y-121191548D01*
X98571103Y-121216534D01*
X98536367Y-121235101D01*
X98498674Y-121246535D01*
X98453339Y-121251000D01*
X97616661Y-121251000D01*
X97571326Y-121246535D01*
X97533633Y-121235101D01*
X97498897Y-121216534D01*
X97468452Y-121191548D01*
X97443466Y-121161103D01*
X97424899Y-121126367D01*
X97413465Y-121088674D01*
X97409000Y-121043339D01*
X97409000Y-119956661D01*
X97413465Y-119911326D01*
X97424899Y-119873633D01*
X97443466Y-119838897D01*
X97468452Y-119808452D01*
X97498897Y-119783466D01*
X97533633Y-119764899D01*
X97571326Y-119753465D01*
X97616661Y-119749000D01*
X98453339Y-119749000D01*
X98498674Y-119753465D01*
X98498674Y-119753465D01*
G37*
G36*
X184110690Y-119550729D02*
G01*
X182573384Y-120984290D01*
X179093828Y-117252923D01*
X180631134Y-115819362D01*
X184110690Y-119550729D01*
X184110690Y-119550729D01*
G37*
G36*
X177779529Y-118577169D02*
G01*
X177816789Y-118589908D01*
X177850858Y-118609677D01*
X177885046Y-118639791D01*
X177929041Y-118686970D01*
X178411660Y-119204515D01*
X178411668Y-119204525D01*
X178455658Y-119251699D01*
X178483310Y-119287900D01*
X178500653Y-119323263D01*
X178510764Y-119361330D01*
X178513255Y-119400637D01*
X178508029Y-119439676D01*
X178495286Y-119476944D01*
X178475520Y-119511010D01*
X178445407Y-119545196D01*
X178398227Y-119589192D01*
X177697844Y-120242311D01*
X177697834Y-120242319D01*
X177650660Y-120286309D01*
X177614457Y-120313963D01*
X177579099Y-120331304D01*
X177541030Y-120341415D01*
X177501722Y-120343906D01*
X177462679Y-120338679D01*
X177425419Y-120325940D01*
X177391350Y-120306171D01*
X177357162Y-120276057D01*
X177273412Y-120186246D01*
X176830548Y-119711333D01*
X176830540Y-119711323D01*
X176786550Y-119664149D01*
X176758898Y-119627948D01*
X176741555Y-119592585D01*
X176731444Y-119554518D01*
X176728953Y-119515211D01*
X176734179Y-119476172D01*
X176746922Y-119438904D01*
X176766688Y-119404838D01*
X176796801Y-119370652D01*
X176885542Y-119287900D01*
X177544364Y-118673537D01*
X177544374Y-118673529D01*
X177591548Y-118629539D01*
X177627751Y-118601885D01*
X177663109Y-118584544D01*
X177701178Y-118574433D01*
X177740486Y-118571942D01*
X177779529Y-118577169D01*
X177779529Y-118577169D01*
G37*
G36*
X167956564Y-117659389D02*
G01*
X168119316Y-117726803D01*
X168147835Y-117738616D01*
X168319973Y-117853635D01*
X168466365Y-118000027D01*
X168548840Y-118123459D01*
X168581385Y-118172167D01*
X168660611Y-118363436D01*
X168701000Y-118566484D01*
X168701000Y-118773516D01*
X168660611Y-118976564D01*
X168581385Y-119167833D01*
X168581384Y-119167835D01*
X168466365Y-119339973D01*
X168319973Y-119486365D01*
X168147835Y-119601384D01*
X168147834Y-119601385D01*
X168147833Y-119601385D01*
X167956564Y-119680611D01*
X167753516Y-119721000D01*
X167546484Y-119721000D01*
X167343436Y-119680611D01*
X167152167Y-119601385D01*
X167152166Y-119601385D01*
X167152165Y-119601384D01*
X166980027Y-119486365D01*
X166833635Y-119339973D01*
X166718616Y-119167835D01*
X166718615Y-119167833D01*
X166639389Y-118976564D01*
X166599000Y-118773516D01*
X166599000Y-118566484D01*
X166639389Y-118363436D01*
X166718615Y-118172167D01*
X166751161Y-118123459D01*
X166833635Y-118000027D01*
X166980027Y-117853635D01*
X167152165Y-117738616D01*
X167180684Y-117726803D01*
X167343436Y-117659389D01*
X167546484Y-117619000D01*
X167753516Y-117619000D01*
X167956564Y-117659389D01*
X167956564Y-117659389D01*
G37*
G36*
X150176564Y-117659389D02*
G01*
X150339316Y-117726803D01*
X150367835Y-117738616D01*
X150539973Y-117853635D01*
X150686365Y-118000027D01*
X150768840Y-118123459D01*
X150801385Y-118172167D01*
X150880611Y-118363436D01*
X150921000Y-118566484D01*
X150921000Y-118773516D01*
X150880611Y-118976564D01*
X150801385Y-119167833D01*
X150801384Y-119167835D01*
X150686365Y-119339973D01*
X150539973Y-119486365D01*
X150367835Y-119601384D01*
X150367834Y-119601385D01*
X150367833Y-119601385D01*
X150176564Y-119680611D01*
X149973516Y-119721000D01*
X149766484Y-119721000D01*
X149563436Y-119680611D01*
X149372167Y-119601385D01*
X149372166Y-119601385D01*
X149372165Y-119601384D01*
X149200027Y-119486365D01*
X149053635Y-119339973D01*
X148938616Y-119167835D01*
X148938615Y-119167833D01*
X148859389Y-118976564D01*
X148819000Y-118773516D01*
X148819000Y-118566484D01*
X148859389Y-118363436D01*
X148938615Y-118172167D01*
X148971161Y-118123459D01*
X149053635Y-118000027D01*
X149200027Y-117853635D01*
X149372165Y-117738616D01*
X149400684Y-117726803D01*
X149563436Y-117659389D01*
X149766484Y-117619000D01*
X149973516Y-117619000D01*
X150176564Y-117659389D01*
X150176564Y-117659389D01*
G37*
G36*
X162560082Y-117726802D02*
G01*
X162708041Y-117788089D01*
X162841195Y-117877059D01*
X162954441Y-117990305D01*
X163043411Y-118123459D01*
X163104698Y-118271418D01*
X163135940Y-118428485D01*
X163135940Y-118588635D01*
X163104698Y-118745702D01*
X163043411Y-118893661D01*
X162954441Y-119026815D01*
X162841195Y-119140061D01*
X162708041Y-119229031D01*
X162560082Y-119290318D01*
X162403015Y-119321560D01*
X162242865Y-119321560D01*
X162085798Y-119290318D01*
X161937839Y-119229031D01*
X161804685Y-119140061D01*
X161691439Y-119026815D01*
X161602469Y-118893661D01*
X161541182Y-118745702D01*
X161509940Y-118588635D01*
X161509940Y-118428485D01*
X161541182Y-118271418D01*
X161602469Y-118123459D01*
X161691439Y-117990305D01*
X161804685Y-117877059D01*
X161937839Y-117788089D01*
X162085798Y-117726802D01*
X162242865Y-117695560D01*
X162403015Y-117695560D01*
X162560082Y-117726802D01*
X162560082Y-117726802D01*
G37*
G36*
X159840082Y-117726802D02*
G01*
X159988041Y-117788089D01*
X160121195Y-117877059D01*
X160234441Y-117990305D01*
X160323411Y-118123459D01*
X160384698Y-118271418D01*
X160415940Y-118428485D01*
X160415940Y-118588635D01*
X160384698Y-118745702D01*
X160323411Y-118893661D01*
X160234441Y-119026815D01*
X160121195Y-119140061D01*
X159988041Y-119229031D01*
X159840082Y-119290318D01*
X159683015Y-119321560D01*
X159522865Y-119321560D01*
X159365798Y-119290318D01*
X159217839Y-119229031D01*
X159084685Y-119140061D01*
X158971439Y-119026815D01*
X158882469Y-118893661D01*
X158821182Y-118745702D01*
X158789940Y-118588635D01*
X158789940Y-118428485D01*
X158821182Y-118271418D01*
X158882469Y-118123459D01*
X158971439Y-117990305D01*
X159084685Y-117877059D01*
X159217839Y-117788089D01*
X159365798Y-117726802D01*
X159522865Y-117695560D01*
X159683015Y-117695560D01*
X159840082Y-117726802D01*
X159840082Y-117726802D01*
G37*
G36*
X167956564Y-115119389D02*
G01*
X168119316Y-115186803D01*
X168147835Y-115198616D01*
X168319973Y-115313635D01*
X168466365Y-115460027D01*
X168548840Y-115583459D01*
X168581385Y-115632167D01*
X168660611Y-115823436D01*
X168701000Y-116026484D01*
X168701000Y-116233516D01*
X168660611Y-116436564D01*
X168581385Y-116627833D01*
X168581384Y-116627835D01*
X168466365Y-116799973D01*
X168319973Y-116946365D01*
X168147835Y-117061384D01*
X168147834Y-117061385D01*
X168147833Y-117061385D01*
X167956564Y-117140611D01*
X167753516Y-117181000D01*
X167546484Y-117181000D01*
X167343436Y-117140611D01*
X167152167Y-117061385D01*
X167152166Y-117061385D01*
X167152165Y-117061384D01*
X166980027Y-116946365D01*
X166833635Y-116799973D01*
X166718616Y-116627835D01*
X166718615Y-116627833D01*
X166639389Y-116436564D01*
X166599000Y-116233516D01*
X166599000Y-116026484D01*
X166639389Y-115823436D01*
X166718615Y-115632167D01*
X166751161Y-115583459D01*
X166833635Y-115460027D01*
X166980027Y-115313635D01*
X167152165Y-115198616D01*
X167180684Y-115186803D01*
X167343436Y-115119389D01*
X167546484Y-115079000D01*
X167753516Y-115079000D01*
X167956564Y-115119389D01*
X167956564Y-115119389D01*
G37*
G36*
X150176564Y-115119389D02*
G01*
X150339316Y-115186803D01*
X150367835Y-115198616D01*
X150539973Y-115313635D01*
X150686365Y-115460027D01*
X150768840Y-115583459D01*
X150801385Y-115632167D01*
X150880611Y-115823436D01*
X150921000Y-116026484D01*
X150921000Y-116233516D01*
X150880611Y-116436564D01*
X150801385Y-116627833D01*
X150801384Y-116627835D01*
X150686365Y-116799973D01*
X150539973Y-116946365D01*
X150367835Y-117061384D01*
X150367834Y-117061385D01*
X150367833Y-117061385D01*
X150176564Y-117140611D01*
X149973516Y-117181000D01*
X149766484Y-117181000D01*
X149563436Y-117140611D01*
X149372167Y-117061385D01*
X149372166Y-117061385D01*
X149372165Y-117061384D01*
X149200027Y-116946365D01*
X149053635Y-116799973D01*
X148938616Y-116627835D01*
X148938615Y-116627833D01*
X148859389Y-116436564D01*
X148819000Y-116233516D01*
X148819000Y-116026484D01*
X148859389Y-115823436D01*
X148938615Y-115632167D01*
X148971161Y-115583459D01*
X149053635Y-115460027D01*
X149200027Y-115313635D01*
X149372165Y-115198616D01*
X149400684Y-115186803D01*
X149563436Y-115119389D01*
X149766484Y-115079000D01*
X149973516Y-115079000D01*
X150176564Y-115119389D01*
X150176564Y-115119389D01*
G37*
G36*
X108074903Y-114347075D02*
G01*
X108302571Y-114441378D01*
X108507466Y-114578285D01*
X108681715Y-114752534D01*
X108681716Y-114752536D01*
X108818623Y-114957431D01*
X108912925Y-115185097D01*
X108961000Y-115426786D01*
X108961000Y-115673214D01*
X108912925Y-115914903D01*
X108857532Y-116048635D01*
X108818622Y-116142571D01*
X108681715Y-116347466D01*
X108507466Y-116521715D01*
X108302571Y-116658622D01*
X108302570Y-116658623D01*
X108302569Y-116658623D01*
X108074903Y-116752925D01*
X107833214Y-116801000D01*
X107586786Y-116801000D01*
X107345097Y-116752925D01*
X107117431Y-116658623D01*
X107117430Y-116658623D01*
X107117429Y-116658622D01*
X106912534Y-116521715D01*
X106738285Y-116347466D01*
X106601378Y-116142571D01*
X106562469Y-116048635D01*
X106507075Y-115914903D01*
X106459000Y-115673214D01*
X106459000Y-115426786D01*
X106507075Y-115185097D01*
X106601377Y-114957431D01*
X106738284Y-114752536D01*
X106738285Y-114752534D01*
X106912534Y-114578285D01*
X107117429Y-114441378D01*
X107345097Y-114347075D01*
X107586786Y-114299000D01*
X107833214Y-114299000D01*
X108074903Y-114347075D01*
X108074903Y-114347075D01*
G37*
G36*
X126074903Y-114347075D02*
G01*
X126302571Y-114441378D01*
X126507466Y-114578285D01*
X126681715Y-114752534D01*
X126681716Y-114752536D01*
X126818623Y-114957431D01*
X126912925Y-115185097D01*
X126961000Y-115426786D01*
X126961000Y-115673214D01*
X126912925Y-115914903D01*
X126857532Y-116048635D01*
X126818622Y-116142571D01*
X126681715Y-116347466D01*
X126507466Y-116521715D01*
X126302571Y-116658622D01*
X126302570Y-116658623D01*
X126302569Y-116658623D01*
X126074903Y-116752925D01*
X125833214Y-116801000D01*
X125586786Y-116801000D01*
X125345097Y-116752925D01*
X125117431Y-116658623D01*
X125117430Y-116658623D01*
X125117429Y-116658622D01*
X124912534Y-116521715D01*
X124738285Y-116347466D01*
X124601378Y-116142571D01*
X124562469Y-116048635D01*
X124507075Y-115914903D01*
X124459000Y-115673214D01*
X124459000Y-115426786D01*
X124507075Y-115185097D01*
X124601377Y-114957431D01*
X124738284Y-114752536D01*
X124738285Y-114752534D01*
X124912534Y-114578285D01*
X125117429Y-114441378D01*
X125345097Y-114347075D01*
X125586786Y-114299000D01*
X125833214Y-114299000D01*
X126074903Y-114347075D01*
X126074903Y-114347075D01*
G37*
G36*
X159840082Y-115186802D02*
G01*
X159988041Y-115248089D01*
X160121195Y-115337059D01*
X160234441Y-115450305D01*
X160323411Y-115583459D01*
X160384698Y-115731418D01*
X160415940Y-115888485D01*
X160415940Y-116048635D01*
X160384698Y-116205702D01*
X160323411Y-116353661D01*
X160234441Y-116486815D01*
X160121195Y-116600061D01*
X159988041Y-116689031D01*
X159840082Y-116750318D01*
X159683015Y-116781560D01*
X159522865Y-116781560D01*
X159365798Y-116750318D01*
X159217839Y-116689031D01*
X159084685Y-116600061D01*
X158971439Y-116486815D01*
X158882469Y-116353661D01*
X158821182Y-116205702D01*
X158789940Y-116048635D01*
X158789940Y-115888485D01*
X158821182Y-115731418D01*
X158882469Y-115583459D01*
X158971439Y-115450305D01*
X159084685Y-115337059D01*
X159217839Y-115248089D01*
X159365798Y-115186802D01*
X159522865Y-115155560D01*
X159683015Y-115155560D01*
X159840082Y-115186802D01*
X159840082Y-115186802D01*
G37*
G36*
X162640082Y-115186802D02*
G01*
X162788041Y-115248089D01*
X162921195Y-115337059D01*
X163034441Y-115450305D01*
X163123411Y-115583459D01*
X163184698Y-115731418D01*
X163215940Y-115888485D01*
X163215940Y-116048635D01*
X163184698Y-116205702D01*
X163123411Y-116353661D01*
X163034441Y-116486815D01*
X162921195Y-116600061D01*
X162788041Y-116689031D01*
X162640082Y-116750318D01*
X162483015Y-116781560D01*
X162322865Y-116781560D01*
X162165798Y-116750318D01*
X162017839Y-116689031D01*
X161884685Y-116600061D01*
X161771439Y-116486815D01*
X161682469Y-116353661D01*
X161621182Y-116205702D01*
X161589940Y-116048635D01*
X161589940Y-115888485D01*
X161621182Y-115731418D01*
X161682469Y-115583459D01*
X161771439Y-115450305D01*
X161884685Y-115337059D01*
X162017839Y-115248089D01*
X162165798Y-115186802D01*
X162322865Y-115155560D01*
X162483015Y-115155560D01*
X162640082Y-115186802D01*
X162640082Y-115186802D01*
G37*
G36*
X167956564Y-112579389D02*
G01*
X168147833Y-112658615D01*
X168147835Y-112658616D01*
X168319973Y-112773635D01*
X168466365Y-112920027D01*
X168581385Y-113092167D01*
X168660611Y-113283436D01*
X168701000Y-113486484D01*
X168701000Y-113693516D01*
X168660611Y-113896564D01*
X168581385Y-114087833D01*
X168581384Y-114087835D01*
X168466365Y-114259973D01*
X168319973Y-114406365D01*
X168147835Y-114521384D01*
X168147834Y-114521385D01*
X168147833Y-114521385D01*
X167956564Y-114600611D01*
X167753516Y-114641000D01*
X167546484Y-114641000D01*
X167343436Y-114600611D01*
X167152167Y-114521385D01*
X167152166Y-114521385D01*
X167152165Y-114521384D01*
X166980027Y-114406365D01*
X166833635Y-114259973D01*
X166718616Y-114087835D01*
X166718615Y-114087833D01*
X166639389Y-113896564D01*
X166599000Y-113693516D01*
X166599000Y-113486484D01*
X166639389Y-113283436D01*
X166718615Y-113092167D01*
X166833635Y-112920027D01*
X166980027Y-112773635D01*
X167152165Y-112658616D01*
X167152167Y-112658615D01*
X167343436Y-112579389D01*
X167546484Y-112539000D01*
X167753516Y-112539000D01*
X167956564Y-112579389D01*
X167956564Y-112579389D01*
G37*
G36*
X150176564Y-112579389D02*
G01*
X150367833Y-112658615D01*
X150367835Y-112658616D01*
X150539973Y-112773635D01*
X150686365Y-112920027D01*
X150801385Y-113092167D01*
X150880611Y-113283436D01*
X150921000Y-113486484D01*
X150921000Y-113693516D01*
X150880611Y-113896564D01*
X150801385Y-114087833D01*
X150801384Y-114087835D01*
X150686365Y-114259973D01*
X150539973Y-114406365D01*
X150367835Y-114521384D01*
X150367834Y-114521385D01*
X150367833Y-114521385D01*
X150176564Y-114600611D01*
X149973516Y-114641000D01*
X149766484Y-114641000D01*
X149563436Y-114600611D01*
X149372167Y-114521385D01*
X149372166Y-114521385D01*
X149372165Y-114521384D01*
X149200027Y-114406365D01*
X149053635Y-114259973D01*
X148938616Y-114087835D01*
X148938615Y-114087833D01*
X148859389Y-113896564D01*
X148819000Y-113693516D01*
X148819000Y-113486484D01*
X148859389Y-113283436D01*
X148938615Y-113092167D01*
X149053635Y-112920027D01*
X149200027Y-112773635D01*
X149372165Y-112658616D01*
X149372167Y-112658615D01*
X149563436Y-112579389D01*
X149766484Y-112539000D01*
X149973516Y-112539000D01*
X150176564Y-112579389D01*
X150176564Y-112579389D01*
G37*
G36*
X167956564Y-110039389D02*
G01*
X168147833Y-110118615D01*
X168147835Y-110118616D01*
X168319973Y-110233635D01*
X168466365Y-110380027D01*
X168581385Y-110552167D01*
X168660611Y-110743436D01*
X168701000Y-110946484D01*
X168701000Y-111153516D01*
X168660611Y-111356564D01*
X168581385Y-111547833D01*
X168581384Y-111547835D01*
X168466365Y-111719973D01*
X168319973Y-111866365D01*
X168147835Y-111981384D01*
X168147834Y-111981385D01*
X168147833Y-111981385D01*
X167956564Y-112060611D01*
X167753516Y-112101000D01*
X167546484Y-112101000D01*
X167343436Y-112060611D01*
X167152167Y-111981385D01*
X167152166Y-111981385D01*
X167152165Y-111981384D01*
X166980027Y-111866365D01*
X166833635Y-111719973D01*
X166718616Y-111547835D01*
X166718615Y-111547833D01*
X166639389Y-111356564D01*
X166599000Y-111153516D01*
X166599000Y-110946484D01*
X166639389Y-110743436D01*
X166718615Y-110552167D01*
X166833635Y-110380027D01*
X166980027Y-110233635D01*
X167152165Y-110118616D01*
X167152167Y-110118615D01*
X167343436Y-110039389D01*
X167546484Y-109999000D01*
X167753516Y-109999000D01*
X167956564Y-110039389D01*
X167956564Y-110039389D01*
G37*
G36*
X150176564Y-110039389D02*
G01*
X150367833Y-110118615D01*
X150367835Y-110118616D01*
X150539973Y-110233635D01*
X150686365Y-110380027D01*
X150801385Y-110552167D01*
X150880611Y-110743436D01*
X150921000Y-110946484D01*
X150921000Y-111153516D01*
X150880611Y-111356564D01*
X150801385Y-111547833D01*
X150801384Y-111547835D01*
X150686365Y-111719973D01*
X150539973Y-111866365D01*
X150367835Y-111981384D01*
X150367834Y-111981385D01*
X150367833Y-111981385D01*
X150176564Y-112060611D01*
X149973516Y-112101000D01*
X149766484Y-112101000D01*
X149563436Y-112060611D01*
X149372167Y-111981385D01*
X149372166Y-111981385D01*
X149372165Y-111981384D01*
X149200027Y-111866365D01*
X149053635Y-111719973D01*
X148938616Y-111547835D01*
X148938615Y-111547833D01*
X148859389Y-111356564D01*
X148819000Y-111153516D01*
X148819000Y-110946484D01*
X148859389Y-110743436D01*
X148938615Y-110552167D01*
X149053635Y-110380027D01*
X149200027Y-110233635D01*
X149372165Y-110118616D01*
X149372167Y-110118615D01*
X149563436Y-110039389D01*
X149766484Y-109999000D01*
X149973516Y-109999000D01*
X150176564Y-110039389D01*
X150176564Y-110039389D01*
G37*
G36*
X178174903Y-108417075D02*
G01*
X178402571Y-108511378D01*
X178607466Y-108648285D01*
X178781715Y-108822534D01*
X178918622Y-109027429D01*
X179012925Y-109255097D01*
X179061000Y-109496787D01*
X179061000Y-109743213D01*
X179012925Y-109984903D01*
X178918622Y-110212571D01*
X178781715Y-110417466D01*
X178607466Y-110591715D01*
X178402571Y-110728622D01*
X178402570Y-110728623D01*
X178402569Y-110728623D01*
X178174903Y-110822925D01*
X177933214Y-110871000D01*
X177686786Y-110871000D01*
X177445097Y-110822925D01*
X177217431Y-110728623D01*
X177217430Y-110728623D01*
X177217429Y-110728622D01*
X177012534Y-110591715D01*
X176838285Y-110417466D01*
X176701378Y-110212571D01*
X176607075Y-109984903D01*
X176559000Y-109743213D01*
X176559000Y-109496787D01*
X176607075Y-109255097D01*
X176701378Y-109027429D01*
X176838285Y-108822534D01*
X177012534Y-108648285D01*
X177217429Y-108511378D01*
X177445097Y-108417075D01*
X177686786Y-108369000D01*
X177933214Y-108369000D01*
X178174903Y-108417075D01*
X178174903Y-108417075D01*
G37*
G36*
X157769903Y-107417075D02*
G01*
X157968630Y-107499390D01*
X157997571Y-107511378D01*
X158202466Y-107648285D01*
X158376715Y-107822534D01*
X158376716Y-107822536D01*
X158513623Y-108027431D01*
X158607925Y-108255097D01*
X158656000Y-108496786D01*
X158656000Y-108743214D01*
X158640222Y-108822534D01*
X158607925Y-108984903D01*
X158513622Y-109212571D01*
X158376715Y-109417466D01*
X158202466Y-109591715D01*
X157997571Y-109728622D01*
X157997570Y-109728623D01*
X157997569Y-109728623D01*
X157769903Y-109822925D01*
X157528214Y-109871000D01*
X157281786Y-109871000D01*
X157040097Y-109822925D01*
X156812431Y-109728623D01*
X156812430Y-109728623D01*
X156812429Y-109728622D01*
X156607534Y-109591715D01*
X156433285Y-109417466D01*
X156296378Y-109212571D01*
X156202075Y-108984903D01*
X156169778Y-108822534D01*
X156154000Y-108743214D01*
X156154000Y-108496786D01*
X156202075Y-108255097D01*
X156296377Y-108027431D01*
X156433284Y-107822536D01*
X156433285Y-107822534D01*
X156607534Y-107648285D01*
X156812429Y-107511378D01*
X156841371Y-107499390D01*
X157040097Y-107417075D01*
X157281786Y-107369000D01*
X157528214Y-107369000D01*
X157769903Y-107417075D01*
X157769903Y-107417075D01*
G37*
G36*
X128576564Y-107499389D02*
G01*
X128767833Y-107578615D01*
X128767835Y-107578616D01*
X128872100Y-107648284D01*
X128939973Y-107693635D01*
X129086365Y-107840027D01*
X129201385Y-108012167D01*
X129280611Y-108203436D01*
X129321000Y-108406484D01*
X129321000Y-108613516D01*
X129280611Y-108816564D01*
X129278138Y-108822534D01*
X129201384Y-109007835D01*
X129086365Y-109179973D01*
X128939973Y-109326365D01*
X128767835Y-109441384D01*
X128767834Y-109441385D01*
X128767833Y-109441385D01*
X128576564Y-109520611D01*
X128373516Y-109561000D01*
X128166484Y-109561000D01*
X127963436Y-109520611D01*
X127772167Y-109441385D01*
X127772166Y-109441385D01*
X127772165Y-109441384D01*
X127600027Y-109326365D01*
X127453635Y-109179973D01*
X127338616Y-109007835D01*
X127261862Y-108822534D01*
X127259389Y-108816564D01*
X127219000Y-108613516D01*
X127219000Y-108406484D01*
X127259389Y-108203436D01*
X127338615Y-108012167D01*
X127453635Y-107840027D01*
X127600027Y-107693635D01*
X127667900Y-107648284D01*
X127772165Y-107578616D01*
X127772167Y-107578615D01*
X127963436Y-107499389D01*
X128166484Y-107459000D01*
X128373516Y-107459000D01*
X128576564Y-107499389D01*
X128576564Y-107499389D01*
G37*
G36*
X143816564Y-107499389D02*
G01*
X144007833Y-107578615D01*
X144007835Y-107578616D01*
X144112100Y-107648284D01*
X144179973Y-107693635D01*
X144326365Y-107840027D01*
X144441385Y-108012167D01*
X144520611Y-108203436D01*
X144561000Y-108406484D01*
X144561000Y-108613516D01*
X144520611Y-108816564D01*
X144518138Y-108822534D01*
X144441384Y-109007835D01*
X144326365Y-109179973D01*
X144179973Y-109326365D01*
X144007835Y-109441384D01*
X144007834Y-109441385D01*
X144007833Y-109441385D01*
X143816564Y-109520611D01*
X143613516Y-109561000D01*
X143406484Y-109561000D01*
X143203436Y-109520611D01*
X143012167Y-109441385D01*
X143012166Y-109441385D01*
X143012165Y-109441384D01*
X142840027Y-109326365D01*
X142693635Y-109179973D01*
X142578616Y-109007835D01*
X142501862Y-108822534D01*
X142499389Y-108816564D01*
X142459000Y-108613516D01*
X142459000Y-108406484D01*
X142499389Y-108203436D01*
X142578615Y-108012167D01*
X142693635Y-107840027D01*
X142840027Y-107693635D01*
X142907900Y-107648284D01*
X143012165Y-107578616D01*
X143012167Y-107578615D01*
X143203436Y-107499389D01*
X143406484Y-107459000D01*
X143613516Y-107459000D01*
X143816564Y-107499389D01*
X143816564Y-107499389D01*
G37*
G36*
X167956564Y-107499389D02*
G01*
X168147833Y-107578615D01*
X168147835Y-107578616D01*
X168252100Y-107648284D01*
X168319973Y-107693635D01*
X168466365Y-107840027D01*
X168581385Y-108012167D01*
X168660611Y-108203436D01*
X168701000Y-108406484D01*
X168701000Y-108613516D01*
X168660611Y-108816564D01*
X168658138Y-108822534D01*
X168581384Y-109007835D01*
X168466365Y-109179973D01*
X168319973Y-109326365D01*
X168147835Y-109441384D01*
X168147834Y-109441385D01*
X168147833Y-109441385D01*
X167956564Y-109520611D01*
X167753516Y-109561000D01*
X167546484Y-109561000D01*
X167343436Y-109520611D01*
X167152167Y-109441385D01*
X167152166Y-109441385D01*
X167152165Y-109441384D01*
X166980027Y-109326365D01*
X166833635Y-109179973D01*
X166718616Y-109007835D01*
X166641862Y-108822534D01*
X166639389Y-108816564D01*
X166599000Y-108613516D01*
X166599000Y-108406484D01*
X166639389Y-108203436D01*
X166718615Y-108012167D01*
X166833635Y-107840027D01*
X166980027Y-107693635D01*
X167047900Y-107648284D01*
X167152165Y-107578616D01*
X167152167Y-107578615D01*
X167343436Y-107499389D01*
X167546484Y-107459000D01*
X167753516Y-107459000D01*
X167956564Y-107499389D01*
X167956564Y-107499389D01*
G37*
G36*
X150176564Y-107499389D02*
G01*
X150367833Y-107578615D01*
X150367835Y-107578616D01*
X150472100Y-107648284D01*
X150539973Y-107693635D01*
X150686365Y-107840027D01*
X150801385Y-108012167D01*
X150880611Y-108203436D01*
X150921000Y-108406484D01*
X150921000Y-108613516D01*
X150880611Y-108816564D01*
X150878138Y-108822534D01*
X150801384Y-109007835D01*
X150686365Y-109179973D01*
X150539973Y-109326365D01*
X150367835Y-109441384D01*
X150367834Y-109441385D01*
X150367833Y-109441385D01*
X150176564Y-109520611D01*
X149973516Y-109561000D01*
X149766484Y-109561000D01*
X149563436Y-109520611D01*
X149372167Y-109441385D01*
X149372166Y-109441385D01*
X149372165Y-109441384D01*
X149200027Y-109326365D01*
X149053635Y-109179973D01*
X148938616Y-109007835D01*
X148861862Y-108822534D01*
X148859389Y-108816564D01*
X148819000Y-108613516D01*
X148819000Y-108406484D01*
X148859389Y-108203436D01*
X148938615Y-108012167D01*
X149053635Y-107840027D01*
X149200027Y-107693635D01*
X149267900Y-107648284D01*
X149372165Y-107578616D01*
X149372167Y-107578615D01*
X149563436Y-107499389D01*
X149766484Y-107459000D01*
X149973516Y-107459000D01*
X150176564Y-107499389D01*
X150176564Y-107499389D01*
G37*
G36*
X100704903Y-105012075D02*
G01*
X100932571Y-105106378D01*
X101137466Y-105243285D01*
X101311715Y-105417534D01*
X101448622Y-105622429D01*
X101448623Y-105622431D01*
X101542925Y-105850097D01*
X101591000Y-106091786D01*
X101591000Y-106338214D01*
X101542925Y-106579903D01*
X101505192Y-106671000D01*
X101448622Y-106807571D01*
X101311715Y-107012466D01*
X101137466Y-107186715D01*
X100932571Y-107323622D01*
X100932570Y-107323623D01*
X100932569Y-107323623D01*
X100704903Y-107417925D01*
X100463214Y-107466000D01*
X100216786Y-107466000D01*
X99975097Y-107417925D01*
X99747431Y-107323623D01*
X99747430Y-107323623D01*
X99747429Y-107323622D01*
X99542534Y-107186715D01*
X99368285Y-107012466D01*
X99231378Y-106807571D01*
X99174809Y-106671000D01*
X99137075Y-106579903D01*
X99089000Y-106338214D01*
X99089000Y-106091786D01*
X99137075Y-105850097D01*
X99231377Y-105622431D01*
X99231378Y-105622429D01*
X99368285Y-105417534D01*
X99542534Y-105243285D01*
X99747429Y-105106378D01*
X99975097Y-105012075D01*
X100216786Y-104964000D01*
X100463214Y-104964000D01*
X100704903Y-105012075D01*
X100704903Y-105012075D01*
G37*
G36*
X150176564Y-104959389D02*
G01*
X150367833Y-105038615D01*
X150367835Y-105038616D01*
X150539973Y-105153635D01*
X150686365Y-105300027D01*
X150764881Y-105417534D01*
X150801385Y-105472167D01*
X150880611Y-105663436D01*
X150921000Y-105866484D01*
X150921000Y-106073516D01*
X150880611Y-106276564D01*
X150801385Y-106467833D01*
X150801384Y-106467835D01*
X150686365Y-106639973D01*
X150539973Y-106786365D01*
X150367835Y-106901384D01*
X150367834Y-106901385D01*
X150367833Y-106901385D01*
X150176564Y-106980611D01*
X149973516Y-107021000D01*
X149766484Y-107021000D01*
X149563436Y-106980611D01*
X149372167Y-106901385D01*
X149372166Y-106901385D01*
X149372165Y-106901384D01*
X149200027Y-106786365D01*
X149053635Y-106639973D01*
X148938616Y-106467835D01*
X148938615Y-106467833D01*
X148859389Y-106276564D01*
X148819000Y-106073516D01*
X148819000Y-105866484D01*
X148859389Y-105663436D01*
X148938615Y-105472167D01*
X148975120Y-105417534D01*
X149053635Y-105300027D01*
X149200027Y-105153635D01*
X149372165Y-105038616D01*
X149372167Y-105038615D01*
X149563436Y-104959389D01*
X149766484Y-104919000D01*
X149973516Y-104919000D01*
X150176564Y-104959389D01*
X150176564Y-104959389D01*
G37*
G36*
X128576564Y-104959389D02*
G01*
X128767833Y-105038615D01*
X128767835Y-105038616D01*
X128939973Y-105153635D01*
X129086365Y-105300027D01*
X129164881Y-105417534D01*
X129201385Y-105472167D01*
X129280611Y-105663436D01*
X129321000Y-105866484D01*
X129321000Y-106073516D01*
X129280611Y-106276564D01*
X129201385Y-106467833D01*
X129201384Y-106467835D01*
X129086365Y-106639973D01*
X128939973Y-106786365D01*
X128767835Y-106901384D01*
X128767834Y-106901385D01*
X128767833Y-106901385D01*
X128576564Y-106980611D01*
X128373516Y-107021000D01*
X128166484Y-107021000D01*
X127963436Y-106980611D01*
X127772167Y-106901385D01*
X127772166Y-106901385D01*
X127772165Y-106901384D01*
X127600027Y-106786365D01*
X127453635Y-106639973D01*
X127338616Y-106467835D01*
X127338615Y-106467833D01*
X127259389Y-106276564D01*
X127219000Y-106073516D01*
X127219000Y-105866484D01*
X127259389Y-105663436D01*
X127338615Y-105472167D01*
X127375120Y-105417534D01*
X127453635Y-105300027D01*
X127600027Y-105153635D01*
X127772165Y-105038616D01*
X127772167Y-105038615D01*
X127963436Y-104959389D01*
X128166484Y-104919000D01*
X128373516Y-104919000D01*
X128576564Y-104959389D01*
X128576564Y-104959389D01*
G37*
G36*
X143816564Y-104959389D02*
G01*
X144007833Y-105038615D01*
X144007835Y-105038616D01*
X144179973Y-105153635D01*
X144326365Y-105300027D01*
X144404881Y-105417534D01*
X144441385Y-105472167D01*
X144520611Y-105663436D01*
X144561000Y-105866484D01*
X144561000Y-106073516D01*
X144520611Y-106276564D01*
X144441385Y-106467833D01*
X144441384Y-106467835D01*
X144326365Y-106639973D01*
X144179973Y-106786365D01*
X144007835Y-106901384D01*
X144007834Y-106901385D01*
X144007833Y-106901385D01*
X143816564Y-106980611D01*
X143613516Y-107021000D01*
X143406484Y-107021000D01*
X143203436Y-106980611D01*
X143012167Y-106901385D01*
X143012166Y-106901385D01*
X143012165Y-106901384D01*
X142840027Y-106786365D01*
X142693635Y-106639973D01*
X142578616Y-106467835D01*
X142578615Y-106467833D01*
X142499389Y-106276564D01*
X142459000Y-106073516D01*
X142459000Y-105866484D01*
X142499389Y-105663436D01*
X142578615Y-105472167D01*
X142615120Y-105417534D01*
X142693635Y-105300027D01*
X142840027Y-105153635D01*
X143012165Y-105038616D01*
X143012167Y-105038615D01*
X143203436Y-104959389D01*
X143406484Y-104919000D01*
X143613516Y-104919000D01*
X143816564Y-104959389D01*
X143816564Y-104959389D01*
G37*
G36*
X167956564Y-104959389D02*
G01*
X168147833Y-105038615D01*
X168147835Y-105038616D01*
X168319973Y-105153635D01*
X168466365Y-105300027D01*
X168544881Y-105417534D01*
X168581385Y-105472167D01*
X168660611Y-105663436D01*
X168701000Y-105866484D01*
X168701000Y-106073516D01*
X168660611Y-106276564D01*
X168581385Y-106467833D01*
X168581384Y-106467835D01*
X168466365Y-106639973D01*
X168319973Y-106786365D01*
X168147835Y-106901384D01*
X168147834Y-106901385D01*
X168147833Y-106901385D01*
X167956564Y-106980611D01*
X167753516Y-107021000D01*
X167546484Y-107021000D01*
X167343436Y-106980611D01*
X167152167Y-106901385D01*
X167152166Y-106901385D01*
X167152165Y-106901384D01*
X166980027Y-106786365D01*
X166833635Y-106639973D01*
X166718616Y-106467835D01*
X166718615Y-106467833D01*
X166639389Y-106276564D01*
X166599000Y-106073516D01*
X166599000Y-105866484D01*
X166639389Y-105663436D01*
X166718615Y-105472167D01*
X166755120Y-105417534D01*
X166833635Y-105300027D01*
X166980027Y-105153635D01*
X167152165Y-105038616D01*
X167152167Y-105038615D01*
X167343436Y-104959389D01*
X167546484Y-104919000D01*
X167753516Y-104919000D01*
X167956564Y-104959389D01*
X167956564Y-104959389D01*
G37*
G36*
X108051000Y-106671000D02*
G01*
X105949000Y-106671000D01*
X105949000Y-104569000D01*
X108051000Y-104569000D01*
X108051000Y-106671000D01*
X108051000Y-106671000D01*
G37*
G36*
X128576564Y-102419389D02*
G01*
X128767833Y-102498615D01*
X128767835Y-102498616D01*
X128939973Y-102613635D01*
X129086365Y-102760027D01*
X129201385Y-102932167D01*
X129280611Y-103123436D01*
X129321000Y-103326484D01*
X129321000Y-103533516D01*
X129280611Y-103736564D01*
X129201385Y-103927833D01*
X129201384Y-103927835D01*
X129086365Y-104099973D01*
X128939973Y-104246365D01*
X128767835Y-104361384D01*
X128767834Y-104361385D01*
X128767833Y-104361385D01*
X128576564Y-104440611D01*
X128373516Y-104481000D01*
X128166484Y-104481000D01*
X127963436Y-104440611D01*
X127772167Y-104361385D01*
X127772166Y-104361385D01*
X127772165Y-104361384D01*
X127600027Y-104246365D01*
X127453635Y-104099973D01*
X127338616Y-103927835D01*
X127338615Y-103927833D01*
X127259389Y-103736564D01*
X127219000Y-103533516D01*
X127219000Y-103326484D01*
X127259389Y-103123436D01*
X127338615Y-102932167D01*
X127453635Y-102760027D01*
X127600027Y-102613635D01*
X127772165Y-102498616D01*
X127772167Y-102498615D01*
X127963436Y-102419389D01*
X128166484Y-102379000D01*
X128373516Y-102379000D01*
X128576564Y-102419389D01*
X128576564Y-102419389D01*
G37*
G36*
X143816564Y-102419389D02*
G01*
X144007833Y-102498615D01*
X144007835Y-102498616D01*
X144179973Y-102613635D01*
X144326365Y-102760027D01*
X144441385Y-102932167D01*
X144520611Y-103123436D01*
X144561000Y-103326484D01*
X144561000Y-103533516D01*
X144520611Y-103736564D01*
X144441385Y-103927833D01*
X144441384Y-103927835D01*
X144326365Y-104099973D01*
X144179973Y-104246365D01*
X144007835Y-104361384D01*
X144007834Y-104361385D01*
X144007833Y-104361385D01*
X143816564Y-104440611D01*
X143613516Y-104481000D01*
X143406484Y-104481000D01*
X143203436Y-104440611D01*
X143012167Y-104361385D01*
X143012166Y-104361385D01*
X143012165Y-104361384D01*
X142840027Y-104246365D01*
X142693635Y-104099973D01*
X142578616Y-103927835D01*
X142578615Y-103927833D01*
X142499389Y-103736564D01*
X142459000Y-103533516D01*
X142459000Y-103326484D01*
X142499389Y-103123436D01*
X142578615Y-102932167D01*
X142693635Y-102760027D01*
X142840027Y-102613635D01*
X143012165Y-102498616D01*
X143012167Y-102498615D01*
X143203436Y-102419389D01*
X143406484Y-102379000D01*
X143613516Y-102379000D01*
X143816564Y-102419389D01*
X143816564Y-102419389D01*
G37*
G36*
X167956564Y-102419389D02*
G01*
X168147833Y-102498615D01*
X168147835Y-102498616D01*
X168319973Y-102613635D01*
X168466365Y-102760027D01*
X168581385Y-102932167D01*
X168660611Y-103123436D01*
X168701000Y-103326484D01*
X168701000Y-103533516D01*
X168660611Y-103736564D01*
X168581385Y-103927833D01*
X168581384Y-103927835D01*
X168466365Y-104099973D01*
X168319973Y-104246365D01*
X168147835Y-104361384D01*
X168147834Y-104361385D01*
X168147833Y-104361385D01*
X167956564Y-104440611D01*
X167753516Y-104481000D01*
X167546484Y-104481000D01*
X167343436Y-104440611D01*
X167152167Y-104361385D01*
X167152166Y-104361385D01*
X167152165Y-104361384D01*
X166980027Y-104246365D01*
X166833635Y-104099973D01*
X166718616Y-103927835D01*
X166718615Y-103927833D01*
X166639389Y-103736564D01*
X166599000Y-103533516D01*
X166599000Y-103326484D01*
X166639389Y-103123436D01*
X166718615Y-102932167D01*
X166833635Y-102760027D01*
X166980027Y-102613635D01*
X167152165Y-102498616D01*
X167152167Y-102498615D01*
X167343436Y-102419389D01*
X167546484Y-102379000D01*
X167753516Y-102379000D01*
X167956564Y-102419389D01*
X167956564Y-102419389D01*
G37*
G36*
X150176564Y-102419389D02*
G01*
X150367833Y-102498615D01*
X150367835Y-102498616D01*
X150539973Y-102613635D01*
X150686365Y-102760027D01*
X150801385Y-102932167D01*
X150880611Y-103123436D01*
X150921000Y-103326484D01*
X150921000Y-103533516D01*
X150880611Y-103736564D01*
X150801385Y-103927833D01*
X150801384Y-103927835D01*
X150686365Y-104099973D01*
X150539973Y-104246365D01*
X150367835Y-104361384D01*
X150367834Y-104361385D01*
X150367833Y-104361385D01*
X150176564Y-104440611D01*
X149973516Y-104481000D01*
X149766484Y-104481000D01*
X149563436Y-104440611D01*
X149372167Y-104361385D01*
X149372166Y-104361385D01*
X149372165Y-104361384D01*
X149200027Y-104246365D01*
X149053635Y-104099973D01*
X148938616Y-103927835D01*
X148938615Y-103927833D01*
X148859389Y-103736564D01*
X148819000Y-103533516D01*
X148819000Y-103326484D01*
X148859389Y-103123436D01*
X148938615Y-102932167D01*
X149053635Y-102760027D01*
X149200027Y-102613635D01*
X149372165Y-102498616D01*
X149372167Y-102498615D01*
X149563436Y-102419389D01*
X149766484Y-102379000D01*
X149973516Y-102379000D01*
X150176564Y-102419389D01*
X150176564Y-102419389D01*
G37*
G36*
X113016564Y-100329389D02*
G01*
X113207833Y-100408615D01*
X113207835Y-100408616D01*
X113379973Y-100523635D01*
X113526365Y-100670027D01*
X113641385Y-100842167D01*
X113720611Y-101033436D01*
X113761000Y-101236484D01*
X113761000Y-101443516D01*
X113720611Y-101646564D01*
X113648198Y-101821384D01*
X113641384Y-101837835D01*
X113526365Y-102009973D01*
X113379973Y-102156365D01*
X113207835Y-102271384D01*
X113207834Y-102271385D01*
X113207833Y-102271385D01*
X113016564Y-102350611D01*
X112813516Y-102391000D01*
X112606484Y-102391000D01*
X112403436Y-102350611D01*
X112212167Y-102271385D01*
X112212166Y-102271385D01*
X112212165Y-102271384D01*
X112040027Y-102156365D01*
X111893635Y-102009973D01*
X111778616Y-101837835D01*
X111771802Y-101821384D01*
X111699389Y-101646564D01*
X111659000Y-101443516D01*
X111659000Y-101236484D01*
X111699389Y-101033436D01*
X111778615Y-100842167D01*
X111893635Y-100670027D01*
X112040027Y-100523635D01*
X112212165Y-100408616D01*
X112212167Y-100408615D01*
X112403436Y-100329389D01*
X112606484Y-100289000D01*
X112813516Y-100289000D01*
X113016564Y-100329389D01*
X113016564Y-100329389D01*
G37*
G36*
X121016564Y-100329389D02*
G01*
X121207833Y-100408615D01*
X121207835Y-100408616D01*
X121379973Y-100523635D01*
X121526365Y-100670027D01*
X121641385Y-100842167D01*
X121720611Y-101033436D01*
X121761000Y-101236484D01*
X121761000Y-101443516D01*
X121720611Y-101646564D01*
X121648198Y-101821384D01*
X121641384Y-101837835D01*
X121526365Y-102009973D01*
X121379973Y-102156365D01*
X121207835Y-102271384D01*
X121207834Y-102271385D01*
X121207833Y-102271385D01*
X121016564Y-102350611D01*
X120813516Y-102391000D01*
X120606484Y-102391000D01*
X120403436Y-102350611D01*
X120212167Y-102271385D01*
X120212166Y-102271385D01*
X120212165Y-102271384D01*
X120040027Y-102156365D01*
X119893635Y-102009973D01*
X119778616Y-101837835D01*
X119771802Y-101821384D01*
X119699389Y-101646564D01*
X119659000Y-101443516D01*
X119659000Y-101236484D01*
X119699389Y-101033436D01*
X119778615Y-100842167D01*
X119893635Y-100670027D01*
X120040027Y-100523635D01*
X120212165Y-100408616D01*
X120212167Y-100408615D01*
X120403436Y-100329389D01*
X120606484Y-100289000D01*
X120813516Y-100289000D01*
X121016564Y-100329389D01*
X121016564Y-100329389D01*
G37*
G36*
X128576564Y-99879389D02*
G01*
X128767833Y-99958615D01*
X128767835Y-99958616D01*
X128939973Y-100073635D01*
X129086365Y-100220027D01*
X129201385Y-100392167D01*
X129280611Y-100583436D01*
X129321000Y-100786484D01*
X129321000Y-100993516D01*
X129280611Y-101196564D01*
X129201385Y-101387833D01*
X129201384Y-101387835D01*
X129086365Y-101559973D01*
X128939973Y-101706365D01*
X128767835Y-101821384D01*
X128767834Y-101821385D01*
X128767833Y-101821385D01*
X128576564Y-101900611D01*
X128373516Y-101941000D01*
X128166484Y-101941000D01*
X127963436Y-101900611D01*
X127772167Y-101821385D01*
X127772166Y-101821385D01*
X127772165Y-101821384D01*
X127600027Y-101706365D01*
X127453635Y-101559973D01*
X127338616Y-101387835D01*
X127338615Y-101387833D01*
X127259389Y-101196564D01*
X127219000Y-100993516D01*
X127219000Y-100786484D01*
X127259389Y-100583436D01*
X127338615Y-100392167D01*
X127453635Y-100220027D01*
X127600027Y-100073635D01*
X127772165Y-99958616D01*
X127772167Y-99958615D01*
X127963436Y-99879389D01*
X128166484Y-99839000D01*
X128373516Y-99839000D01*
X128576564Y-99879389D01*
X128576564Y-99879389D01*
G37*
G36*
X167956564Y-99879389D02*
G01*
X168147833Y-99958615D01*
X168147835Y-99958616D01*
X168319973Y-100073635D01*
X168466365Y-100220027D01*
X168581385Y-100392167D01*
X168660611Y-100583436D01*
X168701000Y-100786484D01*
X168701000Y-100993516D01*
X168660611Y-101196564D01*
X168581385Y-101387833D01*
X168581384Y-101387835D01*
X168466365Y-101559973D01*
X168319973Y-101706365D01*
X168147835Y-101821384D01*
X168147834Y-101821385D01*
X168147833Y-101821385D01*
X167956564Y-101900611D01*
X167753516Y-101941000D01*
X167546484Y-101941000D01*
X167343436Y-101900611D01*
X167152167Y-101821385D01*
X167152166Y-101821385D01*
X167152165Y-101821384D01*
X166980027Y-101706365D01*
X166833635Y-101559973D01*
X166718616Y-101387835D01*
X166718615Y-101387833D01*
X166639389Y-101196564D01*
X166599000Y-100993516D01*
X166599000Y-100786484D01*
X166639389Y-100583436D01*
X166718615Y-100392167D01*
X166833635Y-100220027D01*
X166980027Y-100073635D01*
X167152165Y-99958616D01*
X167152167Y-99958615D01*
X167343436Y-99879389D01*
X167546484Y-99839000D01*
X167753516Y-99839000D01*
X167956564Y-99879389D01*
X167956564Y-99879389D01*
G37*
G36*
X143816564Y-99879389D02*
G01*
X144007833Y-99958615D01*
X144007835Y-99958616D01*
X144179973Y-100073635D01*
X144326365Y-100220027D01*
X144441385Y-100392167D01*
X144520611Y-100583436D01*
X144561000Y-100786484D01*
X144561000Y-100993516D01*
X144520611Y-101196564D01*
X144441385Y-101387833D01*
X144441384Y-101387835D01*
X144326365Y-101559973D01*
X144179973Y-101706365D01*
X144007835Y-101821384D01*
X144007834Y-101821385D01*
X144007833Y-101821385D01*
X143816564Y-101900611D01*
X143613516Y-101941000D01*
X143406484Y-101941000D01*
X143203436Y-101900611D01*
X143012167Y-101821385D01*
X143012166Y-101821385D01*
X143012165Y-101821384D01*
X142840027Y-101706365D01*
X142693635Y-101559973D01*
X142578616Y-101387835D01*
X142578615Y-101387833D01*
X142499389Y-101196564D01*
X142459000Y-100993516D01*
X142459000Y-100786484D01*
X142499389Y-100583436D01*
X142578615Y-100392167D01*
X142693635Y-100220027D01*
X142840027Y-100073635D01*
X143012165Y-99958616D01*
X143012167Y-99958615D01*
X143203436Y-99879389D01*
X143406484Y-99839000D01*
X143613516Y-99839000D01*
X143816564Y-99879389D01*
X143816564Y-99879389D01*
G37*
G36*
X150176564Y-99879389D02*
G01*
X150367833Y-99958615D01*
X150367835Y-99958616D01*
X150539973Y-100073635D01*
X150686365Y-100220027D01*
X150801385Y-100392167D01*
X150880611Y-100583436D01*
X150921000Y-100786484D01*
X150921000Y-100993516D01*
X150880611Y-101196564D01*
X150801385Y-101387833D01*
X150801384Y-101387835D01*
X150686365Y-101559973D01*
X150539973Y-101706365D01*
X150367835Y-101821384D01*
X150367834Y-101821385D01*
X150367833Y-101821385D01*
X150176564Y-101900611D01*
X149973516Y-101941000D01*
X149766484Y-101941000D01*
X149563436Y-101900611D01*
X149372167Y-101821385D01*
X149372166Y-101821385D01*
X149372165Y-101821384D01*
X149200027Y-101706365D01*
X149053635Y-101559973D01*
X148938616Y-101387835D01*
X148938615Y-101387833D01*
X148859389Y-101196564D01*
X148819000Y-100993516D01*
X148819000Y-100786484D01*
X148859389Y-100583436D01*
X148938615Y-100392167D01*
X149053635Y-100220027D01*
X149200027Y-100073635D01*
X149372165Y-99958616D01*
X149372167Y-99958615D01*
X149563436Y-99879389D01*
X149766484Y-99839000D01*
X149973516Y-99839000D01*
X150176564Y-99879389D01*
X150176564Y-99879389D01*
G37*
G36*
X108051000Y-100671000D02*
G01*
X105949000Y-100671000D01*
X105949000Y-98569000D01*
X108051000Y-98569000D01*
X108051000Y-100671000D01*
X108051000Y-100671000D01*
G37*
G36*
X128576564Y-97339389D02*
G01*
X128767833Y-97418615D01*
X128767835Y-97418616D01*
X128939973Y-97533635D01*
X129086365Y-97680027D01*
X129201385Y-97852167D01*
X129280611Y-98043436D01*
X129321000Y-98246484D01*
X129321000Y-98453516D01*
X129280611Y-98656564D01*
X129208198Y-98831384D01*
X129201384Y-98847835D01*
X129086365Y-99019973D01*
X128939973Y-99166365D01*
X128767835Y-99281384D01*
X128767834Y-99281385D01*
X128767833Y-99281385D01*
X128576564Y-99360611D01*
X128373516Y-99401000D01*
X128166484Y-99401000D01*
X127963436Y-99360611D01*
X127772167Y-99281385D01*
X127772166Y-99281385D01*
X127772165Y-99281384D01*
X127600027Y-99166365D01*
X127453635Y-99019973D01*
X127338616Y-98847835D01*
X127331802Y-98831384D01*
X127259389Y-98656564D01*
X127219000Y-98453516D01*
X127219000Y-98246484D01*
X127259389Y-98043436D01*
X127338615Y-97852167D01*
X127453635Y-97680027D01*
X127600027Y-97533635D01*
X127772165Y-97418616D01*
X127772167Y-97418615D01*
X127963436Y-97339389D01*
X128166484Y-97299000D01*
X128373516Y-97299000D01*
X128576564Y-97339389D01*
X128576564Y-97339389D01*
G37*
G36*
X150176564Y-97339389D02*
G01*
X150367833Y-97418615D01*
X150367835Y-97418616D01*
X150539973Y-97533635D01*
X150686365Y-97680027D01*
X150801385Y-97852167D01*
X150880611Y-98043436D01*
X150921000Y-98246484D01*
X150921000Y-98453516D01*
X150880611Y-98656564D01*
X150808198Y-98831384D01*
X150801384Y-98847835D01*
X150686365Y-99019973D01*
X150539973Y-99166365D01*
X150367835Y-99281384D01*
X150367834Y-99281385D01*
X150367833Y-99281385D01*
X150176564Y-99360611D01*
X149973516Y-99401000D01*
X149766484Y-99401000D01*
X149563436Y-99360611D01*
X149372167Y-99281385D01*
X149372166Y-99281385D01*
X149372165Y-99281384D01*
X149200027Y-99166365D01*
X149053635Y-99019973D01*
X148938616Y-98847835D01*
X148931802Y-98831384D01*
X148859389Y-98656564D01*
X148819000Y-98453516D01*
X148819000Y-98246484D01*
X148859389Y-98043436D01*
X148938615Y-97852167D01*
X149053635Y-97680027D01*
X149200027Y-97533635D01*
X149372165Y-97418616D01*
X149372167Y-97418615D01*
X149563436Y-97339389D01*
X149766484Y-97299000D01*
X149973516Y-97299000D01*
X150176564Y-97339389D01*
X150176564Y-97339389D01*
G37*
G36*
X143816564Y-97339389D02*
G01*
X144007833Y-97418615D01*
X144007835Y-97418616D01*
X144179973Y-97533635D01*
X144326365Y-97680027D01*
X144441385Y-97852167D01*
X144520611Y-98043436D01*
X144561000Y-98246484D01*
X144561000Y-98453516D01*
X144520611Y-98656564D01*
X144448198Y-98831384D01*
X144441384Y-98847835D01*
X144326365Y-99019973D01*
X144179973Y-99166365D01*
X144007835Y-99281384D01*
X144007834Y-99281385D01*
X144007833Y-99281385D01*
X143816564Y-99360611D01*
X143613516Y-99401000D01*
X143406484Y-99401000D01*
X143203436Y-99360611D01*
X143012167Y-99281385D01*
X143012166Y-99281385D01*
X143012165Y-99281384D01*
X142840027Y-99166365D01*
X142693635Y-99019973D01*
X142578616Y-98847835D01*
X142571802Y-98831384D01*
X142499389Y-98656564D01*
X142459000Y-98453516D01*
X142459000Y-98246484D01*
X142499389Y-98043436D01*
X142578615Y-97852167D01*
X142693635Y-97680027D01*
X142840027Y-97533635D01*
X143012165Y-97418616D01*
X143012167Y-97418615D01*
X143203436Y-97339389D01*
X143406484Y-97299000D01*
X143613516Y-97299000D01*
X143816564Y-97339389D01*
X143816564Y-97339389D01*
G37*
G36*
X167956564Y-97339389D02*
G01*
X168147833Y-97418615D01*
X168147835Y-97418616D01*
X168319973Y-97533635D01*
X168466365Y-97680027D01*
X168581385Y-97852167D01*
X168660611Y-98043436D01*
X168701000Y-98246484D01*
X168701000Y-98453516D01*
X168660611Y-98656564D01*
X168588198Y-98831384D01*
X168581384Y-98847835D01*
X168466365Y-99019973D01*
X168319973Y-99166365D01*
X168147835Y-99281384D01*
X168147834Y-99281385D01*
X168147833Y-99281385D01*
X167956564Y-99360611D01*
X167753516Y-99401000D01*
X167546484Y-99401000D01*
X167343436Y-99360611D01*
X167152167Y-99281385D01*
X167152166Y-99281385D01*
X167152165Y-99281384D01*
X166980027Y-99166365D01*
X166833635Y-99019973D01*
X166718616Y-98847835D01*
X166711802Y-98831384D01*
X166639389Y-98656564D01*
X166599000Y-98453516D01*
X166599000Y-98246484D01*
X166639389Y-98043436D01*
X166718615Y-97852167D01*
X166833635Y-97680027D01*
X166980027Y-97533635D01*
X167152165Y-97418616D01*
X167152167Y-97418615D01*
X167343436Y-97339389D01*
X167546484Y-97299000D01*
X167753516Y-97299000D01*
X167956564Y-97339389D01*
X167956564Y-97339389D01*
G37*
G36*
X121016564Y-96889389D02*
G01*
X121207833Y-96968615D01*
X121207835Y-96968616D01*
X121379973Y-97083635D01*
X121526365Y-97230027D01*
X121641385Y-97402167D01*
X121720611Y-97593436D01*
X121761000Y-97796484D01*
X121761000Y-98003516D01*
X121720611Y-98206564D01*
X121641385Y-98397833D01*
X121641384Y-98397835D01*
X121526365Y-98569973D01*
X121379973Y-98716365D01*
X121207835Y-98831384D01*
X121207834Y-98831385D01*
X121207833Y-98831385D01*
X121016564Y-98910611D01*
X120813516Y-98951000D01*
X120606484Y-98951000D01*
X120403436Y-98910611D01*
X120212167Y-98831385D01*
X120212166Y-98831385D01*
X120212165Y-98831384D01*
X120040027Y-98716365D01*
X119893635Y-98569973D01*
X119778616Y-98397835D01*
X119778615Y-98397833D01*
X119699389Y-98206564D01*
X119659000Y-98003516D01*
X119659000Y-97796484D01*
X119699389Y-97593436D01*
X119778615Y-97402167D01*
X119893635Y-97230027D01*
X120040027Y-97083635D01*
X120212165Y-96968616D01*
X120212167Y-96968615D01*
X120403436Y-96889389D01*
X120606484Y-96849000D01*
X120813516Y-96849000D01*
X121016564Y-96889389D01*
X121016564Y-96889389D01*
G37*
G36*
X113016564Y-96889389D02*
G01*
X113207833Y-96968615D01*
X113207835Y-96968616D01*
X113379973Y-97083635D01*
X113526365Y-97230027D01*
X113641385Y-97402167D01*
X113720611Y-97593436D01*
X113761000Y-97796484D01*
X113761000Y-98003516D01*
X113720611Y-98206564D01*
X113641385Y-98397833D01*
X113641384Y-98397835D01*
X113526365Y-98569973D01*
X113379973Y-98716365D01*
X113207835Y-98831384D01*
X113207834Y-98831385D01*
X113207833Y-98831385D01*
X113016564Y-98910611D01*
X112813516Y-98951000D01*
X112606484Y-98951000D01*
X112403436Y-98910611D01*
X112212167Y-98831385D01*
X112212166Y-98831385D01*
X112212165Y-98831384D01*
X112040027Y-98716365D01*
X111893635Y-98569973D01*
X111778616Y-98397835D01*
X111778615Y-98397833D01*
X111699389Y-98206564D01*
X111659000Y-98003516D01*
X111659000Y-97796484D01*
X111699389Y-97593436D01*
X111778615Y-97402167D01*
X111893635Y-97230027D01*
X112040027Y-97083635D01*
X112212165Y-96968616D01*
X112212167Y-96968615D01*
X112403436Y-96889389D01*
X112606484Y-96849000D01*
X112813516Y-96849000D01*
X113016564Y-96889389D01*
X113016564Y-96889389D01*
G37*
G36*
X167956564Y-94799389D02*
G01*
X168147833Y-94878615D01*
X168147835Y-94878616D01*
X168319973Y-94993635D01*
X168466365Y-95140027D01*
X168581385Y-95312167D01*
X168660611Y-95503436D01*
X168701000Y-95706484D01*
X168701000Y-95913516D01*
X168660611Y-96116564D01*
X168581385Y-96307833D01*
X168581384Y-96307835D01*
X168466365Y-96479973D01*
X168319973Y-96626365D01*
X168147835Y-96741384D01*
X168147834Y-96741385D01*
X168147833Y-96741385D01*
X167956564Y-96820611D01*
X167753516Y-96861000D01*
X167546484Y-96861000D01*
X167343436Y-96820611D01*
X167152167Y-96741385D01*
X167152166Y-96741385D01*
X167152165Y-96741384D01*
X166980027Y-96626365D01*
X166833635Y-96479973D01*
X166718616Y-96307835D01*
X166718615Y-96307833D01*
X166639389Y-96116564D01*
X166599000Y-95913516D01*
X166599000Y-95706484D01*
X166639389Y-95503436D01*
X166718615Y-95312167D01*
X166833635Y-95140027D01*
X166980027Y-94993635D01*
X167152165Y-94878616D01*
X167152167Y-94878615D01*
X167343436Y-94799389D01*
X167546484Y-94759000D01*
X167753516Y-94759000D01*
X167956564Y-94799389D01*
X167956564Y-94799389D01*
G37*
G36*
X150176564Y-94799389D02*
G01*
X150367833Y-94878615D01*
X150367835Y-94878616D01*
X150539973Y-94993635D01*
X150686365Y-95140027D01*
X150801385Y-95312167D01*
X150880611Y-95503436D01*
X150921000Y-95706484D01*
X150921000Y-95913516D01*
X150880611Y-96116564D01*
X150801385Y-96307833D01*
X150801384Y-96307835D01*
X150686365Y-96479973D01*
X150539973Y-96626365D01*
X150367835Y-96741384D01*
X150367834Y-96741385D01*
X150367833Y-96741385D01*
X150176564Y-96820611D01*
X149973516Y-96861000D01*
X149766484Y-96861000D01*
X149563436Y-96820611D01*
X149372167Y-96741385D01*
X149372166Y-96741385D01*
X149372165Y-96741384D01*
X149200027Y-96626365D01*
X149053635Y-96479973D01*
X148938616Y-96307835D01*
X148938615Y-96307833D01*
X148859389Y-96116564D01*
X148819000Y-95913516D01*
X148819000Y-95706484D01*
X148859389Y-95503436D01*
X148938615Y-95312167D01*
X149053635Y-95140027D01*
X149200027Y-94993635D01*
X149372165Y-94878616D01*
X149372167Y-94878615D01*
X149563436Y-94799389D01*
X149766484Y-94759000D01*
X149973516Y-94759000D01*
X150176564Y-94799389D01*
X150176564Y-94799389D01*
G37*
G36*
X143816564Y-94799389D02*
G01*
X144007833Y-94878615D01*
X144007835Y-94878616D01*
X144179973Y-94993635D01*
X144326365Y-95140027D01*
X144441385Y-95312167D01*
X144520611Y-95503436D01*
X144561000Y-95706484D01*
X144561000Y-95913516D01*
X144520611Y-96116564D01*
X144441385Y-96307833D01*
X144441384Y-96307835D01*
X144326365Y-96479973D01*
X144179973Y-96626365D01*
X144007835Y-96741384D01*
X144007834Y-96741385D01*
X144007833Y-96741385D01*
X143816564Y-96820611D01*
X143613516Y-96861000D01*
X143406484Y-96861000D01*
X143203436Y-96820611D01*
X143012167Y-96741385D01*
X143012166Y-96741385D01*
X143012165Y-96741384D01*
X142840027Y-96626365D01*
X142693635Y-96479973D01*
X142578616Y-96307835D01*
X142578615Y-96307833D01*
X142499389Y-96116564D01*
X142459000Y-95913516D01*
X142459000Y-95706484D01*
X142499389Y-95503436D01*
X142578615Y-95312167D01*
X142693635Y-95140027D01*
X142840027Y-94993635D01*
X143012165Y-94878616D01*
X143012167Y-94878615D01*
X143203436Y-94799389D01*
X143406484Y-94759000D01*
X143613516Y-94759000D01*
X143816564Y-94799389D01*
X143816564Y-94799389D01*
G37*
G36*
X128576564Y-94799389D02*
G01*
X128767833Y-94878615D01*
X128767835Y-94878616D01*
X128939973Y-94993635D01*
X129086365Y-95140027D01*
X129201385Y-95312167D01*
X129280611Y-95503436D01*
X129321000Y-95706484D01*
X129321000Y-95913516D01*
X129280611Y-96116564D01*
X129201385Y-96307833D01*
X129201384Y-96307835D01*
X129086365Y-96479973D01*
X128939973Y-96626365D01*
X128767835Y-96741384D01*
X128767834Y-96741385D01*
X128767833Y-96741385D01*
X128576564Y-96820611D01*
X128373516Y-96861000D01*
X128166484Y-96861000D01*
X127963436Y-96820611D01*
X127772167Y-96741385D01*
X127772166Y-96741385D01*
X127772165Y-96741384D01*
X127600027Y-96626365D01*
X127453635Y-96479973D01*
X127338616Y-96307835D01*
X127338615Y-96307833D01*
X127259389Y-96116564D01*
X127219000Y-95913516D01*
X127219000Y-95706484D01*
X127259389Y-95503436D01*
X127338615Y-95312167D01*
X127453635Y-95140027D01*
X127600027Y-94993635D01*
X127772165Y-94878616D01*
X127772167Y-94878615D01*
X127963436Y-94799389D01*
X128166484Y-94759000D01*
X128373516Y-94759000D01*
X128576564Y-94799389D01*
X128576564Y-94799389D01*
G37*
G36*
X108051000Y-94671000D02*
G01*
X105949000Y-94671000D01*
X105949000Y-92569000D01*
X108051000Y-92569000D01*
X108051000Y-94671000D01*
X108051000Y-94671000D01*
G37*
G36*
X143816564Y-92259389D02*
G01*
X144007833Y-92338615D01*
X144007835Y-92338616D01*
X144179973Y-92453635D01*
X144326365Y-92600027D01*
X144366503Y-92660097D01*
X144441385Y-92772167D01*
X144520611Y-92963436D01*
X144561000Y-93166484D01*
X144561000Y-93373516D01*
X144520611Y-93576564D01*
X144503626Y-93617569D01*
X144441384Y-93767835D01*
X144326365Y-93939973D01*
X144179973Y-94086365D01*
X144007835Y-94201384D01*
X144007834Y-94201385D01*
X144007833Y-94201385D01*
X143816564Y-94280611D01*
X143613516Y-94321000D01*
X143406484Y-94321000D01*
X143203436Y-94280611D01*
X143012167Y-94201385D01*
X143012166Y-94201385D01*
X143012165Y-94201384D01*
X142840027Y-94086365D01*
X142693635Y-93939973D01*
X142578616Y-93767835D01*
X142516374Y-93617569D01*
X142499389Y-93576564D01*
X142459000Y-93373516D01*
X142459000Y-93166484D01*
X142499389Y-92963436D01*
X142578615Y-92772167D01*
X142653498Y-92660097D01*
X142693635Y-92600027D01*
X142840027Y-92453635D01*
X143012165Y-92338616D01*
X143012167Y-92338615D01*
X143203436Y-92259389D01*
X143406484Y-92219000D01*
X143613516Y-92219000D01*
X143816564Y-92259389D01*
X143816564Y-92259389D01*
G37*
G36*
X150176564Y-92259389D02*
G01*
X150367833Y-92338615D01*
X150367835Y-92338616D01*
X150539973Y-92453635D01*
X150686365Y-92600027D01*
X150726503Y-92660097D01*
X150801385Y-92772167D01*
X150880611Y-92963436D01*
X150921000Y-93166484D01*
X150921000Y-93373516D01*
X150880611Y-93576564D01*
X150863626Y-93617569D01*
X150801384Y-93767835D01*
X150686365Y-93939973D01*
X150539973Y-94086365D01*
X150367835Y-94201384D01*
X150367834Y-94201385D01*
X150367833Y-94201385D01*
X150176564Y-94280611D01*
X149973516Y-94321000D01*
X149766484Y-94321000D01*
X149563436Y-94280611D01*
X149372167Y-94201385D01*
X149372166Y-94201385D01*
X149372165Y-94201384D01*
X149200027Y-94086365D01*
X149053635Y-93939973D01*
X148938616Y-93767835D01*
X148876374Y-93617569D01*
X148859389Y-93576564D01*
X148819000Y-93373516D01*
X148819000Y-93166484D01*
X148859389Y-92963436D01*
X148938615Y-92772167D01*
X149013498Y-92660097D01*
X149053635Y-92600027D01*
X149200027Y-92453635D01*
X149372165Y-92338616D01*
X149372167Y-92338615D01*
X149563436Y-92259389D01*
X149766484Y-92219000D01*
X149973516Y-92219000D01*
X150176564Y-92259389D01*
X150176564Y-92259389D01*
G37*
G36*
X167956564Y-92259389D02*
G01*
X168147833Y-92338615D01*
X168147835Y-92338616D01*
X168319973Y-92453635D01*
X168466365Y-92600027D01*
X168506503Y-92660097D01*
X168581385Y-92772167D01*
X168660611Y-92963436D01*
X168701000Y-93166484D01*
X168701000Y-93373516D01*
X168660611Y-93576564D01*
X168643626Y-93617569D01*
X168581384Y-93767835D01*
X168466365Y-93939973D01*
X168319973Y-94086365D01*
X168147835Y-94201384D01*
X168147834Y-94201385D01*
X168147833Y-94201385D01*
X167956564Y-94280611D01*
X167753516Y-94321000D01*
X167546484Y-94321000D01*
X167343436Y-94280611D01*
X167152167Y-94201385D01*
X167152166Y-94201385D01*
X167152165Y-94201384D01*
X166980027Y-94086365D01*
X166833635Y-93939973D01*
X166718616Y-93767835D01*
X166656374Y-93617569D01*
X166639389Y-93576564D01*
X166599000Y-93373516D01*
X166599000Y-93166484D01*
X166639389Y-92963436D01*
X166718615Y-92772167D01*
X166793498Y-92660097D01*
X166833635Y-92600027D01*
X166980027Y-92453635D01*
X167152165Y-92338616D01*
X167152167Y-92338615D01*
X167343436Y-92259389D01*
X167546484Y-92219000D01*
X167753516Y-92219000D01*
X167956564Y-92259389D01*
X167956564Y-92259389D01*
G37*
G36*
X128576564Y-92259389D02*
G01*
X128767833Y-92338615D01*
X128767835Y-92338616D01*
X128939973Y-92453635D01*
X129086365Y-92600027D01*
X129126503Y-92660097D01*
X129201385Y-92772167D01*
X129280611Y-92963436D01*
X129321000Y-93166484D01*
X129321000Y-93373516D01*
X129280611Y-93576564D01*
X129263626Y-93617569D01*
X129201384Y-93767835D01*
X129086365Y-93939973D01*
X128939973Y-94086365D01*
X128767835Y-94201384D01*
X128767834Y-94201385D01*
X128767833Y-94201385D01*
X128576564Y-94280611D01*
X128373516Y-94321000D01*
X128166484Y-94321000D01*
X127963436Y-94280611D01*
X127772167Y-94201385D01*
X127772166Y-94201385D01*
X127772165Y-94201384D01*
X127600027Y-94086365D01*
X127453635Y-93939973D01*
X127338616Y-93767835D01*
X127276374Y-93617569D01*
X127259389Y-93576564D01*
X127219000Y-93373516D01*
X127219000Y-93166484D01*
X127259389Y-92963436D01*
X127338615Y-92772167D01*
X127413498Y-92660097D01*
X127453635Y-92600027D01*
X127600027Y-92453635D01*
X127772165Y-92338616D01*
X127772167Y-92338615D01*
X127963436Y-92259389D01*
X128166484Y-92219000D01*
X128373516Y-92219000D01*
X128576564Y-92259389D01*
X128576564Y-92259389D01*
G37*
G36*
X100704903Y-91822075D02*
G01*
X100932571Y-91916378D01*
X101137466Y-92053285D01*
X101311715Y-92227534D01*
X101385937Y-92338615D01*
X101448623Y-92432431D01*
X101518043Y-92600027D01*
X101542925Y-92660097D01*
X101591000Y-92901787D01*
X101591000Y-93148213D01*
X101542925Y-93389903D01*
X101448622Y-93617571D01*
X101311715Y-93822466D01*
X101137466Y-93996715D01*
X100932571Y-94133622D01*
X100932570Y-94133623D01*
X100932569Y-94133623D01*
X100704903Y-94227925D01*
X100463214Y-94276000D01*
X100216786Y-94276000D01*
X99975097Y-94227925D01*
X99747431Y-94133623D01*
X99747430Y-94133623D01*
X99747429Y-94133622D01*
X99542534Y-93996715D01*
X99368285Y-93822466D01*
X99231378Y-93617571D01*
X99137075Y-93389903D01*
X99089000Y-93148213D01*
X99089000Y-92901787D01*
X99137075Y-92660097D01*
X99161957Y-92600027D01*
X99231377Y-92432431D01*
X99294063Y-92338615D01*
X99368285Y-92227534D01*
X99542534Y-92053285D01*
X99747429Y-91916378D01*
X99975097Y-91822075D01*
X100216786Y-91774000D01*
X100463214Y-91774000D01*
X100704903Y-91822075D01*
X100704903Y-91822075D01*
G37*
G36*
X157769903Y-89417075D02*
G01*
X157997571Y-89511378D01*
X158202466Y-89648285D01*
X158376715Y-89822534D01*
X158376716Y-89822536D01*
X158513623Y-90027431D01*
X158607925Y-90255097D01*
X158641410Y-90423435D01*
X158656000Y-90496787D01*
X158656000Y-90743213D01*
X158607925Y-90984903D01*
X158513622Y-91212571D01*
X158376715Y-91417466D01*
X158202466Y-91591715D01*
X157997571Y-91728622D01*
X157997570Y-91728623D01*
X157997569Y-91728623D01*
X157769903Y-91822925D01*
X157528214Y-91871000D01*
X157281786Y-91871000D01*
X157040097Y-91822925D01*
X156812431Y-91728623D01*
X156812430Y-91728623D01*
X156812429Y-91728622D01*
X156607534Y-91591715D01*
X156433285Y-91417466D01*
X156296378Y-91212571D01*
X156202075Y-90984903D01*
X156154000Y-90743213D01*
X156154000Y-90496787D01*
X156168591Y-90423435D01*
X156202075Y-90255097D01*
X156296377Y-90027431D01*
X156433284Y-89822536D01*
X156433285Y-89822534D01*
X156607534Y-89648285D01*
X156812429Y-89511378D01*
X157040097Y-89417075D01*
X157281786Y-89369000D01*
X157528214Y-89369000D01*
X157769903Y-89417075D01*
X157769903Y-89417075D01*
G37*
G36*
X150176564Y-89719389D02*
G01*
X150367833Y-89798615D01*
X150367835Y-89798616D01*
X150539973Y-89913635D01*
X150686365Y-90060027D01*
X150788292Y-90212571D01*
X150801385Y-90232167D01*
X150880611Y-90423436D01*
X150921000Y-90626484D01*
X150921000Y-90833516D01*
X150880611Y-91036564D01*
X150807707Y-91212571D01*
X150801384Y-91227835D01*
X150686365Y-91399973D01*
X150539973Y-91546365D01*
X150367835Y-91661384D01*
X150367834Y-91661385D01*
X150367833Y-91661385D01*
X150176564Y-91740611D01*
X149973516Y-91781000D01*
X149766484Y-91781000D01*
X149563436Y-91740611D01*
X149372167Y-91661385D01*
X149372166Y-91661385D01*
X149372165Y-91661384D01*
X149200027Y-91546365D01*
X149053635Y-91399973D01*
X148938616Y-91227835D01*
X148932293Y-91212571D01*
X148859389Y-91036564D01*
X148819000Y-90833516D01*
X148819000Y-90626484D01*
X148859389Y-90423436D01*
X148938615Y-90232167D01*
X148951709Y-90212571D01*
X149053635Y-90060027D01*
X149200027Y-89913635D01*
X149372165Y-89798616D01*
X149372167Y-89798615D01*
X149563436Y-89719389D01*
X149766484Y-89679000D01*
X149973516Y-89679000D01*
X150176564Y-89719389D01*
X150176564Y-89719389D01*
G37*
G36*
X128576564Y-89719389D02*
G01*
X128767833Y-89798615D01*
X128767835Y-89798616D01*
X128939973Y-89913635D01*
X129086365Y-90060027D01*
X129188292Y-90212571D01*
X129201385Y-90232167D01*
X129280611Y-90423436D01*
X129321000Y-90626484D01*
X129321000Y-90833516D01*
X129280611Y-91036564D01*
X129207707Y-91212571D01*
X129201384Y-91227835D01*
X129086365Y-91399973D01*
X128939973Y-91546365D01*
X128767835Y-91661384D01*
X128767834Y-91661385D01*
X128767833Y-91661385D01*
X128576564Y-91740611D01*
X128373516Y-91781000D01*
X128166484Y-91781000D01*
X127963436Y-91740611D01*
X127772167Y-91661385D01*
X127772166Y-91661385D01*
X127772165Y-91661384D01*
X127600027Y-91546365D01*
X127453635Y-91399973D01*
X127338616Y-91227835D01*
X127332293Y-91212571D01*
X127259389Y-91036564D01*
X127219000Y-90833516D01*
X127219000Y-90626484D01*
X127259389Y-90423436D01*
X127338615Y-90232167D01*
X127351709Y-90212571D01*
X127453635Y-90060027D01*
X127600027Y-89913635D01*
X127772165Y-89798616D01*
X127772167Y-89798615D01*
X127963436Y-89719389D01*
X128166484Y-89679000D01*
X128373516Y-89679000D01*
X128576564Y-89719389D01*
X128576564Y-89719389D01*
G37*
G36*
X143816564Y-89719389D02*
G01*
X144007833Y-89798615D01*
X144007835Y-89798616D01*
X144179973Y-89913635D01*
X144326365Y-90060027D01*
X144428292Y-90212571D01*
X144441385Y-90232167D01*
X144520611Y-90423436D01*
X144561000Y-90626484D01*
X144561000Y-90833516D01*
X144520611Y-91036564D01*
X144447707Y-91212571D01*
X144441384Y-91227835D01*
X144326365Y-91399973D01*
X144179973Y-91546365D01*
X144007835Y-91661384D01*
X144007834Y-91661385D01*
X144007833Y-91661385D01*
X143816564Y-91740611D01*
X143613516Y-91781000D01*
X143406484Y-91781000D01*
X143203436Y-91740611D01*
X143012167Y-91661385D01*
X143012166Y-91661385D01*
X143012165Y-91661384D01*
X142840027Y-91546365D01*
X142693635Y-91399973D01*
X142578616Y-91227835D01*
X142572293Y-91212571D01*
X142499389Y-91036564D01*
X142459000Y-90833516D01*
X142459000Y-90626484D01*
X142499389Y-90423436D01*
X142578615Y-90232167D01*
X142591709Y-90212571D01*
X142693635Y-90060027D01*
X142840027Y-89913635D01*
X143012165Y-89798616D01*
X143012167Y-89798615D01*
X143203436Y-89719389D01*
X143406484Y-89679000D01*
X143613516Y-89679000D01*
X143816564Y-89719389D01*
X143816564Y-89719389D01*
G37*
G36*
X167956564Y-89719389D02*
G01*
X168147833Y-89798615D01*
X168147835Y-89798616D01*
X168319973Y-89913635D01*
X168466365Y-90060027D01*
X168568292Y-90212571D01*
X168581385Y-90232167D01*
X168660611Y-90423436D01*
X168701000Y-90626484D01*
X168701000Y-90833516D01*
X168660611Y-91036564D01*
X168587707Y-91212571D01*
X168581384Y-91227835D01*
X168466365Y-91399973D01*
X168319973Y-91546365D01*
X168147835Y-91661384D01*
X168147834Y-91661385D01*
X168147833Y-91661385D01*
X167956564Y-91740611D01*
X167753516Y-91781000D01*
X167546484Y-91781000D01*
X167343436Y-91740611D01*
X167152167Y-91661385D01*
X167152166Y-91661385D01*
X167152165Y-91661384D01*
X166980027Y-91546365D01*
X166833635Y-91399973D01*
X166718616Y-91227835D01*
X166712293Y-91212571D01*
X166639389Y-91036564D01*
X166599000Y-90833516D01*
X166599000Y-90626484D01*
X166639389Y-90423436D01*
X166718615Y-90232167D01*
X166731709Y-90212571D01*
X166833635Y-90060027D01*
X166980027Y-89913635D01*
X167152165Y-89798616D01*
X167152167Y-89798615D01*
X167343436Y-89719389D01*
X167546484Y-89679000D01*
X167753516Y-89679000D01*
X167956564Y-89719389D01*
X167956564Y-89719389D01*
G37*
G36*
X178174903Y-88417075D02*
G01*
X178366810Y-88496565D01*
X178402571Y-88511378D01*
X178607466Y-88648285D01*
X178781715Y-88822534D01*
X178918622Y-89027429D01*
X179012925Y-89255097D01*
X179061000Y-89496787D01*
X179061000Y-89743213D01*
X179012925Y-89984903D01*
X178918622Y-90212571D01*
X178781715Y-90417466D01*
X178607466Y-90591715D01*
X178402571Y-90728622D01*
X178402570Y-90728623D01*
X178402569Y-90728623D01*
X178174903Y-90822925D01*
X177933214Y-90871000D01*
X177686786Y-90871000D01*
X177445097Y-90822925D01*
X177217431Y-90728623D01*
X177217430Y-90728623D01*
X177217429Y-90728622D01*
X177012534Y-90591715D01*
X176838285Y-90417466D01*
X176701378Y-90212571D01*
X176607075Y-89984903D01*
X176559000Y-89743213D01*
X176559000Y-89496787D01*
X176607075Y-89255097D01*
X176701378Y-89027429D01*
X176838285Y-88822534D01*
X177012534Y-88648285D01*
X177217429Y-88511378D01*
X177253191Y-88496565D01*
X177445097Y-88417075D01*
X177686786Y-88369000D01*
X177933214Y-88369000D01*
X178174903Y-88417075D01*
X178174903Y-88417075D01*
G37*
G36*
X150176564Y-87179389D02*
G01*
X150367833Y-87258615D01*
X150367835Y-87258616D01*
X150539973Y-87373635D01*
X150686365Y-87520027D01*
X150801385Y-87692167D01*
X150880611Y-87883436D01*
X150921000Y-88086484D01*
X150921000Y-88293516D01*
X150880611Y-88496564D01*
X150817766Y-88648285D01*
X150801384Y-88687835D01*
X150686365Y-88859973D01*
X150539973Y-89006365D01*
X150367835Y-89121384D01*
X150367834Y-89121385D01*
X150367833Y-89121385D01*
X150176564Y-89200611D01*
X149973516Y-89241000D01*
X149766484Y-89241000D01*
X149563436Y-89200611D01*
X149372167Y-89121385D01*
X149372166Y-89121385D01*
X149372165Y-89121384D01*
X149200027Y-89006365D01*
X149053635Y-88859973D01*
X148938616Y-88687835D01*
X148922234Y-88648285D01*
X148859389Y-88496564D01*
X148819000Y-88293516D01*
X148819000Y-88086484D01*
X148859389Y-87883436D01*
X148938615Y-87692167D01*
X149053635Y-87520027D01*
X149200027Y-87373635D01*
X149372165Y-87258616D01*
X149372167Y-87258615D01*
X149563436Y-87179389D01*
X149766484Y-87139000D01*
X149973516Y-87139000D01*
X150176564Y-87179389D01*
X150176564Y-87179389D01*
G37*
G36*
X167956564Y-87179389D02*
G01*
X168147833Y-87258615D01*
X168147835Y-87258616D01*
X168319973Y-87373635D01*
X168466365Y-87520027D01*
X168581385Y-87692167D01*
X168660611Y-87883436D01*
X168701000Y-88086484D01*
X168701000Y-88293516D01*
X168660611Y-88496564D01*
X168597766Y-88648285D01*
X168581384Y-88687835D01*
X168466365Y-88859973D01*
X168319973Y-89006365D01*
X168147835Y-89121384D01*
X168147834Y-89121385D01*
X168147833Y-89121385D01*
X167956564Y-89200611D01*
X167753516Y-89241000D01*
X167546484Y-89241000D01*
X167343436Y-89200611D01*
X167152167Y-89121385D01*
X167152166Y-89121385D01*
X167152165Y-89121384D01*
X166980027Y-89006365D01*
X166833635Y-88859973D01*
X166718616Y-88687835D01*
X166702234Y-88648285D01*
X166639389Y-88496564D01*
X166599000Y-88293516D01*
X166599000Y-88086484D01*
X166639389Y-87883436D01*
X166718615Y-87692167D01*
X166833635Y-87520027D01*
X166980027Y-87373635D01*
X167152165Y-87258616D01*
X167152167Y-87258615D01*
X167343436Y-87179389D01*
X167546484Y-87139000D01*
X167753516Y-87139000D01*
X167956564Y-87179389D01*
X167956564Y-87179389D01*
G37*
G36*
X150176564Y-84639389D02*
G01*
X150367833Y-84718615D01*
X150367835Y-84718616D01*
X150487572Y-84798622D01*
X150539973Y-84833635D01*
X150686365Y-84980027D01*
X150801385Y-85152167D01*
X150880611Y-85343436D01*
X150921000Y-85546484D01*
X150921000Y-85753516D01*
X150880611Y-85956564D01*
X150801385Y-86147833D01*
X150801384Y-86147835D01*
X150686365Y-86319973D01*
X150539973Y-86466365D01*
X150367835Y-86581384D01*
X150367834Y-86581385D01*
X150367833Y-86581385D01*
X150176564Y-86660611D01*
X149973516Y-86701000D01*
X149766484Y-86701000D01*
X149563436Y-86660611D01*
X149372167Y-86581385D01*
X149372166Y-86581385D01*
X149372165Y-86581384D01*
X149200027Y-86466365D01*
X149053635Y-86319973D01*
X148938616Y-86147835D01*
X148938615Y-86147833D01*
X148859389Y-85956564D01*
X148819000Y-85753516D01*
X148819000Y-85546484D01*
X148859389Y-85343436D01*
X148938615Y-85152167D01*
X149053635Y-84980027D01*
X149200027Y-84833635D01*
X149252428Y-84798622D01*
X149372165Y-84718616D01*
X149372167Y-84718615D01*
X149563436Y-84639389D01*
X149766484Y-84599000D01*
X149973516Y-84599000D01*
X150176564Y-84639389D01*
X150176564Y-84639389D01*
G37*
G36*
X167956564Y-84639389D02*
G01*
X168147833Y-84718615D01*
X168147835Y-84718616D01*
X168267572Y-84798622D01*
X168319973Y-84833635D01*
X168466365Y-84980027D01*
X168581385Y-85152167D01*
X168660611Y-85343436D01*
X168701000Y-85546484D01*
X168701000Y-85753516D01*
X168660611Y-85956564D01*
X168581385Y-86147833D01*
X168581384Y-86147835D01*
X168466365Y-86319973D01*
X168319973Y-86466365D01*
X168147835Y-86581384D01*
X168147834Y-86581385D01*
X168147833Y-86581385D01*
X167956564Y-86660611D01*
X167753516Y-86701000D01*
X167546484Y-86701000D01*
X167343436Y-86660611D01*
X167152167Y-86581385D01*
X167152166Y-86581385D01*
X167152165Y-86581384D01*
X166980027Y-86466365D01*
X166833635Y-86319973D01*
X166718616Y-86147835D01*
X166718615Y-86147833D01*
X166639389Y-85956564D01*
X166599000Y-85753516D01*
X166599000Y-85546484D01*
X166639389Y-85343436D01*
X166718615Y-85152167D01*
X166833635Y-84980027D01*
X166980027Y-84833635D01*
X167032428Y-84798622D01*
X167152165Y-84718616D01*
X167152167Y-84718615D01*
X167343436Y-84639389D01*
X167546484Y-84599000D01*
X167753516Y-84599000D01*
X167956564Y-84639389D01*
X167956564Y-84639389D01*
G37*
G36*
X108074903Y-82487075D02*
G01*
X108302571Y-82581378D01*
X108507466Y-82718285D01*
X108681715Y-82892534D01*
X108775476Y-83032857D01*
X108818623Y-83097431D01*
X108912925Y-83325097D01*
X108961000Y-83566786D01*
X108961000Y-83813214D01*
X108938493Y-83926365D01*
X108912925Y-84054903D01*
X108818622Y-84282571D01*
X108681715Y-84487466D01*
X108507466Y-84661715D01*
X108302571Y-84798622D01*
X108302570Y-84798623D01*
X108302569Y-84798623D01*
X108074903Y-84892925D01*
X107833214Y-84941000D01*
X107586786Y-84941000D01*
X107345097Y-84892925D01*
X107117431Y-84798623D01*
X107117430Y-84798623D01*
X107117429Y-84798622D01*
X106912534Y-84661715D01*
X106738285Y-84487466D01*
X106601378Y-84282571D01*
X106507075Y-84054903D01*
X106481507Y-83926365D01*
X106459000Y-83813214D01*
X106459000Y-83566786D01*
X106507075Y-83325097D01*
X106601377Y-83097431D01*
X106644524Y-83032857D01*
X106738285Y-82892534D01*
X106912534Y-82718285D01*
X107117429Y-82581378D01*
X107345097Y-82487075D01*
X107586786Y-82439000D01*
X107833214Y-82439000D01*
X108074903Y-82487075D01*
X108074903Y-82487075D01*
G37*
G36*
X126074903Y-82487075D02*
G01*
X126302571Y-82581378D01*
X126507466Y-82718285D01*
X126681715Y-82892534D01*
X126775476Y-83032857D01*
X126818623Y-83097431D01*
X126912925Y-83325097D01*
X126961000Y-83566786D01*
X126961000Y-83813214D01*
X126938493Y-83926365D01*
X126912925Y-84054903D01*
X126818622Y-84282571D01*
X126681715Y-84487466D01*
X126507466Y-84661715D01*
X126302571Y-84798622D01*
X126302570Y-84798623D01*
X126302569Y-84798623D01*
X126074903Y-84892925D01*
X125833214Y-84941000D01*
X125586786Y-84941000D01*
X125345097Y-84892925D01*
X125117431Y-84798623D01*
X125117430Y-84798623D01*
X125117429Y-84798622D01*
X124912534Y-84661715D01*
X124738285Y-84487466D01*
X124601378Y-84282571D01*
X124507075Y-84054903D01*
X124481507Y-83926365D01*
X124459000Y-83813214D01*
X124459000Y-83566786D01*
X124507075Y-83325097D01*
X124601377Y-83097431D01*
X124644524Y-83032857D01*
X124738285Y-82892534D01*
X124912534Y-82718285D01*
X125117429Y-82581378D01*
X125345097Y-82487075D01*
X125586786Y-82439000D01*
X125833214Y-82439000D01*
X126074903Y-82487075D01*
X126074903Y-82487075D01*
G37*
G36*
X150176564Y-82099389D02*
G01*
X150367833Y-82178615D01*
X150367835Y-82178616D01*
X150539973Y-82293635D01*
X150686365Y-82440027D01*
X150780813Y-82581378D01*
X150801385Y-82612167D01*
X150880611Y-82803436D01*
X150921000Y-83006484D01*
X150921000Y-83213516D01*
X150880611Y-83416564D01*
X150863757Y-83457253D01*
X150801384Y-83607835D01*
X150686365Y-83779973D01*
X150539973Y-83926365D01*
X150367835Y-84041384D01*
X150367834Y-84041385D01*
X150367833Y-84041385D01*
X150176564Y-84120611D01*
X149973516Y-84161000D01*
X149766484Y-84161000D01*
X149563436Y-84120611D01*
X149372167Y-84041385D01*
X149372166Y-84041385D01*
X149372165Y-84041384D01*
X149200027Y-83926365D01*
X149053635Y-83779973D01*
X148938616Y-83607835D01*
X148876243Y-83457253D01*
X148859389Y-83416564D01*
X148819000Y-83213516D01*
X148819000Y-83006484D01*
X148859389Y-82803436D01*
X148938615Y-82612167D01*
X148959188Y-82581378D01*
X149053635Y-82440027D01*
X149200027Y-82293635D01*
X149372165Y-82178616D01*
X149372167Y-82178615D01*
X149563436Y-82099389D01*
X149766484Y-82059000D01*
X149973516Y-82059000D01*
X150176564Y-82099389D01*
X150176564Y-82099389D01*
G37*
G36*
X167956564Y-82099389D02*
G01*
X168147833Y-82178615D01*
X168147835Y-82178616D01*
X168319973Y-82293635D01*
X168466365Y-82440027D01*
X168560813Y-82581378D01*
X168581385Y-82612167D01*
X168660611Y-82803436D01*
X168701000Y-83006484D01*
X168701000Y-83213516D01*
X168660611Y-83416564D01*
X168643757Y-83457253D01*
X168581384Y-83607835D01*
X168466365Y-83779973D01*
X168319973Y-83926365D01*
X168147835Y-84041384D01*
X168147834Y-84041385D01*
X168147833Y-84041385D01*
X167956564Y-84120611D01*
X167753516Y-84161000D01*
X167546484Y-84161000D01*
X167343436Y-84120611D01*
X167152167Y-84041385D01*
X167152166Y-84041385D01*
X167152165Y-84041384D01*
X166980027Y-83926365D01*
X166833635Y-83779973D01*
X166718616Y-83607835D01*
X166656243Y-83457253D01*
X166639389Y-83416564D01*
X166599000Y-83213516D01*
X166599000Y-83006484D01*
X166639389Y-82803436D01*
X166718615Y-82612167D01*
X166739188Y-82581378D01*
X166833635Y-82440027D01*
X166980027Y-82293635D01*
X167152165Y-82178616D01*
X167152167Y-82178615D01*
X167343436Y-82099389D01*
X167546484Y-82059000D01*
X167753516Y-82059000D01*
X167956564Y-82099389D01*
X167956564Y-82099389D01*
G37*
G36*
X159837142Y-82488242D02*
G01*
X159985101Y-82549529D01*
X160118255Y-82638499D01*
X160231501Y-82751745D01*
X160320471Y-82884899D01*
X160381758Y-83032858D01*
X160413000Y-83189925D01*
X160413000Y-83350075D01*
X160381758Y-83507142D01*
X160320471Y-83655101D01*
X160231501Y-83788255D01*
X160118255Y-83901501D01*
X159985101Y-83990471D01*
X159837142Y-84051758D01*
X159680075Y-84083000D01*
X159519925Y-84083000D01*
X159362858Y-84051758D01*
X159214899Y-83990471D01*
X159081745Y-83901501D01*
X158968499Y-83788255D01*
X158879529Y-83655101D01*
X158818242Y-83507142D01*
X158787000Y-83350075D01*
X158787000Y-83189925D01*
X158818242Y-83032858D01*
X158879529Y-82884899D01*
X158968499Y-82751745D01*
X159081745Y-82638499D01*
X159214899Y-82549529D01*
X159362858Y-82488242D01*
X159519925Y-82457000D01*
X159680075Y-82457000D01*
X159837142Y-82488242D01*
X159837142Y-82488242D01*
G37*
G36*
X162637142Y-82488242D02*
G01*
X162785101Y-82549529D01*
X162918255Y-82638499D01*
X163031501Y-82751745D01*
X163120471Y-82884899D01*
X163181758Y-83032858D01*
X163213000Y-83189925D01*
X163213000Y-83350075D01*
X163181758Y-83507142D01*
X163120471Y-83655101D01*
X163031501Y-83788255D01*
X162918255Y-83901501D01*
X162785101Y-83990471D01*
X162637142Y-84051758D01*
X162480075Y-84083000D01*
X162319925Y-84083000D01*
X162162858Y-84051758D01*
X162014899Y-83990471D01*
X161881745Y-83901501D01*
X161768499Y-83788255D01*
X161679529Y-83655101D01*
X161618242Y-83507142D01*
X161587000Y-83350075D01*
X161587000Y-83189925D01*
X161618242Y-83032858D01*
X161679529Y-82884899D01*
X161768499Y-82751745D01*
X161881745Y-82638499D01*
X162014899Y-82549529D01*
X162162858Y-82488242D01*
X162319925Y-82457000D01*
X162480075Y-82457000D01*
X162637142Y-82488242D01*
X162637142Y-82488242D01*
G37*
G36*
X184157907Y-79725886D02*
G01*
X180678351Y-83457253D01*
X179141045Y-82023692D01*
X182620601Y-78292325D01*
X184157907Y-79725886D01*
X184157907Y-79725886D01*
G37*
G36*
X167956564Y-79559389D02*
G01*
X168147833Y-79638615D01*
X168147835Y-79638616D01*
X168319973Y-79753635D01*
X168466365Y-79900027D01*
X168563995Y-80046140D01*
X168581385Y-80072167D01*
X168660611Y-80263436D01*
X168701000Y-80466484D01*
X168701000Y-80673516D01*
X168660611Y-80876564D01*
X168623092Y-80967142D01*
X168581384Y-81067835D01*
X168466365Y-81239973D01*
X168319973Y-81386365D01*
X168147835Y-81501384D01*
X168147834Y-81501385D01*
X168147833Y-81501385D01*
X167956564Y-81580611D01*
X167753516Y-81621000D01*
X167546484Y-81621000D01*
X167343436Y-81580611D01*
X167152167Y-81501385D01*
X167152166Y-81501385D01*
X167152165Y-81501384D01*
X166980027Y-81386365D01*
X166833635Y-81239973D01*
X166718616Y-81067835D01*
X166676908Y-80967142D01*
X166639389Y-80876564D01*
X166599000Y-80673516D01*
X166599000Y-80466484D01*
X166639389Y-80263436D01*
X166718615Y-80072167D01*
X166736006Y-80046140D01*
X166833635Y-79900027D01*
X166980027Y-79753635D01*
X167152165Y-79638616D01*
X167152167Y-79638615D01*
X167343436Y-79559389D01*
X167546484Y-79519000D01*
X167753516Y-79519000D01*
X167956564Y-79559389D01*
X167956564Y-79559389D01*
G37*
G36*
X150176564Y-79559389D02*
G01*
X150367833Y-79638615D01*
X150367835Y-79638616D01*
X150539973Y-79753635D01*
X150686365Y-79900027D01*
X150783995Y-80046140D01*
X150801385Y-80072167D01*
X150880611Y-80263436D01*
X150921000Y-80466484D01*
X150921000Y-80673516D01*
X150880611Y-80876564D01*
X150843092Y-80967142D01*
X150801384Y-81067835D01*
X150686365Y-81239973D01*
X150539973Y-81386365D01*
X150367835Y-81501384D01*
X150367834Y-81501385D01*
X150367833Y-81501385D01*
X150176564Y-81580611D01*
X149973516Y-81621000D01*
X149766484Y-81621000D01*
X149563436Y-81580611D01*
X149372167Y-81501385D01*
X149372166Y-81501385D01*
X149372165Y-81501384D01*
X149200027Y-81386365D01*
X149053635Y-81239973D01*
X148938616Y-81067835D01*
X148896908Y-80967142D01*
X148859389Y-80876564D01*
X148819000Y-80673516D01*
X148819000Y-80466484D01*
X148859389Y-80263436D01*
X148938615Y-80072167D01*
X148956006Y-80046140D01*
X149053635Y-79900027D01*
X149200027Y-79753635D01*
X149372165Y-79638616D01*
X149372167Y-79638615D01*
X149563436Y-79559389D01*
X149766484Y-79519000D01*
X149973516Y-79519000D01*
X150176564Y-79559389D01*
X150176564Y-79559389D01*
G37*
G36*
X162637142Y-79948242D02*
G01*
X162785101Y-80009529D01*
X162918255Y-80098499D01*
X163031501Y-80211745D01*
X163120471Y-80344899D01*
X163181758Y-80492858D01*
X163213000Y-80649925D01*
X163213000Y-80810075D01*
X163181758Y-80967142D01*
X163120471Y-81115101D01*
X163031501Y-81248255D01*
X162918255Y-81361501D01*
X162785101Y-81450471D01*
X162637142Y-81511758D01*
X162480075Y-81543000D01*
X162319925Y-81543000D01*
X162162858Y-81511758D01*
X162014899Y-81450471D01*
X161881745Y-81361501D01*
X161768499Y-81248255D01*
X161679529Y-81115101D01*
X161618242Y-80967142D01*
X161587000Y-80810075D01*
X161587000Y-80649925D01*
X161618242Y-80492858D01*
X161679529Y-80344899D01*
X161768499Y-80211745D01*
X161881745Y-80098499D01*
X162014899Y-80009529D01*
X162162858Y-79948242D01*
X162319925Y-79917000D01*
X162480075Y-79917000D01*
X162637142Y-79948242D01*
X162637142Y-79948242D01*
G37*
G36*
X159917142Y-79948242D02*
G01*
X160065101Y-80009529D01*
X160198255Y-80098499D01*
X160311501Y-80211745D01*
X160400471Y-80344899D01*
X160461758Y-80492858D01*
X160493000Y-80649925D01*
X160493000Y-80810075D01*
X160461758Y-80967142D01*
X160400471Y-81115101D01*
X160311501Y-81248255D01*
X160198255Y-81361501D01*
X160065101Y-81450471D01*
X159917142Y-81511758D01*
X159760075Y-81543000D01*
X159599925Y-81543000D01*
X159442858Y-81511758D01*
X159294899Y-81450471D01*
X159161745Y-81361501D01*
X159048499Y-81248255D01*
X158959529Y-81115101D01*
X158898242Y-80967142D01*
X158867000Y-80810075D01*
X158867000Y-80649925D01*
X158898242Y-80492858D01*
X158959529Y-80344899D01*
X159048499Y-80211745D01*
X159161745Y-80098499D01*
X159294899Y-80009529D01*
X159442858Y-79948242D01*
X159599925Y-79917000D01*
X159760075Y-79917000D01*
X159917142Y-79948242D01*
X159917142Y-79948242D01*
G37*
G36*
X177693429Y-79027985D02*
G01*
X177731496Y-79038096D01*
X177766859Y-79055439D01*
X177803060Y-79083091D01*
X177850234Y-79127081D01*
X177850244Y-79127089D01*
X178515878Y-79747804D01*
X178597806Y-79824203D01*
X178627920Y-79858391D01*
X178647689Y-79892460D01*
X178660428Y-79929720D01*
X178665655Y-79968763D01*
X178663164Y-80008071D01*
X178653053Y-80046140D01*
X178635712Y-80081498D01*
X178608058Y-80117701D01*
X178564068Y-80164875D01*
X178564060Y-80164885D01*
X178089755Y-80673514D01*
X178037445Y-80729610D01*
X178003259Y-80759723D01*
X177969193Y-80779489D01*
X177931925Y-80792232D01*
X177892886Y-80797458D01*
X177853579Y-80794967D01*
X177815512Y-80784856D01*
X177780149Y-80767513D01*
X177743948Y-80739861D01*
X177696774Y-80695871D01*
X177696764Y-80695863D01*
X176996381Y-80042744D01*
X176949202Y-79998749D01*
X176919088Y-79964561D01*
X176899319Y-79930492D01*
X176886580Y-79893232D01*
X176881353Y-79854189D01*
X176883844Y-79814881D01*
X176893955Y-79776812D01*
X176911296Y-79741454D01*
X176938950Y-79705251D01*
X176982940Y-79658077D01*
X176982948Y-79658067D01*
X177465567Y-79140522D01*
X177509563Y-79093342D01*
X177543749Y-79063229D01*
X177577815Y-79043463D01*
X177615083Y-79030720D01*
X177654122Y-79025494D01*
X177693429Y-79027985D01*
X177693429Y-79027985D01*
G37*
G36*
X100548674Y-77993465D02*
G01*
X100586367Y-78004899D01*
X100621103Y-78023466D01*
X100651548Y-78048452D01*
X100676534Y-78078897D01*
X100695101Y-78113633D01*
X100706535Y-78151326D01*
X100711000Y-78196661D01*
X100711000Y-79283339D01*
X100706535Y-79328674D01*
X100695101Y-79366367D01*
X100676534Y-79401103D01*
X100651548Y-79431548D01*
X100621103Y-79456534D01*
X100586367Y-79475101D01*
X100548674Y-79486535D01*
X100503339Y-79491000D01*
X99666661Y-79491000D01*
X99621326Y-79486535D01*
X99583633Y-79475101D01*
X99548897Y-79456534D01*
X99518452Y-79431548D01*
X99493466Y-79401103D01*
X99474899Y-79366367D01*
X99463465Y-79328674D01*
X99459000Y-79283339D01*
X99459000Y-78196661D01*
X99463465Y-78151326D01*
X99474899Y-78113633D01*
X99493466Y-78078897D01*
X99518452Y-78048452D01*
X99548897Y-78023466D01*
X99583633Y-78004899D01*
X99621326Y-77993465D01*
X99666661Y-77989000D01*
X100503339Y-77989000D01*
X100548674Y-77993465D01*
X100548674Y-77993465D01*
G37*
G36*
X98498674Y-77993465D02*
G01*
X98536367Y-78004899D01*
X98571103Y-78023466D01*
X98601548Y-78048452D01*
X98626534Y-78078897D01*
X98645101Y-78113633D01*
X98656535Y-78151326D01*
X98661000Y-78196661D01*
X98661000Y-79283339D01*
X98656535Y-79328674D01*
X98645101Y-79366367D01*
X98626534Y-79401103D01*
X98601548Y-79431548D01*
X98571103Y-79456534D01*
X98536367Y-79475101D01*
X98498674Y-79486535D01*
X98453339Y-79491000D01*
X97616661Y-79491000D01*
X97571326Y-79486535D01*
X97533633Y-79475101D01*
X97498897Y-79456534D01*
X97468452Y-79431548D01*
X97443466Y-79401103D01*
X97424899Y-79366367D01*
X97413465Y-79328674D01*
X97409000Y-79283339D01*
X97409000Y-78196661D01*
X97413465Y-78151326D01*
X97424899Y-78113633D01*
X97443466Y-78078897D01*
X97468452Y-78048452D01*
X97498897Y-78023466D01*
X97533633Y-78004899D01*
X97571326Y-77993465D01*
X97616661Y-77989000D01*
X98453339Y-77989000D01*
X98498674Y-77993465D01*
X98498674Y-77993465D01*
G37*
G36*
X179091525Y-77528709D02*
G01*
X179129592Y-77538820D01*
X179164955Y-77556163D01*
X179201156Y-77583815D01*
X179248330Y-77627805D01*
X179248340Y-77627813D01*
X179913974Y-78248528D01*
X179995902Y-78324927D01*
X180026016Y-78359115D01*
X180045785Y-78393184D01*
X180058524Y-78430444D01*
X180063751Y-78469487D01*
X180061260Y-78508795D01*
X180051149Y-78546864D01*
X180033808Y-78582222D01*
X180006154Y-78618425D01*
X179962164Y-78665599D01*
X179962156Y-78665609D01*
X179519292Y-79140522D01*
X179435541Y-79230334D01*
X179401355Y-79260447D01*
X179367289Y-79280213D01*
X179330021Y-79292956D01*
X179290982Y-79298182D01*
X179251675Y-79295691D01*
X179213608Y-79285580D01*
X179178245Y-79268237D01*
X179142044Y-79240585D01*
X179094870Y-79196595D01*
X179094860Y-79196587D01*
X178394477Y-78543468D01*
X178347298Y-78499473D01*
X178317184Y-78465285D01*
X178297415Y-78431216D01*
X178284676Y-78393956D01*
X178279449Y-78354913D01*
X178281940Y-78315605D01*
X178292051Y-78277536D01*
X178309392Y-78242178D01*
X178337046Y-78205975D01*
X178381036Y-78158801D01*
X178381044Y-78158791D01*
X178863663Y-77641246D01*
X178907659Y-77594066D01*
X178941845Y-77563953D01*
X178975911Y-77544187D01*
X179013179Y-77531444D01*
X179052218Y-77526218D01*
X179091525Y-77528709D01*
X179091525Y-77528709D01*
G37*
G36*
X167956564Y-77019389D02*
G01*
X168147833Y-77098615D01*
X168147835Y-77098616D01*
X168319973Y-77213635D01*
X168466365Y-77360027D01*
X168579075Y-77528709D01*
X168581385Y-77532167D01*
X168660611Y-77723436D01*
X168701000Y-77926484D01*
X168701000Y-78133516D01*
X168660611Y-78336564D01*
X168581385Y-78527833D01*
X168581384Y-78527835D01*
X168466365Y-78699973D01*
X168319973Y-78846365D01*
X168147835Y-78961384D01*
X168147834Y-78961385D01*
X168147833Y-78961385D01*
X167956564Y-79040611D01*
X167753516Y-79081000D01*
X167546484Y-79081000D01*
X167343436Y-79040611D01*
X167152167Y-78961385D01*
X167152166Y-78961385D01*
X167152165Y-78961384D01*
X166980027Y-78846365D01*
X166833635Y-78699973D01*
X166718616Y-78527835D01*
X166718615Y-78527833D01*
X166639389Y-78336564D01*
X166599000Y-78133516D01*
X166599000Y-77926484D01*
X166639389Y-77723436D01*
X166718615Y-77532167D01*
X166720926Y-77528709D01*
X166833635Y-77360027D01*
X166980027Y-77213635D01*
X167152165Y-77098616D01*
X167152167Y-77098615D01*
X167343436Y-77019389D01*
X167546484Y-76979000D01*
X167753516Y-76979000D01*
X167956564Y-77019389D01*
X167956564Y-77019389D01*
G37*
G36*
X150176564Y-77019389D02*
G01*
X150367833Y-77098615D01*
X150367835Y-77098616D01*
X150539973Y-77213635D01*
X150686365Y-77360027D01*
X150799075Y-77528709D01*
X150801385Y-77532167D01*
X150880611Y-77723436D01*
X150921000Y-77926484D01*
X150921000Y-78133516D01*
X150880611Y-78336564D01*
X150801385Y-78527833D01*
X150801384Y-78527835D01*
X150686365Y-78699973D01*
X150539973Y-78846365D01*
X150367835Y-78961384D01*
X150367834Y-78961385D01*
X150367833Y-78961385D01*
X150176564Y-79040611D01*
X149973516Y-79081000D01*
X149766484Y-79081000D01*
X149563436Y-79040611D01*
X149372167Y-78961385D01*
X149372166Y-78961385D01*
X149372165Y-78961384D01*
X149200027Y-78846365D01*
X149053635Y-78699973D01*
X148938616Y-78527835D01*
X148938615Y-78527833D01*
X148859389Y-78336564D01*
X148819000Y-78133516D01*
X148819000Y-77926484D01*
X148859389Y-77723436D01*
X148938615Y-77532167D01*
X148940926Y-77528709D01*
X149053635Y-77360027D01*
X149200027Y-77213635D01*
X149372165Y-77098616D01*
X149372167Y-77098615D01*
X149563436Y-77019389D01*
X149766484Y-76979000D01*
X149973516Y-76979000D01*
X150176564Y-77019389D01*
X150176564Y-77019389D01*
G37*
G36*
X179038431Y-74951897D02*
G01*
X175558875Y-78683264D01*
X174021569Y-77249703D01*
X177501125Y-73518336D01*
X179038431Y-74951897D01*
X179038431Y-74951897D01*
G37*
G36*
X97411000Y-77081000D02*
G01*
X95809000Y-77081000D01*
X95809000Y-75979000D01*
X97411000Y-75979000D01*
X97411000Y-77081000D01*
X97411000Y-77081000D01*
G37*
G36*
X102311000Y-77081000D02*
G01*
X100709000Y-77081000D01*
X100709000Y-75979000D01*
X102311000Y-75979000D01*
X102311000Y-77081000D01*
X102311000Y-77081000D01*
G37*
G36*
X108769903Y-74417075D02*
G01*
X108997571Y-74511378D01*
X109202466Y-74648285D01*
X109376715Y-74822534D01*
X109513622Y-75027429D01*
X109513623Y-75027431D01*
X109607925Y-75255097D01*
X109634060Y-75386484D01*
X109656000Y-75496787D01*
X109656000Y-75743213D01*
X109607925Y-75984903D01*
X109513622Y-76212571D01*
X109376715Y-76417466D01*
X109202466Y-76591715D01*
X108997571Y-76728622D01*
X108997570Y-76728623D01*
X108997569Y-76728623D01*
X108769903Y-76822925D01*
X108528214Y-76871000D01*
X108281786Y-76871000D01*
X108040097Y-76822925D01*
X107812431Y-76728623D01*
X107812430Y-76728623D01*
X107812429Y-76728622D01*
X107607534Y-76591715D01*
X107433285Y-76417466D01*
X107296378Y-76212571D01*
X107202075Y-75984903D01*
X107154000Y-75743213D01*
X107154000Y-75496787D01*
X107175941Y-75386484D01*
X107202075Y-75255097D01*
X107296377Y-75027431D01*
X107296378Y-75027429D01*
X107433285Y-74822534D01*
X107607534Y-74648285D01*
X107812429Y-74511378D01*
X108040097Y-74417075D01*
X108281786Y-74369000D01*
X108528214Y-74369000D01*
X108769903Y-74417075D01*
X108769903Y-74417075D01*
G37*
G36*
X150176564Y-74479389D02*
G01*
X150367833Y-74558615D01*
X150367835Y-74558616D01*
X150502034Y-74648285D01*
X150539973Y-74673635D01*
X150686365Y-74820027D01*
X150801385Y-74992167D01*
X150880611Y-75183436D01*
X150921000Y-75386484D01*
X150921000Y-75593516D01*
X150880611Y-75796564D01*
X150801385Y-75987833D01*
X150801384Y-75987835D01*
X150686365Y-76159973D01*
X150539973Y-76306365D01*
X150367835Y-76421384D01*
X150367834Y-76421385D01*
X150367833Y-76421385D01*
X150176564Y-76500611D01*
X149973516Y-76541000D01*
X149766484Y-76541000D01*
X149563436Y-76500611D01*
X149372167Y-76421385D01*
X149372166Y-76421385D01*
X149372165Y-76421384D01*
X149200027Y-76306365D01*
X149053635Y-76159973D01*
X148938616Y-75987835D01*
X148938615Y-75987833D01*
X148859389Y-75796564D01*
X148819000Y-75593516D01*
X148819000Y-75386484D01*
X148859389Y-75183436D01*
X148938615Y-74992167D01*
X149053635Y-74820027D01*
X149200027Y-74673635D01*
X149237966Y-74648285D01*
X149372165Y-74558616D01*
X149372167Y-74558615D01*
X149563436Y-74479389D01*
X149766484Y-74439000D01*
X149973516Y-74439000D01*
X150176564Y-74479389D01*
X150176564Y-74479389D01*
G37*
G36*
X167956564Y-74479389D02*
G01*
X168147833Y-74558615D01*
X168147835Y-74558616D01*
X168282034Y-74648285D01*
X168319973Y-74673635D01*
X168466365Y-74820027D01*
X168581385Y-74992167D01*
X168660611Y-75183436D01*
X168701000Y-75386484D01*
X168701000Y-75593516D01*
X168660611Y-75796564D01*
X168581385Y-75987833D01*
X168581384Y-75987835D01*
X168466365Y-76159973D01*
X168319973Y-76306365D01*
X168147835Y-76421384D01*
X168147834Y-76421385D01*
X168147833Y-76421385D01*
X167956564Y-76500611D01*
X167753516Y-76541000D01*
X167546484Y-76541000D01*
X167343436Y-76500611D01*
X167152167Y-76421385D01*
X167152166Y-76421385D01*
X167152165Y-76421384D01*
X166980027Y-76306365D01*
X166833635Y-76159973D01*
X166718616Y-75987835D01*
X166718615Y-75987833D01*
X166639389Y-75796564D01*
X166599000Y-75593516D01*
X166599000Y-75386484D01*
X166639389Y-75183436D01*
X166718615Y-74992167D01*
X166833635Y-74820027D01*
X166980027Y-74673635D01*
X167017966Y-74648285D01*
X167152165Y-74558616D01*
X167152167Y-74558615D01*
X167343436Y-74479389D01*
X167546484Y-74439000D01*
X167753516Y-74439000D01*
X167956564Y-74479389D01*
X167956564Y-74479389D01*
G37*
G36*
X97411000Y-73881000D02*
G01*
X95809000Y-73881000D01*
X95809000Y-72779000D01*
X97411000Y-72779000D01*
X97411000Y-73881000D01*
X97411000Y-73881000D01*
G37*
G36*
X102311000Y-73881000D02*
G01*
X100709000Y-73881000D01*
X100709000Y-72779000D01*
X102311000Y-72779000D01*
X102311000Y-73881000D01*
X102311000Y-73881000D01*
G37*
G36*
X172456248Y-68813912D02*
G01*
X168976692Y-72545279D01*
X167439386Y-71111718D01*
X170918942Y-67380351D01*
X172456248Y-68813912D01*
X172456248Y-68813912D01*
G37*
G36*
X153118674Y-65993465D02*
G01*
X153156367Y-66004899D01*
X153191103Y-66023466D01*
X153221548Y-66048452D01*
X153246534Y-66078897D01*
X153265101Y-66113633D01*
X153276535Y-66151326D01*
X153281000Y-66196661D01*
X153281000Y-67283339D01*
X153276535Y-67328674D01*
X153265101Y-67366367D01*
X153246534Y-67401103D01*
X153221548Y-67431548D01*
X153191103Y-67456534D01*
X153156367Y-67475101D01*
X153118674Y-67486535D01*
X153073339Y-67491000D01*
X152236661Y-67491000D01*
X152191326Y-67486535D01*
X152153633Y-67475101D01*
X152118897Y-67456534D01*
X152088452Y-67431548D01*
X152063466Y-67401103D01*
X152044899Y-67366367D01*
X152033465Y-67328674D01*
X152029000Y-67283339D01*
X152029000Y-66196661D01*
X152033465Y-66151326D01*
X152044899Y-66113633D01*
X152063466Y-66078897D01*
X152088452Y-66048452D01*
X152118897Y-66023466D01*
X152153633Y-66004899D01*
X152191326Y-65993465D01*
X152236661Y-65989000D01*
X153073339Y-65989000D01*
X153118674Y-65993465D01*
X153118674Y-65993465D01*
G37*
G36*
X155168674Y-65993465D02*
G01*
X155206367Y-66004899D01*
X155241103Y-66023466D01*
X155271548Y-66048452D01*
X155296534Y-66078897D01*
X155315101Y-66113633D01*
X155326535Y-66151326D01*
X155331000Y-66196661D01*
X155331000Y-67283339D01*
X155326535Y-67328674D01*
X155315101Y-67366367D01*
X155296534Y-67401103D01*
X155271548Y-67431548D01*
X155241103Y-67456534D01*
X155206367Y-67475101D01*
X155168674Y-67486535D01*
X155123339Y-67491000D01*
X154286661Y-67491000D01*
X154241326Y-67486535D01*
X154203633Y-67475101D01*
X154168897Y-67456534D01*
X154138452Y-67431548D01*
X154113466Y-67401103D01*
X154094899Y-67366367D01*
X154083465Y-67328674D01*
X154079000Y-67283339D01*
X154079000Y-66196661D01*
X154083465Y-66151326D01*
X154094899Y-66113633D01*
X154113466Y-66078897D01*
X154138452Y-66048452D01*
X154168897Y-66023466D01*
X154203633Y-66004899D01*
X154241326Y-65993465D01*
X154286661Y-65989000D01*
X155123339Y-65989000D01*
X155168674Y-65993465D01*
X155168674Y-65993465D01*
G37*
G36*
X152031000Y-65081000D02*
G01*
X150429000Y-65081000D01*
X150429000Y-63979000D01*
X152031000Y-63979000D01*
X152031000Y-65081000D01*
X152031000Y-65081000D01*
G37*
G36*
X156931000Y-65081000D02*
G01*
X155329000Y-65081000D01*
X155329000Y-63979000D01*
X156931000Y-63979000D01*
X156931000Y-65081000D01*
X156931000Y-65081000D01*
G37*
G36*
X152031000Y-61881000D02*
G01*
X150429000Y-61881000D01*
X150429000Y-60779000D01*
X152031000Y-60779000D01*
X152031000Y-61881000D01*
X152031000Y-61881000D01*
G37*
G36*
X156931000Y-61881000D02*
G01*
X155329000Y-61881000D01*
X155329000Y-60779000D01*
X156931000Y-60779000D01*
X156931000Y-61881000D01*
X156931000Y-61881000D01*
G37*
M02*
